%TF.GenerationSoftware,KiCad,Pcbnew,(6.0.2)*%
%TF.CreationDate,2022-08-24T14:22:50-05:00*%
%TF.ProjectId,CP RSF,43502052-5346-42e6-9b69-6361645f7063,rev?*%
%TF.SameCoordinates,Original*%
%TF.FileFunction,Soldermask,Bot*%
%TF.FilePolarity,Negative*%
%FSLAX46Y46*%
G04 Gerber Fmt 4.6, Leading zero omitted, Abs format (unit mm)*
G04 Created by KiCad (PCBNEW (6.0.2)) date 2022-08-24 14:22:50*
%MOMM*%
%LPD*%
G01*
G04 APERTURE LIST*
%ADD10C,0.835000*%
%ADD11C,2.300000*%
%ADD12C,4.400000*%
%ADD13C,2.500000*%
%ADD14R,1.600000X1.600000*%
%ADD15C,1.600000*%
%ADD16C,1.860000*%
G04 APERTURE END LIST*
D10*
X128909300Y-110212700D02*
G75*
G03*
X128909300Y-110212700I-417500J0D01*
G01*
X126885300Y-110212700D02*
G75*
G03*
X126885300Y-110212700I-417500J0D01*
G01*
D11*
%TO.C,S1*%
X169552000Y-84772000D03*
X169540000Y-81722000D03*
X169568000Y-78698000D03*
X170027000Y-88067000D03*
X170038000Y-75501000D03*
%TD*%
D12*
%TO.C,Hole3*%
X161043000Y-102433000D03*
%TD*%
D13*
%TO.C,Hole1*%
X115831000Y-85035000D03*
%TD*%
D14*
%TO.C,C8*%
X128473100Y-110218000D03*
D15*
X126473100Y-110218000D03*
%TD*%
D13*
%TO.C,Hole2*%
X166073000Y-85049000D03*
%TD*%
D16*
%TO.C,J2*%
X164245000Y-77303000D03*
X162698500Y-78811000D03*
X161230100Y-77302900D03*
X159682000Y-78809000D03*
X158212000Y-77303000D03*
X156666000Y-78811000D03*
X155197600Y-77302900D03*
X153648000Y-78810000D03*
X152222000Y-77304000D03*
X150673200Y-78811000D03*
X149165100Y-77302900D03*
X147613000Y-78811000D03*
X146148800Y-77302900D03*
X144599000Y-78811000D03*
X143213000Y-77302000D03*
X141662000Y-78812000D03*
X140192000Y-77303000D03*
X138647000Y-78810000D03*
X137178000Y-77304000D03*
X135630000Y-78812000D03*
X134162000Y-77302000D03*
X132617000Y-78810000D03*
X131184000Y-77301000D03*
X129640000Y-78811000D03*
X128249000Y-77306000D03*
X126698000Y-78809000D03*
X125153000Y-77304000D03*
X123646000Y-78811000D03*
X122139000Y-77304000D03*
X120632000Y-78819000D03*
X119117000Y-77304000D03*
X117613500Y-78811000D03*
%TD*%
D12*
%TO.C,Hole4*%
X120795000Y-102481000D03*
%TD*%
M02*
