%TF.GenerationSoftware,KiCad,Pcbnew,(6.0.2)*%
%TF.CreationDate,2022-08-06T21:19:04-05:00*%
%TF.ProjectId,CP RSF,43502052-5346-42e6-9b69-6361645f7063,rev?*%
%TF.SameCoordinates,Original*%
%TF.FileFunction,Soldermask,Top*%
%TF.FilePolarity,Negative*%
%FSLAX46Y46*%
G04 Gerber Fmt 4.6, Leading zero omitted, Abs format (unit mm)*
G04 Created by KiCad (PCBNEW (6.0.2)) date 2022-08-06 21:19:04*
%MOMM*%
%LPD*%
G01*
G04 APERTURE LIST*
G04 Aperture macros list*
%AMRoundRect*
0 Rectangle with rounded corners*
0 $1 Rounding radius*
0 $2 $3 $4 $5 $6 $7 $8 $9 X,Y pos of 4 corners*
0 Add a 4 corners polygon primitive as box body*
4,1,4,$2,$3,$4,$5,$6,$7,$8,$9,$2,$3,0*
0 Add four circle primitives for the rounded corners*
1,1,$1+$1,$2,$3*
1,1,$1+$1,$4,$5*
1,1,$1+$1,$6,$7*
1,1,$1+$1,$8,$9*
0 Add four rect primitives between the rounded corners*
20,1,$1+$1,$2,$3,$4,$5,0*
20,1,$1+$1,$4,$5,$6,$7,0*
20,1,$1+$1,$6,$7,$8,$9,0*
20,1,$1+$1,$8,$9,$2,$3,0*%
G04 Aperture macros list end*
%ADD10C,2.300000*%
%ADD11RoundRect,0.225000X-0.225000X-0.250000X0.225000X-0.250000X0.225000X0.250000X-0.225000X0.250000X0*%
%ADD12C,4.400000*%
%ADD13R,1.803400X0.533400*%
%ADD14R,0.939800X0.508000*%
%ADD15RoundRect,0.200000X0.200000X0.275000X-0.200000X0.275000X-0.200000X-0.275000X0.200000X-0.275000X0*%
%ADD16RoundRect,0.225000X-0.250000X0.225000X-0.250000X-0.225000X0.250000X-0.225000X0.250000X0.225000X0*%
%ADD17R,1.206500X0.279400*%
%ADD18RoundRect,0.225000X0.250000X-0.225000X0.250000X0.225000X-0.250000X0.225000X-0.250000X-0.225000X0*%
%ADD19C,2.500000*%
%ADD20R,0.584200X2.006600*%
%ADD21R,2.006600X0.584200*%
%ADD22R,1.600000X1.600000*%
%ADD23C,1.600000*%
%ADD24RoundRect,0.225000X0.225000X0.250000X-0.225000X0.250000X-0.225000X-0.250000X0.225000X-0.250000X0*%
%ADD25RoundRect,0.200000X-0.275000X0.200000X-0.275000X-0.200000X0.275000X-0.200000X0.275000X0.200000X0*%
%ADD26R,0.508000X0.939800*%
%ADD27C,1.860000*%
%ADD28R,1.430000X5.760000*%
%ADD29R,1.030000X5.760000*%
G04 APERTURE END LIST*
D10*
%TO.C,S1*%
X169552000Y-84772000D03*
X169540000Y-81722000D03*
X169568000Y-78698000D03*
X170027000Y-88067000D03*
X170038000Y-75501000D03*
%TD*%
D11*
%TO.C,C4*%
X140729000Y-94621000D03*
X142279000Y-94621000D03*
%TD*%
D12*
%TO.C,Hole3*%
X161043000Y-102433000D03*
%TD*%
D13*
%TO.C,U2*%
X153823800Y-87158000D03*
X153823800Y-88428000D03*
X153823800Y-89698000D03*
X153823800Y-90968000D03*
X153823800Y-92238000D03*
X153823800Y-93508000D03*
X153823800Y-94778000D03*
X153823800Y-96048000D03*
X153823800Y-97318000D03*
X153823800Y-98588000D03*
X163374200Y-98588000D03*
X163374200Y-97318000D03*
X163374200Y-96048000D03*
X163374200Y-94778000D03*
X163374200Y-93508000D03*
X163374200Y-92238000D03*
X163374200Y-90968000D03*
X163374200Y-89698000D03*
X163374200Y-88428000D03*
X163374200Y-87158000D03*
%TD*%
D14*
%TO.C,RP1*%
X125842000Y-82216401D03*
X125842000Y-83016002D03*
X125842000Y-83816000D03*
X125842000Y-84603201D03*
X127569200Y-84603201D03*
X127569200Y-83816000D03*
X127569200Y-83016002D03*
X127569200Y-82216401D03*
%TD*%
D15*
%TO.C,R5*%
X145061000Y-94653000D03*
X143411000Y-94653000D03*
%TD*%
D16*
%TO.C,C6*%
X131098000Y-106511000D03*
X131098000Y-108061000D03*
%TD*%
D17*
%TO.C,U3*%
X131322150Y-81431001D03*
X131322150Y-81931000D03*
X131322150Y-82430999D03*
X131322150Y-82931001D03*
X131322150Y-83431000D03*
X131322150Y-83930999D03*
X131322150Y-84431000D03*
X131322150Y-84930999D03*
X131322150Y-85431001D03*
X131322150Y-85931000D03*
X131322150Y-86430999D03*
X131322150Y-86931000D03*
X131322150Y-87431000D03*
X131322150Y-87931001D03*
X131322150Y-88431000D03*
X131322150Y-88930999D03*
X131322150Y-89431001D03*
X131322150Y-89931000D03*
X131322150Y-90431001D03*
X131322150Y-90931000D03*
X131322150Y-91430999D03*
X131322150Y-91931001D03*
X131322150Y-92431000D03*
X131322150Y-92931001D03*
X151019850Y-92930999D03*
X151019850Y-92431000D03*
X151019850Y-91931001D03*
X151019850Y-91430999D03*
X151019850Y-90931000D03*
X151019850Y-90430999D03*
X151019850Y-89931000D03*
X151019850Y-89431001D03*
X151019850Y-88930999D03*
X151019850Y-88431000D03*
X151019850Y-87930998D03*
X151019850Y-87431000D03*
X151019850Y-86931000D03*
X151019850Y-86430999D03*
X151019850Y-85931000D03*
X151019850Y-85431001D03*
X151019850Y-84930999D03*
X151019850Y-84431000D03*
X151019850Y-83930999D03*
X151019850Y-83431000D03*
X151019850Y-82931001D03*
X151019850Y-82430999D03*
X151019850Y-81931000D03*
X151019850Y-81430999D03*
%TD*%
D18*
%TO.C,C1*%
X122754000Y-111841000D03*
X122754000Y-110291000D03*
%TD*%
D19*
%TO.C,Hole1*%
X115831000Y-85035000D03*
%TD*%
D20*
%TO.C,U4*%
X140959000Y-113557800D03*
X142229000Y-113557800D03*
X143499000Y-113557800D03*
X144769000Y-113557800D03*
X146039000Y-113557800D03*
X147309000Y-113557800D03*
D21*
X149137800Y-111729000D03*
X149137800Y-110459000D03*
X149137800Y-109189000D03*
X149137800Y-107919000D03*
X149137800Y-106649000D03*
X149137800Y-105379000D03*
X149137800Y-104109000D03*
X149137800Y-102839000D03*
X149137800Y-101569000D03*
X149137800Y-100299000D03*
X149137800Y-99029000D03*
D20*
X147309000Y-97200200D03*
X146039000Y-97200200D03*
X144769000Y-97200200D03*
X143499000Y-97200200D03*
X142229000Y-97200200D03*
X140959000Y-97200200D03*
X139689000Y-97200200D03*
X138419000Y-97200200D03*
X137149000Y-97200200D03*
X135879000Y-97200200D03*
X134609000Y-97200200D03*
D21*
X132780200Y-99029000D03*
X132780200Y-100299000D03*
X132780200Y-101569000D03*
X132780200Y-102839000D03*
X132780200Y-104109000D03*
X132780200Y-105379000D03*
X132780200Y-106649000D03*
X132780200Y-107919000D03*
X132780200Y-109189000D03*
X132780200Y-110459000D03*
X132780200Y-111729000D03*
D20*
X134609000Y-113557800D03*
X135879000Y-113557800D03*
X137149000Y-113557800D03*
X138419000Y-113557800D03*
X139689000Y-113557800D03*
%TD*%
D15*
%TO.C,R3*%
X147840000Y-94693000D03*
X146190000Y-94693000D03*
%TD*%
D22*
%TO.C,C8*%
X128473100Y-110218000D03*
D23*
X126473100Y-110218000D03*
%TD*%
D19*
%TO.C,Hole2*%
X166073000Y-85049000D03*
%TD*%
D14*
%TO.C,RP4*%
X156838000Y-85351400D03*
X156838000Y-84551799D03*
X156838000Y-83751801D03*
X156838000Y-82964600D03*
X155110800Y-82964600D03*
X155110800Y-83751801D03*
X155110800Y-84551799D03*
X155110800Y-85351400D03*
%TD*%
D24*
%TO.C,C3*%
X154142000Y-100336000D03*
X152592000Y-100336000D03*
%TD*%
D11*
%TO.C,C5*%
X118016000Y-108068000D03*
X119566000Y-108068000D03*
%TD*%
D15*
%TO.C,R6*%
X154188000Y-101839000D03*
X152538000Y-101839000D03*
%TD*%
D25*
%TO.C,R1*%
X161272000Y-109950000D03*
X161272000Y-111600000D03*
%TD*%
D13*
%TO.C,U1*%
X127952200Y-97827000D03*
X127952200Y-96557000D03*
X127952200Y-95287000D03*
X127952200Y-94017000D03*
X127952200Y-92747000D03*
X127952200Y-91477000D03*
X127952200Y-90207000D03*
X127952200Y-88937000D03*
X127952200Y-87667000D03*
X127952200Y-86397000D03*
X118401800Y-86397000D03*
X118401800Y-87667000D03*
X118401800Y-88937000D03*
X118401800Y-90207000D03*
X118401800Y-91477000D03*
X118401800Y-92747000D03*
X118401800Y-94017000D03*
X118401800Y-95287000D03*
X118401800Y-96557000D03*
X118401800Y-97827000D03*
%TD*%
D18*
%TO.C,C9*%
X164396000Y-82939000D03*
X164396000Y-81389000D03*
%TD*%
D26*
%TO.C,RP2*%
X120434400Y-84228000D03*
X121234001Y-84228000D03*
X122033999Y-84228000D03*
X122821200Y-84228000D03*
X122821200Y-82500800D03*
X122033999Y-82500800D03*
X121234001Y-82500800D03*
X120434400Y-82500800D03*
%TD*%
D27*
%TO.C,J2*%
X164245000Y-77303000D03*
X162698500Y-78811000D03*
X161230100Y-77302900D03*
X159682000Y-78809000D03*
X158212000Y-77303000D03*
X156666000Y-78811000D03*
X155197600Y-77302900D03*
X153648000Y-78810000D03*
X152222000Y-77304000D03*
X150673200Y-78811000D03*
X149165100Y-77302900D03*
X147613000Y-78811000D03*
X146148800Y-77302900D03*
X144599000Y-78811000D03*
X143213000Y-77302000D03*
X141662000Y-78812000D03*
X140192000Y-77303000D03*
X138647000Y-78810000D03*
X137178000Y-77304000D03*
X135630000Y-78812000D03*
X134162000Y-77302000D03*
X132617000Y-78810000D03*
X131184000Y-77301000D03*
X129640000Y-78811000D03*
X128249000Y-77306000D03*
X126698000Y-78809000D03*
X125153000Y-77304000D03*
X123646000Y-78811000D03*
X122139000Y-77304000D03*
X120632000Y-78819000D03*
X119117000Y-77304000D03*
X117613500Y-78811000D03*
%TD*%
D28*
%TO.C,J1*%
X117389000Y-123302000D03*
D29*
X119084000Y-123298000D03*
X120579000Y-123298000D03*
X122086000Y-123298000D03*
X123577000Y-123298000D03*
X125084000Y-123298000D03*
X126579000Y-123298000D03*
X128086000Y-123308000D03*
X129580000Y-123303000D03*
X131079000Y-123307000D03*
X132598000Y-123307000D03*
X134081000Y-123307000D03*
X135588000Y-123307000D03*
X137081000Y-123306000D03*
X138588000Y-123306000D03*
X140095000Y-123306000D03*
X141578000Y-123306000D03*
X143080000Y-123306000D03*
X144586000Y-123306000D03*
X146081000Y-123306000D03*
X147588000Y-123306000D03*
X149083000Y-123306000D03*
X150587000Y-123311000D03*
X152082000Y-123299000D03*
X153577000Y-123299000D03*
X155084000Y-123299000D03*
X156584000Y-123298000D03*
X158079000Y-123298000D03*
X159598000Y-123298000D03*
X161087000Y-123305000D03*
X162582000Y-123305000D03*
D28*
X164280000Y-123305000D03*
%TD*%
D26*
%TO.C,RP3*%
X160081000Y-84827000D03*
X160880601Y-84827000D03*
X161680599Y-84827000D03*
X162467800Y-84827000D03*
X162467800Y-83099800D03*
X161680599Y-83099800D03*
X160880601Y-83099800D03*
X160081000Y-83099800D03*
%TD*%
D12*
%TO.C,Hole4*%
X120795000Y-102481000D03*
%TD*%
D25*
%TO.C,R2*%
X123711000Y-107745000D03*
X123711000Y-109395000D03*
%TD*%
D18*
%TO.C,C7*%
X152500000Y-111698000D03*
X152500000Y-110148000D03*
%TD*%
D15*
%TO.C,R4*%
X139538000Y-94283000D03*
X137888000Y-94283000D03*
%TD*%
D24*
%TO.C,C2*%
X127943000Y-99286000D03*
X126393000Y-99286000D03*
%TD*%
M02*
