%TF.GenerationSoftware,KiCad,Pcbnew,(6.0.2)*%
%TF.CreationDate,2022-08-24T14:22:50-05:00*%
%TF.ProjectId,CP RSF,43502052-5346-42e6-9b69-6361645f7063,rev?*%
%TF.SameCoordinates,Original*%
%TF.FileFunction,Legend,Top*%
%TF.FilePolarity,Positive*%
%FSLAX46Y46*%
G04 Gerber Fmt 4.6, Leading zero omitted, Abs format (unit mm)*
G04 Created by KiCad (PCBNEW (6.0.2)) date 2022-08-24 14:22:50*
%MOMM*%
%LPD*%
G01*
G04 APERTURE LIST*
%ADD10C,0.150000*%
%ADD11C,0.120000*%
%ADD12C,0.100000*%
G04 APERTURE END LIST*
D10*
X171708095Y-82118761D02*
X171850952Y-82166380D01*
X172089047Y-82166380D01*
X172184285Y-82118761D01*
X172231904Y-82071142D01*
X172279523Y-81975904D01*
X172279523Y-81880666D01*
X172231904Y-81785428D01*
X172184285Y-81737809D01*
X172089047Y-81690190D01*
X171898571Y-81642571D01*
X171803333Y-81594952D01*
X171755714Y-81547333D01*
X171708095Y-81452095D01*
X171708095Y-81356857D01*
X171755714Y-81261619D01*
X171803333Y-81214000D01*
X171898571Y-81166380D01*
X172136666Y-81166380D01*
X172279523Y-81214000D01*
X173231904Y-82166380D02*
X172660476Y-82166380D01*
X172946190Y-82166380D02*
X172946190Y-81166380D01*
X172850952Y-81309238D01*
X172755714Y-81404476D01*
X172660476Y-81452095D01*
X165879333Y-82528142D02*
X165831714Y-82575761D01*
X165688857Y-82623380D01*
X165593619Y-82623380D01*
X165450761Y-82575761D01*
X165355523Y-82480523D01*
X165307904Y-82385285D01*
X165260285Y-82194809D01*
X165260285Y-82051952D01*
X165307904Y-81861476D01*
X165355523Y-81766238D01*
X165450761Y-81671000D01*
X165593619Y-81623380D01*
X165688857Y-81623380D01*
X165831714Y-81671000D01*
X165879333Y-81718619D01*
X166355523Y-82623380D02*
X166546000Y-82623380D01*
X166641238Y-82575761D01*
X166688857Y-82528142D01*
X166784095Y-82385285D01*
X166831714Y-82194809D01*
X166831714Y-81813857D01*
X166784095Y-81718619D01*
X166736476Y-81671000D01*
X166641238Y-81623380D01*
X166450761Y-81623380D01*
X166355523Y-81671000D01*
X166307904Y-81718619D01*
X166260285Y-81813857D01*
X166260285Y-82051952D01*
X166307904Y-82147190D01*
X166355523Y-82194809D01*
X166450761Y-82242428D01*
X166641238Y-82242428D01*
X166736476Y-82194809D01*
X166784095Y-82147190D01*
X166831714Y-82051952D01*
X159307333Y-111238380D02*
X158974000Y-110762190D01*
X158735904Y-111238380D02*
X158735904Y-110238380D01*
X159116857Y-110238380D01*
X159212095Y-110286000D01*
X159259714Y-110333619D01*
X159307333Y-110428857D01*
X159307333Y-110571714D01*
X159259714Y-110666952D01*
X159212095Y-110714571D01*
X159116857Y-110762190D01*
X158735904Y-110762190D01*
X160259714Y-111238380D02*
X159688285Y-111238380D01*
X159974000Y-111238380D02*
X159974000Y-110238380D01*
X159878761Y-110381238D01*
X159783523Y-110476476D01*
X159688285Y-110524095D01*
X153921333Y-111315142D02*
X153873714Y-111362761D01*
X153730857Y-111410380D01*
X153635619Y-111410380D01*
X153492761Y-111362761D01*
X153397523Y-111267523D01*
X153349904Y-111172285D01*
X153302285Y-110981809D01*
X153302285Y-110838952D01*
X153349904Y-110648476D01*
X153397523Y-110553238D01*
X153492761Y-110458000D01*
X153635619Y-110410380D01*
X153730857Y-110410380D01*
X153873714Y-110458000D01*
X153921333Y-110505619D01*
X154254666Y-110410380D02*
X154921333Y-110410380D01*
X154492761Y-111410380D01*
X155903333Y-102369380D02*
X155570000Y-101893190D01*
X155331904Y-102369380D02*
X155331904Y-101369380D01*
X155712857Y-101369380D01*
X155808095Y-101417000D01*
X155855714Y-101464619D01*
X155903333Y-101559857D01*
X155903333Y-101702714D01*
X155855714Y-101797952D01*
X155808095Y-101845571D01*
X155712857Y-101893190D01*
X155331904Y-101893190D01*
X156760476Y-101369380D02*
X156570000Y-101369380D01*
X156474761Y-101417000D01*
X156427142Y-101464619D01*
X156331904Y-101607476D01*
X156284285Y-101797952D01*
X156284285Y-102178904D01*
X156331904Y-102274142D01*
X156379523Y-102321761D01*
X156474761Y-102369380D01*
X156665238Y-102369380D01*
X156760476Y-102321761D01*
X156808095Y-102274142D01*
X156855714Y-102178904D01*
X156855714Y-101940809D01*
X156808095Y-101845571D01*
X156760476Y-101797952D01*
X156665238Y-101750333D01*
X156474761Y-101750333D01*
X156379523Y-101797952D01*
X156331904Y-101845571D01*
X156284285Y-101940809D01*
X155903333Y-100637142D02*
X155855714Y-100684761D01*
X155712857Y-100732380D01*
X155617619Y-100732380D01*
X155474761Y-100684761D01*
X155379523Y-100589523D01*
X155331904Y-100494285D01*
X155284285Y-100303809D01*
X155284285Y-100160952D01*
X155331904Y-99970476D01*
X155379523Y-99875238D01*
X155474761Y-99780000D01*
X155617619Y-99732380D01*
X155712857Y-99732380D01*
X155855714Y-99780000D01*
X155903333Y-99827619D01*
X156236666Y-99732380D02*
X156855714Y-99732380D01*
X156522380Y-100113333D01*
X156665238Y-100113333D01*
X156760476Y-100160952D01*
X156808095Y-100208571D01*
X156855714Y-100303809D01*
X156855714Y-100541904D01*
X156808095Y-100637142D01*
X156760476Y-100684761D01*
X156665238Y-100732380D01*
X156379523Y-100732380D01*
X156284285Y-100684761D01*
X156236666Y-100637142D01*
X146257333Y-93179380D02*
X145924000Y-92703190D01*
X145685904Y-93179380D02*
X145685904Y-92179380D01*
X146066857Y-92179380D01*
X146162095Y-92227000D01*
X146209714Y-92274619D01*
X146257333Y-92369857D01*
X146257333Y-92512714D01*
X146209714Y-92607952D01*
X146162095Y-92655571D01*
X146066857Y-92703190D01*
X145685904Y-92703190D01*
X146590666Y-92179380D02*
X147209714Y-92179380D01*
X146876380Y-92560333D01*
X147019238Y-92560333D01*
X147114476Y-92607952D01*
X147162095Y-92655571D01*
X147209714Y-92750809D01*
X147209714Y-92988904D01*
X147162095Y-93084142D01*
X147114476Y-93131761D01*
X147019238Y-93179380D01*
X146733523Y-93179380D01*
X146638285Y-93131761D01*
X146590666Y-93084142D01*
X143935333Y-93141380D02*
X143602000Y-92665190D01*
X143363904Y-93141380D02*
X143363904Y-92141380D01*
X143744857Y-92141380D01*
X143840095Y-92189000D01*
X143887714Y-92236619D01*
X143935333Y-92331857D01*
X143935333Y-92474714D01*
X143887714Y-92569952D01*
X143840095Y-92617571D01*
X143744857Y-92665190D01*
X143363904Y-92665190D01*
X144840095Y-92141380D02*
X144363904Y-92141380D01*
X144316285Y-92617571D01*
X144363904Y-92569952D01*
X144459142Y-92522333D01*
X144697238Y-92522333D01*
X144792476Y-92569952D01*
X144840095Y-92617571D01*
X144887714Y-92712809D01*
X144887714Y-92950904D01*
X144840095Y-93046142D01*
X144792476Y-93093761D01*
X144697238Y-93141380D01*
X144459142Y-93141380D01*
X144363904Y-93093761D01*
X144316285Y-93046142D01*
X138352190Y-93179380D02*
X138018857Y-92703190D01*
X137780761Y-93179380D02*
X137780761Y-92179380D01*
X138161714Y-92179380D01*
X138256952Y-92227000D01*
X138304571Y-92274619D01*
X138352190Y-92369857D01*
X138352190Y-92512714D01*
X138304571Y-92607952D01*
X138256952Y-92655571D01*
X138161714Y-92703190D01*
X137780761Y-92703190D01*
X139209333Y-92512714D02*
X139209333Y-93179380D01*
X138971238Y-92131761D02*
X138733142Y-92846047D01*
X139352190Y-92846047D01*
X141066476Y-93084142D02*
X141018857Y-93131761D01*
X140876000Y-93179380D01*
X140780761Y-93179380D01*
X140637904Y-93131761D01*
X140542666Y-93036523D01*
X140495047Y-92941285D01*
X140447428Y-92750809D01*
X140447428Y-92607952D01*
X140495047Y-92417476D01*
X140542666Y-92322238D01*
X140637904Y-92227000D01*
X140780761Y-92179380D01*
X140876000Y-92179380D01*
X141018857Y-92227000D01*
X141066476Y-92274619D01*
X141923619Y-92512714D02*
X141923619Y-93179380D01*
X141685523Y-92131761D02*
X141447428Y-92846047D01*
X142066476Y-92846047D01*
X124616333Y-100002142D02*
X124568714Y-100049761D01*
X124425857Y-100097380D01*
X124330619Y-100097380D01*
X124187761Y-100049761D01*
X124092523Y-99954523D01*
X124044904Y-99859285D01*
X123997285Y-99668809D01*
X123997285Y-99525952D01*
X124044904Y-99335476D01*
X124092523Y-99240238D01*
X124187761Y-99145000D01*
X124330619Y-99097380D01*
X124425857Y-99097380D01*
X124568714Y-99145000D01*
X124616333Y-99192619D01*
X124997285Y-99192619D02*
X125044904Y-99145000D01*
X125140142Y-99097380D01*
X125378238Y-99097380D01*
X125473476Y-99145000D01*
X125521095Y-99192619D01*
X125568714Y-99287857D01*
X125568714Y-99383095D01*
X125521095Y-99525952D01*
X124949666Y-100097380D01*
X125568714Y-100097380D01*
X129122333Y-105995142D02*
X129074714Y-106042761D01*
X128931857Y-106090380D01*
X128836619Y-106090380D01*
X128693761Y-106042761D01*
X128598523Y-105947523D01*
X128550904Y-105852285D01*
X128503285Y-105661809D01*
X128503285Y-105518952D01*
X128550904Y-105328476D01*
X128598523Y-105233238D01*
X128693761Y-105138000D01*
X128836619Y-105090380D01*
X128931857Y-105090380D01*
X129074714Y-105138000D01*
X129122333Y-105185619D01*
X129979476Y-105090380D02*
X129789000Y-105090380D01*
X129693761Y-105138000D01*
X129646142Y-105185619D01*
X129550904Y-105328476D01*
X129503285Y-105518952D01*
X129503285Y-105899904D01*
X129550904Y-105995142D01*
X129598523Y-106042761D01*
X129693761Y-106090380D01*
X129884238Y-106090380D01*
X129979476Y-106042761D01*
X130027095Y-105995142D01*
X130074714Y-105899904D01*
X130074714Y-105661809D01*
X130027095Y-105566571D01*
X129979476Y-105518952D01*
X129884238Y-105471333D01*
X129693761Y-105471333D01*
X129598523Y-105518952D01*
X129550904Y-105566571D01*
X129503285Y-105661809D01*
X127181333Y-114217142D02*
X127133714Y-114264761D01*
X126990857Y-114312380D01*
X126895619Y-114312380D01*
X126752761Y-114264761D01*
X126657523Y-114169523D01*
X126609904Y-114074285D01*
X126562285Y-113883809D01*
X126562285Y-113740952D01*
X126609904Y-113550476D01*
X126657523Y-113455238D01*
X126752761Y-113360000D01*
X126895619Y-113312380D01*
X126990857Y-113312380D01*
X127133714Y-113360000D01*
X127181333Y-113407619D01*
X127752761Y-113740952D02*
X127657523Y-113693333D01*
X127609904Y-113645714D01*
X127562285Y-113550476D01*
X127562285Y-113502857D01*
X127609904Y-113407619D01*
X127657523Y-113360000D01*
X127752761Y-113312380D01*
X127943238Y-113312380D01*
X128038476Y-113360000D01*
X128086095Y-113407619D01*
X128133714Y-113502857D01*
X128133714Y-113550476D01*
X128086095Y-113645714D01*
X128038476Y-113693333D01*
X127943238Y-113740952D01*
X127752761Y-113740952D01*
X127657523Y-113788571D01*
X127609904Y-113836190D01*
X127562285Y-113931428D01*
X127562285Y-114121904D01*
X127609904Y-114217142D01*
X127657523Y-114264761D01*
X127752761Y-114312380D01*
X127943238Y-114312380D01*
X128038476Y-114264761D01*
X128086095Y-114217142D01*
X128133714Y-114121904D01*
X128133714Y-113931428D01*
X128086095Y-113836190D01*
X128038476Y-113788571D01*
X127943238Y-113740952D01*
X123041333Y-106975380D02*
X122708000Y-106499190D01*
X122469904Y-106975380D02*
X122469904Y-105975380D01*
X122850857Y-105975380D01*
X122946095Y-106023000D01*
X122993714Y-106070619D01*
X123041333Y-106165857D01*
X123041333Y-106308714D01*
X122993714Y-106403952D01*
X122946095Y-106451571D01*
X122850857Y-106499190D01*
X122469904Y-106499190D01*
X123422285Y-106070619D02*
X123469904Y-106023000D01*
X123565142Y-105975380D01*
X123803238Y-105975380D01*
X123898476Y-106023000D01*
X123946095Y-106070619D01*
X123993714Y-106165857D01*
X123993714Y-106261095D01*
X123946095Y-106403952D01*
X123374666Y-106975380D01*
X123993714Y-106975380D01*
X118558333Y-106937142D02*
X118510714Y-106984761D01*
X118367857Y-107032380D01*
X118272619Y-107032380D01*
X118129761Y-106984761D01*
X118034523Y-106889523D01*
X117986904Y-106794285D01*
X117939285Y-106603809D01*
X117939285Y-106460952D01*
X117986904Y-106270476D01*
X118034523Y-106175238D01*
X118129761Y-106080000D01*
X118272619Y-106032380D01*
X118367857Y-106032380D01*
X118510714Y-106080000D01*
X118558333Y-106127619D01*
X119463095Y-106032380D02*
X118986904Y-106032380D01*
X118939285Y-106508571D01*
X118986904Y-106460952D01*
X119082142Y-106413333D01*
X119320238Y-106413333D01*
X119415476Y-106460952D01*
X119463095Y-106508571D01*
X119510714Y-106603809D01*
X119510714Y-106841904D01*
X119463095Y-106937142D01*
X119415476Y-106984761D01*
X119320238Y-107032380D01*
X119082142Y-107032380D01*
X118986904Y-106984761D01*
X118939285Y-106937142D01*
X121956333Y-113903142D02*
X121908714Y-113950761D01*
X121765857Y-113998380D01*
X121670619Y-113998380D01*
X121527761Y-113950761D01*
X121432523Y-113855523D01*
X121384904Y-113760285D01*
X121337285Y-113569809D01*
X121337285Y-113426952D01*
X121384904Y-113236476D01*
X121432523Y-113141238D01*
X121527761Y-113046000D01*
X121670619Y-112998380D01*
X121765857Y-112998380D01*
X121908714Y-113046000D01*
X121956333Y-113093619D01*
X122908714Y-113998380D02*
X122337285Y-113998380D01*
X122623000Y-113998380D02*
X122623000Y-112998380D01*
X122527761Y-113141238D01*
X122432523Y-113236476D01*
X122337285Y-113284095D01*
X141201714Y-111842380D02*
X140630285Y-111842380D01*
X140916000Y-111842380D02*
X140916000Y-110842380D01*
X140820761Y-110985238D01*
X140725523Y-111080476D01*
X140630285Y-111128095D01*
X136980238Y-100734666D02*
X137456428Y-100734666D01*
X136885000Y-101020380D02*
X137218333Y-100020380D01*
X137551666Y-101020380D01*
X138361190Y-101020380D02*
X137885000Y-101020380D01*
X137885000Y-100020380D01*
X138551666Y-100020380D02*
X139123095Y-100020380D01*
X138837380Y-101020380D02*
X138837380Y-100020380D01*
X139456428Y-100496571D02*
X139789761Y-100496571D01*
X139932619Y-101020380D02*
X139456428Y-101020380D01*
X139456428Y-100020380D01*
X139932619Y-100020380D01*
X140932619Y-101020380D02*
X140599285Y-100544190D01*
X140361190Y-101020380D02*
X140361190Y-100020380D01*
X140742142Y-100020380D01*
X140837380Y-100068000D01*
X140885000Y-100115619D01*
X140932619Y-100210857D01*
X140932619Y-100353714D01*
X140885000Y-100448952D01*
X140837380Y-100496571D01*
X140742142Y-100544190D01*
X140361190Y-100544190D01*
X141313571Y-100734666D02*
X141789761Y-100734666D01*
X141218333Y-101020380D02*
X141551666Y-100020380D01*
X141885000Y-101020380D01*
X136194523Y-102106571D02*
X136527857Y-102106571D01*
X136670714Y-102630380D02*
X136194523Y-102630380D01*
X136194523Y-101630380D01*
X136670714Y-101630380D01*
X137099285Y-102630380D02*
X137099285Y-101630380D01*
X137480238Y-101630380D01*
X137575476Y-101678000D01*
X137623095Y-101725619D01*
X137670714Y-101820857D01*
X137670714Y-101963714D01*
X137623095Y-102058952D01*
X137575476Y-102106571D01*
X137480238Y-102154190D01*
X137099285Y-102154190D01*
X138099285Y-102630380D02*
X138099285Y-101630380D01*
X138432619Y-102344666D01*
X138765952Y-101630380D01*
X138765952Y-102630380D01*
X139146904Y-101630380D02*
X139765952Y-101630380D01*
X139432619Y-102011333D01*
X139575476Y-102011333D01*
X139670714Y-102058952D01*
X139718333Y-102106571D01*
X139765952Y-102201809D01*
X139765952Y-102439904D01*
X139718333Y-102535142D01*
X139670714Y-102582761D01*
X139575476Y-102630380D01*
X139289761Y-102630380D01*
X139194523Y-102582761D01*
X139146904Y-102535142D01*
X140385000Y-101630380D02*
X140480238Y-101630380D01*
X140575476Y-101678000D01*
X140623095Y-101725619D01*
X140670714Y-101820857D01*
X140718333Y-102011333D01*
X140718333Y-102249428D01*
X140670714Y-102439904D01*
X140623095Y-102535142D01*
X140575476Y-102582761D01*
X140480238Y-102630380D01*
X140385000Y-102630380D01*
X140289761Y-102582761D01*
X140242142Y-102535142D01*
X140194523Y-102439904D01*
X140146904Y-102249428D01*
X140146904Y-102011333D01*
X140194523Y-101820857D01*
X140242142Y-101725619D01*
X140289761Y-101678000D01*
X140385000Y-101630380D01*
X141575476Y-101630380D02*
X141385000Y-101630380D01*
X141289761Y-101678000D01*
X141242142Y-101725619D01*
X141146904Y-101868476D01*
X141099285Y-102058952D01*
X141099285Y-102439904D01*
X141146904Y-102535142D01*
X141194523Y-102582761D01*
X141289761Y-102630380D01*
X141480238Y-102630380D01*
X141575476Y-102582761D01*
X141623095Y-102535142D01*
X141670714Y-102439904D01*
X141670714Y-102201809D01*
X141623095Y-102106571D01*
X141575476Y-102058952D01*
X141480238Y-102011333D01*
X141289761Y-102011333D01*
X141194523Y-102058952D01*
X141146904Y-102106571D01*
X141099285Y-102201809D01*
X142527857Y-101963714D02*
X142527857Y-102630380D01*
X142289761Y-101582761D02*
X142051666Y-102297047D01*
X142670714Y-102297047D01*
X135194523Y-103954666D02*
X135670714Y-103954666D01*
X135099285Y-104240380D02*
X135432619Y-103240380D01*
X135765952Y-104240380D01*
X136575476Y-104240380D02*
X136099285Y-104240380D01*
X136099285Y-103240380D01*
X137480238Y-104145142D02*
X137432619Y-104192761D01*
X137289761Y-104240380D01*
X137194523Y-104240380D01*
X137051666Y-104192761D01*
X136956428Y-104097523D01*
X136908809Y-104002285D01*
X136861190Y-103811809D01*
X136861190Y-103668952D01*
X136908809Y-103478476D01*
X136956428Y-103383238D01*
X137051666Y-103288000D01*
X137194523Y-103240380D01*
X137289761Y-103240380D01*
X137432619Y-103288000D01*
X137480238Y-103335619D01*
X138337380Y-103573714D02*
X138337380Y-104240380D01*
X138099285Y-103192761D02*
X137861190Y-103907047D01*
X138480238Y-103907047D01*
X139289761Y-103573714D02*
X139289761Y-104240380D01*
X139051666Y-103192761D02*
X138813571Y-103907047D01*
X139432619Y-103907047D01*
X139813571Y-103859428D02*
X140575476Y-103859428D01*
X141575476Y-104240380D02*
X141004047Y-104240380D01*
X141289761Y-104240380D02*
X141289761Y-103240380D01*
X141194523Y-103383238D01*
X141099285Y-103478476D01*
X141004047Y-103526095D01*
X142194523Y-103240380D02*
X142289761Y-103240380D01*
X142385000Y-103288000D01*
X142432619Y-103335619D01*
X142480238Y-103430857D01*
X142527857Y-103621333D01*
X142527857Y-103859428D01*
X142480238Y-104049904D01*
X142432619Y-104145142D01*
X142385000Y-104192761D01*
X142289761Y-104240380D01*
X142194523Y-104240380D01*
X142099285Y-104192761D01*
X142051666Y-104145142D01*
X142004047Y-104049904D01*
X141956428Y-103859428D01*
X141956428Y-103621333D01*
X142004047Y-103430857D01*
X142051666Y-103335619D01*
X142099285Y-103288000D01*
X142194523Y-103240380D01*
X142956428Y-104240380D02*
X142956428Y-103240380D01*
X143527857Y-104240380D01*
X143527857Y-103240380D01*
X132330857Y-81424428D02*
X133092761Y-81424428D01*
X134092761Y-81805380D02*
X133521333Y-81805380D01*
X133807047Y-81805380D02*
X133807047Y-80805380D01*
X133711809Y-80948238D01*
X133616571Y-81043476D01*
X133521333Y-81091095D01*
X143655142Y-82382761D02*
X143798000Y-82430380D01*
X144036095Y-82430380D01*
X144131333Y-82382761D01*
X144178952Y-82335142D01*
X144226571Y-82239904D01*
X144226571Y-82144666D01*
X144178952Y-82049428D01*
X144131333Y-82001809D01*
X144036095Y-81954190D01*
X143845619Y-81906571D01*
X143750380Y-81858952D01*
X143702761Y-81811333D01*
X143655142Y-81716095D01*
X143655142Y-81620857D01*
X143702761Y-81525619D01*
X143750380Y-81478000D01*
X143845619Y-81430380D01*
X144083714Y-81430380D01*
X144226571Y-81478000D01*
X144607523Y-82382761D02*
X144750380Y-82430380D01*
X144988476Y-82430380D01*
X145083714Y-82382761D01*
X145131333Y-82335142D01*
X145178952Y-82239904D01*
X145178952Y-82144666D01*
X145131333Y-82049428D01*
X145083714Y-82001809D01*
X144988476Y-81954190D01*
X144798000Y-81906571D01*
X144702761Y-81858952D01*
X144655142Y-81811333D01*
X144607523Y-81716095D01*
X144607523Y-81620857D01*
X144655142Y-81525619D01*
X144702761Y-81478000D01*
X144798000Y-81430380D01*
X145036095Y-81430380D01*
X145178952Y-81478000D01*
X145464666Y-81430380D02*
X146036095Y-81430380D01*
X145750380Y-82430380D02*
X145750380Y-81430380D01*
X141274190Y-83040380D02*
X141893238Y-83040380D01*
X141559904Y-83421333D01*
X141702761Y-83421333D01*
X141798000Y-83468952D01*
X141845619Y-83516571D01*
X141893238Y-83611809D01*
X141893238Y-83849904D01*
X141845619Y-83945142D01*
X141798000Y-83992761D01*
X141702761Y-84040380D01*
X141417047Y-84040380D01*
X141321809Y-83992761D01*
X141274190Y-83945142D01*
X142369428Y-84040380D02*
X142559904Y-84040380D01*
X142655142Y-83992761D01*
X142702761Y-83945142D01*
X142798000Y-83802285D01*
X142845619Y-83611809D01*
X142845619Y-83230857D01*
X142798000Y-83135619D01*
X142750380Y-83088000D01*
X142655142Y-83040380D01*
X142464666Y-83040380D01*
X142369428Y-83088000D01*
X142321809Y-83135619D01*
X142274190Y-83230857D01*
X142274190Y-83468952D01*
X142321809Y-83564190D01*
X142369428Y-83611809D01*
X142464666Y-83659428D01*
X142655142Y-83659428D01*
X142750380Y-83611809D01*
X142798000Y-83564190D01*
X142845619Y-83468952D01*
X143131333Y-83040380D02*
X143464666Y-84040380D01*
X143798000Y-83040380D01*
X144464666Y-83516571D02*
X144131333Y-83516571D01*
X144131333Y-84040380D02*
X144131333Y-83040380D01*
X144607523Y-83040380D01*
X145131333Y-83468952D02*
X145036095Y-83421333D01*
X144988476Y-83373714D01*
X144940857Y-83278476D01*
X144940857Y-83230857D01*
X144988476Y-83135619D01*
X145036095Y-83088000D01*
X145131333Y-83040380D01*
X145321809Y-83040380D01*
X145417047Y-83088000D01*
X145464666Y-83135619D01*
X145512285Y-83230857D01*
X145512285Y-83278476D01*
X145464666Y-83373714D01*
X145417047Y-83421333D01*
X145321809Y-83468952D01*
X145131333Y-83468952D01*
X145036095Y-83516571D01*
X144988476Y-83564190D01*
X144940857Y-83659428D01*
X144940857Y-83849904D01*
X144988476Y-83945142D01*
X145036095Y-83992761D01*
X145131333Y-84040380D01*
X145321809Y-84040380D01*
X145417047Y-83992761D01*
X145464666Y-83945142D01*
X145512285Y-83849904D01*
X145512285Y-83659428D01*
X145464666Y-83564190D01*
X145417047Y-83516571D01*
X145321809Y-83468952D01*
X146131333Y-83040380D02*
X146226571Y-83040380D01*
X146321809Y-83088000D01*
X146369428Y-83135619D01*
X146417047Y-83230857D01*
X146464666Y-83421333D01*
X146464666Y-83659428D01*
X146417047Y-83849904D01*
X146369428Y-83945142D01*
X146321809Y-83992761D01*
X146226571Y-84040380D01*
X146131333Y-84040380D01*
X146036095Y-83992761D01*
X145988476Y-83945142D01*
X145940857Y-83849904D01*
X145893238Y-83659428D01*
X145893238Y-83421333D01*
X145940857Y-83230857D01*
X145988476Y-83135619D01*
X146036095Y-83088000D01*
X146131333Y-83040380D01*
X147083714Y-83040380D02*
X147178952Y-83040380D01*
X147274190Y-83088000D01*
X147321809Y-83135619D01*
X147369428Y-83230857D01*
X147417047Y-83421333D01*
X147417047Y-83659428D01*
X147369428Y-83849904D01*
X147321809Y-83945142D01*
X147274190Y-83992761D01*
X147178952Y-84040380D01*
X147083714Y-84040380D01*
X146988476Y-83992761D01*
X146940857Y-83945142D01*
X146893238Y-83849904D01*
X146845619Y-83659428D01*
X146845619Y-83421333D01*
X146893238Y-83230857D01*
X146940857Y-83135619D01*
X146988476Y-83088000D01*
X147083714Y-83040380D01*
X147798000Y-83754666D02*
X148274190Y-83754666D01*
X147702761Y-84040380D02*
X148036095Y-83040380D01*
X148369428Y-84040380D01*
X135576142Y-85002761D02*
X135719000Y-85050380D01*
X135957095Y-85050380D01*
X136052333Y-85002761D01*
X136099952Y-84955142D01*
X136147571Y-84859904D01*
X136147571Y-84764666D01*
X136099952Y-84669428D01*
X136052333Y-84621809D01*
X135957095Y-84574190D01*
X135766619Y-84526571D01*
X135671380Y-84478952D01*
X135623761Y-84431333D01*
X135576142Y-84336095D01*
X135576142Y-84240857D01*
X135623761Y-84145619D01*
X135671380Y-84098000D01*
X135766619Y-84050380D01*
X136004714Y-84050380D01*
X136147571Y-84098000D01*
X136528523Y-85002761D02*
X136671380Y-85050380D01*
X136909476Y-85050380D01*
X137004714Y-85002761D01*
X137052333Y-84955142D01*
X137099952Y-84859904D01*
X137099952Y-84764666D01*
X137052333Y-84669428D01*
X137004714Y-84621809D01*
X136909476Y-84574190D01*
X136719000Y-84526571D01*
X136623761Y-84478952D01*
X136576142Y-84431333D01*
X136528523Y-84336095D01*
X136528523Y-84240857D01*
X136576142Y-84145619D01*
X136623761Y-84098000D01*
X136719000Y-84050380D01*
X136957095Y-84050380D01*
X137099952Y-84098000D01*
X137385666Y-84050380D02*
X137957095Y-84050380D01*
X137671380Y-85050380D02*
X137671380Y-84050380D01*
X133195190Y-85660380D02*
X133814238Y-85660380D01*
X133480904Y-86041333D01*
X133623761Y-86041333D01*
X133719000Y-86088952D01*
X133766619Y-86136571D01*
X133814238Y-86231809D01*
X133814238Y-86469904D01*
X133766619Y-86565142D01*
X133719000Y-86612761D01*
X133623761Y-86660380D01*
X133338047Y-86660380D01*
X133242809Y-86612761D01*
X133195190Y-86565142D01*
X134290428Y-86660380D02*
X134480904Y-86660380D01*
X134576142Y-86612761D01*
X134623761Y-86565142D01*
X134719000Y-86422285D01*
X134766619Y-86231809D01*
X134766619Y-85850857D01*
X134719000Y-85755619D01*
X134671380Y-85708000D01*
X134576142Y-85660380D01*
X134385666Y-85660380D01*
X134290428Y-85708000D01*
X134242809Y-85755619D01*
X134195190Y-85850857D01*
X134195190Y-86088952D01*
X134242809Y-86184190D01*
X134290428Y-86231809D01*
X134385666Y-86279428D01*
X134576142Y-86279428D01*
X134671380Y-86231809D01*
X134719000Y-86184190D01*
X134766619Y-86088952D01*
X135052333Y-85660380D02*
X135385666Y-86660380D01*
X135719000Y-85660380D01*
X136385666Y-86136571D02*
X136052333Y-86136571D01*
X136052333Y-86660380D02*
X136052333Y-85660380D01*
X136528523Y-85660380D01*
X136861857Y-85755619D02*
X136909476Y-85708000D01*
X137004714Y-85660380D01*
X137242809Y-85660380D01*
X137338047Y-85708000D01*
X137385666Y-85755619D01*
X137433285Y-85850857D01*
X137433285Y-85946095D01*
X137385666Y-86088952D01*
X136814238Y-86660380D01*
X137433285Y-86660380D01*
X138052333Y-85660380D02*
X138147571Y-85660380D01*
X138242809Y-85708000D01*
X138290428Y-85755619D01*
X138338047Y-85850857D01*
X138385666Y-86041333D01*
X138385666Y-86279428D01*
X138338047Y-86469904D01*
X138290428Y-86565142D01*
X138242809Y-86612761D01*
X138147571Y-86660380D01*
X138052333Y-86660380D01*
X137957095Y-86612761D01*
X137909476Y-86565142D01*
X137861857Y-86469904D01*
X137814238Y-86279428D01*
X137814238Y-86041333D01*
X137861857Y-85850857D01*
X137909476Y-85755619D01*
X137957095Y-85708000D01*
X138052333Y-85660380D01*
X139004714Y-85660380D02*
X139099952Y-85660380D01*
X139195190Y-85708000D01*
X139242809Y-85755619D01*
X139290428Y-85850857D01*
X139338047Y-86041333D01*
X139338047Y-86279428D01*
X139290428Y-86469904D01*
X139242809Y-86565142D01*
X139195190Y-86612761D01*
X139099952Y-86660380D01*
X139004714Y-86660380D01*
X138909476Y-86612761D01*
X138861857Y-86565142D01*
X138814238Y-86469904D01*
X138766619Y-86279428D01*
X138766619Y-86041333D01*
X138814238Y-85850857D01*
X138861857Y-85755619D01*
X138909476Y-85708000D01*
X139004714Y-85660380D01*
X139719000Y-86374666D02*
X140195190Y-86374666D01*
X139623761Y-86660380D02*
X139957095Y-85660380D01*
X140290428Y-86660380D01*
X155267857Y-87153428D02*
X156029761Y-87153428D01*
X157029761Y-87534380D02*
X156458333Y-87534380D01*
X156744047Y-87534380D02*
X156744047Y-86534380D01*
X156648809Y-86677238D01*
X156553571Y-86772476D01*
X156458333Y-86820095D01*
X155183095Y-94292380D02*
X155849761Y-94292380D01*
X155421190Y-95292380D01*
X156659285Y-94625714D02*
X156659285Y-95292380D01*
X156421190Y-94244761D02*
X156183095Y-94959047D01*
X156802142Y-94959047D01*
X157183095Y-95292380D02*
X157183095Y-94292380D01*
X157183095Y-94768571D02*
X157754523Y-94768571D01*
X157754523Y-95292380D02*
X157754523Y-94292380D01*
X158802142Y-95197142D02*
X158754523Y-95244761D01*
X158611666Y-95292380D01*
X158516428Y-95292380D01*
X158373571Y-95244761D01*
X158278333Y-95149523D01*
X158230714Y-95054285D01*
X158183095Y-94863809D01*
X158183095Y-94720952D01*
X158230714Y-94530476D01*
X158278333Y-94435238D01*
X158373571Y-94340000D01*
X158516428Y-94292380D01*
X158611666Y-94292380D01*
X158754523Y-94340000D01*
X158802142Y-94387619D01*
X159183095Y-94387619D02*
X159230714Y-94340000D01*
X159325952Y-94292380D01*
X159564047Y-94292380D01*
X159659285Y-94340000D01*
X159706904Y-94387619D01*
X159754523Y-94482857D01*
X159754523Y-94578095D01*
X159706904Y-94720952D01*
X159135476Y-95292380D01*
X159754523Y-95292380D01*
X160611666Y-94625714D02*
X160611666Y-95292380D01*
X160373571Y-94244761D02*
X160135476Y-94959047D01*
X160754523Y-94959047D01*
X161611666Y-94292380D02*
X161135476Y-94292380D01*
X161087857Y-94768571D01*
X161135476Y-94720952D01*
X161230714Y-94673333D01*
X161468809Y-94673333D01*
X161564047Y-94720952D01*
X161611666Y-94768571D01*
X161659285Y-94863809D01*
X161659285Y-95101904D01*
X161611666Y-95197142D01*
X161564047Y-95244761D01*
X161468809Y-95292380D01*
X161230714Y-95292380D01*
X161135476Y-95244761D01*
X161087857Y-95197142D01*
X125064666Y-98203380D02*
X124493238Y-98203380D01*
X124778952Y-98203380D02*
X124778952Y-97203380D01*
X124683714Y-97346238D01*
X124588476Y-97441476D01*
X124493238Y-97489095D01*
X125493238Y-97822428D02*
X126255142Y-97822428D01*
X119852095Y-92006380D02*
X120518761Y-92006380D01*
X120090190Y-93006380D01*
X121328285Y-92339714D02*
X121328285Y-93006380D01*
X121090190Y-91958761D02*
X120852095Y-92673047D01*
X121471142Y-92673047D01*
X121852095Y-93006380D02*
X121852095Y-92006380D01*
X121852095Y-92482571D02*
X122423523Y-92482571D01*
X122423523Y-93006380D02*
X122423523Y-92006380D01*
X123471142Y-92911142D02*
X123423523Y-92958761D01*
X123280666Y-93006380D01*
X123185428Y-93006380D01*
X123042571Y-92958761D01*
X122947333Y-92863523D01*
X122899714Y-92768285D01*
X122852095Y-92577809D01*
X122852095Y-92434952D01*
X122899714Y-92244476D01*
X122947333Y-92149238D01*
X123042571Y-92054000D01*
X123185428Y-92006380D01*
X123280666Y-92006380D01*
X123423523Y-92054000D01*
X123471142Y-92101619D01*
X123852095Y-92101619D02*
X123899714Y-92054000D01*
X123994952Y-92006380D01*
X124233047Y-92006380D01*
X124328285Y-92054000D01*
X124375904Y-92101619D01*
X124423523Y-92196857D01*
X124423523Y-92292095D01*
X124375904Y-92434952D01*
X123804476Y-93006380D01*
X124423523Y-93006380D01*
X125280666Y-92339714D02*
X125280666Y-93006380D01*
X125042571Y-91958761D02*
X124804476Y-92673047D01*
X125423523Y-92673047D01*
X126280666Y-92006380D02*
X125804476Y-92006380D01*
X125756857Y-92482571D01*
X125804476Y-92434952D01*
X125899714Y-92387333D01*
X126137809Y-92387333D01*
X126233047Y-92434952D01*
X126280666Y-92482571D01*
X126328285Y-92577809D01*
X126328285Y-92815904D01*
X126280666Y-92911142D01*
X126233047Y-92958761D01*
X126137809Y-93006380D01*
X125899714Y-93006380D01*
X125804476Y-92958761D01*
X125756857Y-92911142D01*
X154771333Y-82428380D02*
X154438000Y-81952190D01*
X154199904Y-82428380D02*
X154199904Y-81428380D01*
X154580857Y-81428380D01*
X154676095Y-81476000D01*
X154723714Y-81523619D01*
X154771333Y-81618857D01*
X154771333Y-81761714D01*
X154723714Y-81856952D01*
X154676095Y-81904571D01*
X154580857Y-81952190D01*
X154199904Y-81952190D01*
X155199904Y-82428380D02*
X155199904Y-81428380D01*
X155580857Y-81428380D01*
X155676095Y-81476000D01*
X155723714Y-81523619D01*
X155771333Y-81618857D01*
X155771333Y-81761714D01*
X155723714Y-81856952D01*
X155676095Y-81904571D01*
X155580857Y-81952190D01*
X155199904Y-81952190D01*
X156628476Y-81761714D02*
X156628476Y-82428380D01*
X156390380Y-81380761D02*
X156152285Y-82095047D01*
X156771333Y-82095047D01*
X160633333Y-82200380D02*
X160300000Y-81724190D01*
X160061904Y-82200380D02*
X160061904Y-81200380D01*
X160442857Y-81200380D01*
X160538095Y-81248000D01*
X160585714Y-81295619D01*
X160633333Y-81390857D01*
X160633333Y-81533714D01*
X160585714Y-81628952D01*
X160538095Y-81676571D01*
X160442857Y-81724190D01*
X160061904Y-81724190D01*
X161061904Y-82200380D02*
X161061904Y-81200380D01*
X161442857Y-81200380D01*
X161538095Y-81248000D01*
X161585714Y-81295619D01*
X161633333Y-81390857D01*
X161633333Y-81533714D01*
X161585714Y-81628952D01*
X161538095Y-81676571D01*
X161442857Y-81724190D01*
X161061904Y-81724190D01*
X161966666Y-81200380D02*
X162585714Y-81200380D01*
X162252380Y-81581333D01*
X162395238Y-81581333D01*
X162490476Y-81628952D01*
X162538095Y-81676571D01*
X162585714Y-81771809D01*
X162585714Y-82009904D01*
X162538095Y-82105142D01*
X162490476Y-82152761D01*
X162395238Y-82200380D01*
X162109523Y-82200380D01*
X162014285Y-82152761D01*
X161966666Y-82105142D01*
X123862619Y-82852333D02*
X124338809Y-82519000D01*
X123862619Y-82280904D02*
X124862619Y-82280904D01*
X124862619Y-82661857D01*
X124815000Y-82757095D01*
X124767380Y-82804714D01*
X124672142Y-82852333D01*
X124529285Y-82852333D01*
X124434047Y-82804714D01*
X124386428Y-82757095D01*
X124338809Y-82661857D01*
X124338809Y-82280904D01*
X123862619Y-83280904D02*
X124862619Y-83280904D01*
X124862619Y-83661857D01*
X124815000Y-83757095D01*
X124767380Y-83804714D01*
X124672142Y-83852333D01*
X124529285Y-83852333D01*
X124434047Y-83804714D01*
X124386428Y-83757095D01*
X124338809Y-83661857D01*
X124338809Y-83280904D01*
X123862619Y-84804714D02*
X123862619Y-84233285D01*
X123862619Y-84519000D02*
X124862619Y-84519000D01*
X124719761Y-84423761D01*
X124624523Y-84328523D01*
X124576904Y-84233285D01*
X118101619Y-82700333D02*
X118577809Y-82367000D01*
X118101619Y-82128904D02*
X119101619Y-82128904D01*
X119101619Y-82509857D01*
X119054000Y-82605095D01*
X119006380Y-82652714D01*
X118911142Y-82700333D01*
X118768285Y-82700333D01*
X118673047Y-82652714D01*
X118625428Y-82605095D01*
X118577809Y-82509857D01*
X118577809Y-82128904D01*
X118101619Y-83128904D02*
X119101619Y-83128904D01*
X119101619Y-83509857D01*
X119054000Y-83605095D01*
X119006380Y-83652714D01*
X118911142Y-83700333D01*
X118768285Y-83700333D01*
X118673047Y-83652714D01*
X118625428Y-83605095D01*
X118577809Y-83509857D01*
X118577809Y-83128904D01*
X119006380Y-84081285D02*
X119054000Y-84128904D01*
X119101619Y-84224142D01*
X119101619Y-84462238D01*
X119054000Y-84557476D01*
X119006380Y-84605095D01*
X118911142Y-84652714D01*
X118815904Y-84652714D01*
X118673047Y-84605095D01*
X118101619Y-84033666D01*
X118101619Y-84652714D01*
D11*
%TO.C,C4*%
X141363420Y-94111000D02*
X141644580Y-94111000D01*
X141363420Y-95131000D02*
X141644580Y-95131000D01*
%TO.C,U2*%
X162523300Y-86243600D02*
X154674700Y-86243600D01*
X154674700Y-86243600D02*
X154674700Y-86558560D01*
X154674700Y-99187440D02*
X154674700Y-99502400D01*
X162523300Y-86558560D02*
X162523300Y-86243600D01*
X162523300Y-99502400D02*
X162523300Y-99187440D01*
X154674700Y-99502400D02*
X162523300Y-99502400D01*
D12*
X152414100Y-98397500D02*
X152414100Y-98778500D01*
X152414100Y-98778500D02*
X152668100Y-98778500D01*
X152668100Y-98778500D02*
X152668100Y-98397500D01*
X152668100Y-98397500D02*
X152414100Y-98397500D01*
G36*
X152668100Y-98778500D02*
G01*
X152414100Y-98778500D01*
X152414100Y-98397500D01*
X152668100Y-98397500D01*
X152668100Y-98778500D01*
G37*
X152668100Y-98778500D02*
X152414100Y-98778500D01*
X152414100Y-98397500D01*
X152668100Y-98397500D01*
X152668100Y-98778500D01*
X164783900Y-86967500D02*
X164783900Y-87348500D01*
X164783900Y-87348500D02*
X164529900Y-87348500D01*
X164529900Y-87348500D02*
X164529900Y-86967500D01*
X164529900Y-86967500D02*
X164783900Y-86967500D01*
G36*
X164783900Y-87348500D02*
G01*
X164529900Y-87348500D01*
X164529900Y-86967500D01*
X164783900Y-86967500D01*
X164783900Y-87348500D01*
G37*
X164783900Y-87348500D02*
X164529900Y-87348500D01*
X164529900Y-86967500D01*
X164783900Y-86967500D01*
X164783900Y-87348500D01*
D11*
%TO.C,R5*%
X144473258Y-94130500D02*
X143998742Y-94130500D01*
X144473258Y-95175500D02*
X143998742Y-95175500D01*
%TO.C,C6*%
X131608000Y-107145420D02*
X131608000Y-107426580D01*
X130588000Y-107145420D02*
X130588000Y-107426580D01*
%TO.C,U3*%
X150543600Y-80958000D02*
X131798400Y-80958000D01*
X131798400Y-93404000D02*
X150543600Y-93404000D01*
D12*
X152131100Y-90240501D02*
X152131100Y-90621501D01*
X152131100Y-90621501D02*
X151877100Y-90621501D01*
X151877100Y-90621501D02*
X151877100Y-90240501D01*
X151877100Y-90240501D02*
X152131100Y-90240501D01*
G36*
X152131100Y-90621501D02*
G01*
X151877100Y-90621501D01*
X151877100Y-90240501D01*
X152131100Y-90240501D01*
X152131100Y-90621501D01*
G37*
X152131100Y-90621501D02*
X151877100Y-90621501D01*
X151877100Y-90240501D01*
X152131100Y-90240501D01*
X152131100Y-90621501D01*
X130210900Y-90740500D02*
X130210900Y-91121500D01*
X130210900Y-91121500D02*
X130464900Y-91121500D01*
X130464900Y-91121500D02*
X130464900Y-90740500D01*
X130464900Y-90740500D02*
X130210900Y-90740500D01*
G36*
X130464900Y-91121500D02*
G01*
X130210900Y-91121500D01*
X130210900Y-90740500D01*
X130464900Y-90740500D01*
X130464900Y-91121500D01*
G37*
X130464900Y-91121500D02*
X130210900Y-91121500D01*
X130210900Y-90740500D01*
X130464900Y-90740500D01*
X130464900Y-91121500D01*
X130210900Y-85740500D02*
X130210900Y-86121500D01*
X130210900Y-86121500D02*
X130464900Y-86121500D01*
X130464900Y-86121500D02*
X130464900Y-85740500D01*
X130464900Y-85740500D02*
X130210900Y-85740500D01*
G36*
X130464900Y-86121500D02*
G01*
X130210900Y-86121500D01*
X130210900Y-85740500D01*
X130464900Y-85740500D01*
X130464900Y-86121500D01*
G37*
X130464900Y-86121500D02*
X130210900Y-86121500D01*
X130210900Y-85740500D01*
X130464900Y-85740500D01*
X130464900Y-86121500D01*
X152131100Y-85240498D02*
X152131100Y-85621498D01*
X152131100Y-85621498D02*
X151877100Y-85621498D01*
X151877100Y-85621498D02*
X151877100Y-85240498D01*
X151877100Y-85240498D02*
X152131100Y-85240498D01*
G36*
X152131100Y-85621498D02*
G01*
X151877100Y-85621498D01*
X151877100Y-85240498D01*
X152131100Y-85240498D01*
X152131100Y-85621498D01*
G37*
X152131100Y-85621498D02*
X151877100Y-85621498D01*
X151877100Y-85240498D01*
X152131100Y-85240498D01*
X152131100Y-85621498D01*
D11*
%TO.C,C1*%
X123264000Y-111206580D02*
X123264000Y-110925420D01*
X122244000Y-111206580D02*
X122244000Y-110925420D01*
%TO.C,U4*%
X133984160Y-96920800D02*
X132500800Y-96920800D01*
X132500800Y-96920800D02*
X132500800Y-98404160D01*
X149417200Y-96920800D02*
X147933840Y-96920800D01*
X132500800Y-113837200D02*
X133984160Y-113837200D01*
X147933840Y-113837200D02*
X149417200Y-113837200D01*
X132500800Y-112353840D02*
X132500800Y-113837200D01*
X149417200Y-98404160D02*
X149417200Y-96920800D01*
X149417200Y-113837200D02*
X149417200Y-112353840D01*
D12*
X139498500Y-95942900D02*
X139498500Y-95688900D01*
X139498500Y-95688900D02*
X139879500Y-95688900D01*
X139879500Y-95688900D02*
X139879500Y-95942900D01*
X139879500Y-95942900D02*
X139498500Y-95942900D01*
G36*
X139879500Y-95942900D02*
G01*
X139498500Y-95942900D01*
X139498500Y-95688900D01*
X139879500Y-95688900D01*
X139879500Y-95942900D01*
G37*
X139879500Y-95942900D02*
X139498500Y-95942900D01*
X139498500Y-95688900D01*
X139879500Y-95688900D01*
X139879500Y-95942900D01*
X144578500Y-114815100D02*
X144578500Y-115069100D01*
X144578500Y-115069100D02*
X144959500Y-115069100D01*
X144959500Y-115069100D02*
X144959500Y-114815100D01*
X144959500Y-114815100D02*
X144578500Y-114815100D01*
G36*
X144959500Y-115069100D02*
G01*
X144578500Y-115069100D01*
X144578500Y-114815100D01*
X144959500Y-114815100D01*
X144959500Y-115069100D01*
G37*
X144959500Y-115069100D02*
X144578500Y-115069100D01*
X144578500Y-114815100D01*
X144959500Y-114815100D01*
X144959500Y-115069100D01*
X131268900Y-110268500D02*
X131268900Y-110649500D01*
X131268900Y-110649500D02*
X131522900Y-110649500D01*
X131522900Y-110649500D02*
X131522900Y-110268500D01*
X131522900Y-110268500D02*
X131268900Y-110268500D01*
G36*
X131522900Y-110649500D02*
G01*
X131268900Y-110649500D01*
X131268900Y-110268500D01*
X131522900Y-110268500D01*
X131522900Y-110649500D01*
G37*
X131522900Y-110649500D02*
X131268900Y-110649500D01*
X131268900Y-110268500D01*
X131522900Y-110268500D01*
X131522900Y-110649500D01*
X150649100Y-102648500D02*
X150649100Y-103029500D01*
X150649100Y-103029500D02*
X150395100Y-103029500D01*
X150395100Y-103029500D02*
X150395100Y-102648500D01*
X150395100Y-102648500D02*
X150649100Y-102648500D01*
G36*
X150649100Y-103029500D02*
G01*
X150395100Y-103029500D01*
X150395100Y-102648500D01*
X150649100Y-102648500D01*
X150649100Y-103029500D01*
G37*
X150649100Y-103029500D02*
X150395100Y-103029500D01*
X150395100Y-102648500D01*
X150649100Y-102648500D01*
X150649100Y-103029500D01*
D11*
%TO.C,R3*%
X147252258Y-95215500D02*
X146777742Y-95215500D01*
X147252258Y-94170500D02*
X146777742Y-94170500D01*
%TO.C,C8*%
X125552100Y-109178000D02*
X125552100Y-108475000D01*
X127433100Y-109178000D02*
X127433100Y-107638000D01*
X127393100Y-112797000D02*
X127393100Y-111258000D01*
X130027875Y-111943000D02*
X130027875Y-111443000D01*
X125792100Y-109178000D02*
X125792100Y-108247000D01*
X125552100Y-111961000D02*
X125552100Y-111258000D01*
X127473100Y-109178000D02*
X127473100Y-107638000D01*
X127073100Y-109178000D02*
X127073100Y-107668000D01*
X127193100Y-109178000D02*
X127193100Y-107653000D01*
X126432100Y-109178000D02*
X126432100Y-107853000D01*
X130277875Y-111693000D02*
X129777875Y-111693000D01*
X127153100Y-112779000D02*
X127153100Y-111258000D01*
X126312100Y-112528000D02*
X126312100Y-111258000D01*
X125912100Y-109178000D02*
X125912100Y-108153000D01*
X126352100Y-112547000D02*
X126352100Y-111258000D01*
X126312100Y-109178000D02*
X126312100Y-107908000D01*
X126712100Y-109178000D02*
X126712100Y-107750000D01*
X125712100Y-112119000D02*
X125712100Y-111258000D01*
X126752100Y-109178000D02*
X126752100Y-107738000D01*
X125872100Y-112253000D02*
X125872100Y-111258000D01*
X126072100Y-109178000D02*
X126072100Y-108043000D01*
X126833100Y-112719000D02*
X126833100Y-111258000D01*
X125952100Y-109178000D02*
X125952100Y-108123000D01*
X125992100Y-112340000D02*
X125992100Y-111258000D01*
X125672100Y-112082000D02*
X125672100Y-111258000D01*
X126592100Y-109178000D02*
X126592100Y-107790000D01*
X126032100Y-109178000D02*
X126032100Y-108069000D01*
X127113100Y-109178000D02*
X127113100Y-107662000D01*
X126232100Y-112486000D02*
X126232100Y-111258000D01*
X126432100Y-112583000D02*
X126432100Y-111258000D01*
X127353100Y-109178000D02*
X127353100Y-107640000D01*
X127353100Y-112796000D02*
X127353100Y-111258000D01*
X125432100Y-111823000D02*
X125432100Y-108613000D01*
X126272100Y-112508000D02*
X126272100Y-111258000D01*
X125472100Y-111871000D02*
X125472100Y-111258000D01*
X127113100Y-112774000D02*
X127113100Y-111258000D01*
X125952100Y-112313000D02*
X125952100Y-111258000D01*
X125792100Y-112189000D02*
X125792100Y-111258000D01*
X125832100Y-109178000D02*
X125832100Y-108214000D01*
X125272100Y-111601000D02*
X125272100Y-108835000D01*
X126112100Y-109178000D02*
X126112100Y-108018000D01*
X126993100Y-112754000D02*
X126993100Y-111258000D01*
X126953100Y-109178000D02*
X126953100Y-107690000D01*
X125152100Y-111396000D02*
X125152100Y-109040000D01*
X126272100Y-109178000D02*
X126272100Y-107928000D01*
X127073100Y-112768000D02*
X127073100Y-111258000D01*
X127153100Y-109178000D02*
X127153100Y-107657000D01*
X125512100Y-111917000D02*
X125512100Y-111258000D01*
X125472100Y-109178000D02*
X125472100Y-108565000D01*
X126472100Y-109178000D02*
X126472100Y-107836000D01*
X124912100Y-110736000D02*
X124912100Y-109700000D01*
X125232100Y-111537000D02*
X125232100Y-108899000D01*
X126953100Y-112746000D02*
X126953100Y-111258000D01*
X125592100Y-112003000D02*
X125592100Y-111258000D01*
X126632100Y-109178000D02*
X126632100Y-107776000D01*
X125632100Y-112044000D02*
X125632100Y-111258000D01*
X127273100Y-109178000D02*
X127273100Y-107645000D01*
X126793100Y-112709000D02*
X126793100Y-111258000D01*
X127033100Y-112761000D02*
X127033100Y-111258000D01*
X125712100Y-109178000D02*
X125712100Y-108317000D01*
X126472100Y-112600000D02*
X126472100Y-111258000D01*
X126873100Y-109178000D02*
X126873100Y-107707000D01*
X127313100Y-109178000D02*
X127313100Y-107642000D01*
X126512100Y-112616000D02*
X126512100Y-111258000D01*
X126392100Y-109178000D02*
X126392100Y-107870000D01*
X125752100Y-112155000D02*
X125752100Y-111258000D01*
X126232100Y-109178000D02*
X126232100Y-107950000D01*
X127233100Y-112787000D02*
X127233100Y-111258000D01*
X126833100Y-109178000D02*
X126833100Y-107717000D01*
X127273100Y-112791000D02*
X127273100Y-111258000D01*
X126993100Y-109178000D02*
X126993100Y-107682000D01*
X126752100Y-112698000D02*
X126752100Y-111258000D01*
X125672100Y-109178000D02*
X125672100Y-108354000D01*
X126793100Y-109178000D02*
X126793100Y-107727000D01*
X126672100Y-112673000D02*
X126672100Y-111258000D01*
X126873100Y-112729000D02*
X126873100Y-111258000D01*
X125312100Y-111661000D02*
X125312100Y-108775000D01*
X125872100Y-109178000D02*
X125872100Y-108183000D01*
X125832100Y-112222000D02*
X125832100Y-111258000D01*
X126192100Y-109178000D02*
X126192100Y-107971000D01*
X127313100Y-112794000D02*
X127313100Y-111258000D01*
X126192100Y-112465000D02*
X126192100Y-111258000D01*
X125512100Y-109178000D02*
X125512100Y-108519000D01*
X126392100Y-112566000D02*
X126392100Y-111258000D01*
X127393100Y-109178000D02*
X127393100Y-107639000D01*
X126712100Y-112686000D02*
X126712100Y-111258000D01*
X126592100Y-112646000D02*
X126592100Y-111258000D01*
X125632100Y-109178000D02*
X125632100Y-108392000D01*
X127473100Y-112798000D02*
X127473100Y-111258000D01*
X126112100Y-112418000D02*
X126112100Y-111258000D01*
X126152100Y-112442000D02*
X126152100Y-111258000D01*
X126032100Y-112367000D02*
X126032100Y-111258000D01*
X125072100Y-111229000D02*
X125072100Y-109207000D01*
X126632100Y-112660000D02*
X126632100Y-111258000D01*
X126913100Y-112738000D02*
X126913100Y-111258000D01*
X125912100Y-112283000D02*
X125912100Y-111258000D01*
X127433100Y-112798000D02*
X127433100Y-111258000D01*
X124992100Y-111023000D02*
X124992100Y-109413000D01*
X126672100Y-109178000D02*
X126672100Y-107763000D01*
X126552100Y-112632000D02*
X126552100Y-111258000D01*
X124952100Y-110895000D02*
X124952100Y-109541000D01*
X127233100Y-109178000D02*
X127233100Y-107649000D01*
X124872100Y-110502000D02*
X124872100Y-109934000D01*
X127033100Y-109178000D02*
X127033100Y-107675000D01*
X127193100Y-112783000D02*
X127193100Y-111258000D01*
X125192100Y-111469000D02*
X125192100Y-108967000D01*
X125752100Y-109178000D02*
X125752100Y-108281000D01*
X125592100Y-109178000D02*
X125592100Y-108433000D01*
X125112100Y-111316000D02*
X125112100Y-109120000D01*
X126352100Y-109178000D02*
X126352100Y-107889000D01*
X125392100Y-111772000D02*
X125392100Y-108664000D01*
X126512100Y-109178000D02*
X126512100Y-107820000D01*
X125352100Y-111718000D02*
X125352100Y-108718000D01*
X125992100Y-109178000D02*
X125992100Y-108096000D01*
X126552100Y-109178000D02*
X126552100Y-107804000D01*
X125032100Y-111133000D02*
X125032100Y-109303000D01*
X126913100Y-109178000D02*
X126913100Y-107698000D01*
X126072100Y-112393000D02*
X126072100Y-111258000D01*
X126152100Y-109178000D02*
X126152100Y-107994000D01*
X130093100Y-110218000D02*
G75*
G03*
X130093100Y-110218000I-2620000J0D01*
G01*
%TO.C,C3*%
X153507580Y-99826000D02*
X153226420Y-99826000D01*
X153507580Y-100846000D02*
X153226420Y-100846000D01*
%TO.C,C5*%
X118650420Y-107558000D02*
X118931580Y-107558000D01*
X118650420Y-108578000D02*
X118931580Y-108578000D01*
%TO.C,R6*%
X153600258Y-102361500D02*
X153125742Y-102361500D01*
X153600258Y-101316500D02*
X153125742Y-101316500D01*
%TO.C,R1*%
X161794500Y-110537742D02*
X161794500Y-111012258D01*
X160749500Y-110537742D02*
X160749500Y-111012258D01*
%TO.C,U1*%
X127101300Y-85482600D02*
X119252700Y-85482600D01*
X119252700Y-85482600D02*
X119252700Y-85797560D01*
X119252700Y-98741400D02*
X127101300Y-98741400D01*
X127101300Y-85797560D02*
X127101300Y-85482600D01*
X127101300Y-98741400D02*
X127101300Y-98426440D01*
X119252700Y-98426440D02*
X119252700Y-98741400D01*
D12*
X129361900Y-86587500D02*
X129361900Y-86206500D01*
X129361900Y-86206500D02*
X129107900Y-86206500D01*
X129107900Y-86206500D02*
X129107900Y-86587500D01*
X129107900Y-86587500D02*
X129361900Y-86587500D01*
G36*
X129361900Y-86587500D02*
G01*
X129107900Y-86587500D01*
X129107900Y-86206500D01*
X129361900Y-86206500D01*
X129361900Y-86587500D01*
G37*
X129361900Y-86587500D02*
X129107900Y-86587500D01*
X129107900Y-86206500D01*
X129361900Y-86206500D01*
X129361900Y-86587500D01*
X116992100Y-98017500D02*
X116992100Y-97636500D01*
X116992100Y-97636500D02*
X117246100Y-97636500D01*
X117246100Y-97636500D02*
X117246100Y-98017500D01*
X117246100Y-98017500D02*
X116992100Y-98017500D01*
G36*
X117246100Y-98017500D02*
G01*
X116992100Y-98017500D01*
X116992100Y-97636500D01*
X117246100Y-97636500D01*
X117246100Y-98017500D01*
G37*
X117246100Y-98017500D02*
X116992100Y-98017500D01*
X116992100Y-97636500D01*
X117246100Y-97636500D01*
X117246100Y-98017500D01*
D11*
%TO.C,C9*%
X164906000Y-82304580D02*
X164906000Y-82023420D01*
X163886000Y-82304580D02*
X163886000Y-82023420D01*
%TO.C,R2*%
X123188500Y-108332742D02*
X123188500Y-108807258D01*
X124233500Y-108332742D02*
X124233500Y-108807258D01*
%TO.C,C7*%
X153010000Y-111063580D02*
X153010000Y-110782420D01*
X151990000Y-111063580D02*
X151990000Y-110782420D01*
%TO.C,R4*%
X138950258Y-93760500D02*
X138475742Y-93760500D01*
X138950258Y-94805500D02*
X138475742Y-94805500D01*
%TO.C,C2*%
X127308580Y-98776000D02*
X127027420Y-98776000D01*
X127308580Y-99796000D02*
X127027420Y-99796000D01*
%TD*%
M02*
