%TF.GenerationSoftware,KiCad,Pcbnew,(6.0.2)*%
%TF.CreationDate,2022-08-06T21:19:04-05:00*%
%TF.ProjectId,CP RSF,43502052-5346-42e6-9b69-6361645f7063,rev?*%
%TF.SameCoordinates,Original*%
%TF.FileFunction,Copper,L1,Top*%
%TF.FilePolarity,Positive*%
%FSLAX46Y46*%
G04 Gerber Fmt 4.6, Leading zero omitted, Abs format (unit mm)*
G04 Created by KiCad (PCBNEW (6.0.2)) date 2022-08-06 21:19:04*
%MOMM*%
%LPD*%
G01*
G04 APERTURE LIST*
G04 Aperture macros list*
%AMRoundRect*
0 Rectangle with rounded corners*
0 $1 Rounding radius*
0 $2 $3 $4 $5 $6 $7 $8 $9 X,Y pos of 4 corners*
0 Add a 4 corners polygon primitive as box body*
4,1,4,$2,$3,$4,$5,$6,$7,$8,$9,$2,$3,0*
0 Add four circle primitives for the rounded corners*
1,1,$1+$1,$2,$3*
1,1,$1+$1,$4,$5*
1,1,$1+$1,$6,$7*
1,1,$1+$1,$8,$9*
0 Add four rect primitives between the rounded corners*
20,1,$1+$1,$2,$3,$4,$5,0*
20,1,$1+$1,$4,$5,$6,$7,0*
20,1,$1+$1,$6,$7,$8,$9,0*
20,1,$1+$1,$8,$9,$2,$3,0*%
G04 Aperture macros list end*
%TA.AperFunction,ComponentPad*%
%ADD10C,2.300000*%
%TD*%
%TA.AperFunction,SMDPad,CuDef*%
%ADD11RoundRect,0.225000X-0.225000X-0.250000X0.225000X-0.250000X0.225000X0.250000X-0.225000X0.250000X0*%
%TD*%
%TA.AperFunction,ComponentPad*%
%ADD12C,4.400000*%
%TD*%
%TA.AperFunction,SMDPad,CuDef*%
%ADD13R,1.803400X0.533400*%
%TD*%
%TA.AperFunction,SMDPad,CuDef*%
%ADD14R,0.939800X0.508000*%
%TD*%
%TA.AperFunction,SMDPad,CuDef*%
%ADD15RoundRect,0.200000X0.200000X0.275000X-0.200000X0.275000X-0.200000X-0.275000X0.200000X-0.275000X0*%
%TD*%
%TA.AperFunction,SMDPad,CuDef*%
%ADD16RoundRect,0.225000X-0.250000X0.225000X-0.250000X-0.225000X0.250000X-0.225000X0.250000X0.225000X0*%
%TD*%
%TA.AperFunction,SMDPad,CuDef*%
%ADD17R,1.206500X0.279400*%
%TD*%
%TA.AperFunction,SMDPad,CuDef*%
%ADD18RoundRect,0.225000X0.250000X-0.225000X0.250000X0.225000X-0.250000X0.225000X-0.250000X-0.225000X0*%
%TD*%
%TA.AperFunction,ComponentPad*%
%ADD19C,2.500000*%
%TD*%
%TA.AperFunction,SMDPad,CuDef*%
%ADD20R,0.584200X2.006600*%
%TD*%
%TA.AperFunction,SMDPad,CuDef*%
%ADD21R,2.006600X0.584200*%
%TD*%
%TA.AperFunction,ComponentPad*%
%ADD22R,1.600000X1.600000*%
%TD*%
%TA.AperFunction,ComponentPad*%
%ADD23C,1.600000*%
%TD*%
%TA.AperFunction,SMDPad,CuDef*%
%ADD24RoundRect,0.225000X0.225000X0.250000X-0.225000X0.250000X-0.225000X-0.250000X0.225000X-0.250000X0*%
%TD*%
%TA.AperFunction,SMDPad,CuDef*%
%ADD25RoundRect,0.200000X-0.275000X0.200000X-0.275000X-0.200000X0.275000X-0.200000X0.275000X0.200000X0*%
%TD*%
%TA.AperFunction,SMDPad,CuDef*%
%ADD26R,0.508000X0.939800*%
%TD*%
%TA.AperFunction,ComponentPad*%
%ADD27C,1.860000*%
%TD*%
%TA.AperFunction,SMDPad,CuDef*%
%ADD28R,1.430000X5.760000*%
%TD*%
%TA.AperFunction,SMDPad,CuDef*%
%ADD29R,1.030000X5.760000*%
%TD*%
%TA.AperFunction,ViaPad*%
%ADD30C,0.500000*%
%TD*%
%TA.AperFunction,ViaPad*%
%ADD31C,0.800000*%
%TD*%
%TA.AperFunction,Conductor*%
%ADD32C,0.200000*%
%TD*%
%TA.AperFunction,Conductor*%
%ADD33C,0.250000*%
%TD*%
%TA.AperFunction,Conductor*%
%ADD34C,0.500000*%
%TD*%
%TA.AperFunction,Conductor*%
%ADD35C,0.279200*%
%TD*%
G04 APERTURE END LIST*
D10*
%TO.P,S1,1,A*%
%TO.N,unconnected-(S1-Pad1)*%
X169552000Y-84772000D03*
%TO.P,S1,2,B*%
%TO.N,/Switch*%
X169540000Y-81722000D03*
%TO.P,S1,3,C*%
%TO.N,/GND*%
X169568000Y-78698000D03*
%TO.P,S1,4,Case_GND*%
X170027000Y-88067000D03*
%TO.P,S1,5,Case_GND*%
%TO.N,unconnected-(S1-Pad5)*%
X170038000Y-75501000D03*
%TD*%
D11*
%TO.P,C4,1*%
%TO.N,/VCC*%
X140729000Y-94621000D03*
%TO.P,C4,2*%
%TO.N,/GND*%
X142279000Y-94621000D03*
%TD*%
D12*
%TO.P,Hole3,1*%
%TO.N,N/C*%
X161043000Y-102433000D03*
%TD*%
D13*
%TO.P,U2,1,DIR*%
%TO.N,/VCC*%
X153823800Y-87158000D03*
%TO.P,U2,2,A0*%
%TO.N,/AD8*%
X153823800Y-88428000D03*
%TO.P,U2,3,A1*%
%TO.N,/AD9*%
X153823800Y-89698000D03*
%TO.P,U2,4,A2*%
%TO.N,/AD10*%
X153823800Y-90968000D03*
%TO.P,U2,5,A3*%
%TO.N,/AD11*%
X153823800Y-92238000D03*
%TO.P,U2,6,A4*%
%TO.N,/AD12*%
X153823800Y-93508000D03*
%TO.P,U2,7,A5*%
%TO.N,/AD13*%
X153823800Y-94778000D03*
%TO.P,U2,8,A6*%
%TO.N,/AD14*%
X153823800Y-96048000D03*
%TO.P,U2,9,A7*%
%TO.N,/AD15*%
X153823800Y-97318000D03*
%TO.P,U2,10,GND*%
%TO.N,/GND*%
X153823800Y-98588000D03*
%TO.P,U2,11,B7*%
%TO.N,/AD15.B7*%
X163374200Y-98588000D03*
%TO.P,U2,12,B6*%
%TO.N,/AD14.B6*%
X163374200Y-97318000D03*
%TO.P,U2,13,B5*%
%TO.N,/AD13.B5*%
X163374200Y-96048000D03*
%TO.P,U2,14,B4*%
%TO.N,/AD12.B4*%
X163374200Y-94778000D03*
%TO.P,U2,15,B3*%
%TO.N,/AD11.B3*%
X163374200Y-93508000D03*
%TO.P,U2,16,B2*%
%TO.N,/AD10.B2*%
X163374200Y-92238000D03*
%TO.P,U2,17,B1*%
%TO.N,/AD9.B1*%
X163374200Y-90968000D03*
%TO.P,U2,18,B0*%
%TO.N,/AD8.B0*%
X163374200Y-89698000D03*
%TO.P,U2,19,OE*%
%TO.N,/245.OE*%
X163374200Y-88428000D03*
%TO.P,U2,20,VCC*%
%TO.N,/VCC*%
X163374200Y-87158000D03*
%TD*%
D14*
%TO.P,RP1,1,1*%
%TO.N,/AD3.B3*%
X125842000Y-82216401D03*
%TO.P,RP1,2,2*%
%TO.N,/AD2.B2*%
X125842000Y-83016002D03*
%TO.P,RP1,3,3*%
%TO.N,/AD1.B1*%
X125842000Y-83816000D03*
%TO.P,RP1,4,4*%
%TO.N,/AD0.B0*%
X125842000Y-84603201D03*
%TO.P,RP1,5,5*%
%TO.N,/SST.A0*%
X127569200Y-84603201D03*
%TO.P,RP1,6,6*%
%TO.N,/SST.A1*%
X127569200Y-83816000D03*
%TO.P,RP1,7,7*%
%TO.N,/SST.A2*%
X127569200Y-83016002D03*
%TO.P,RP1,8,8*%
%TO.N,/SST.A3*%
X127569200Y-82216401D03*
%TD*%
D15*
%TO.P,R5,1*%
%TO.N,/245.OE.Altera*%
X145061000Y-94653000D03*
%TO.P,R5,2*%
%TO.N,/245.OE*%
X143411000Y-94653000D03*
%TD*%
D16*
%TO.P,C6,1*%
%TO.N,/VCC*%
X131098000Y-106511000D03*
%TO.P,C6,2*%
%TO.N,/GND*%
X131098000Y-108061000D03*
%TD*%
D17*
%TO.P,U3,1,A15*%
%TO.N,/SST.A15*%
X131322150Y-81431001D03*
%TO.P,U3,2,A14*%
%TO.N,/SST.A14*%
X131322150Y-81931000D03*
%TO.P,U3,3,A13*%
%TO.N,/SST.A13*%
X131322150Y-82430999D03*
%TO.P,U3,4,A12*%
%TO.N,/SST.A12*%
X131322150Y-82931001D03*
%TO.P,U3,5,A11*%
%TO.N,/SST.A11*%
X131322150Y-83431000D03*
%TO.P,U3,6,A10*%
%TO.N,/SST.A10*%
X131322150Y-83930999D03*
%TO.P,U3,7,A9*%
%TO.N,/SST.A9*%
X131322150Y-84431000D03*
%TO.P,U3,8,A8*%
%TO.N,/SST.A8*%
X131322150Y-84930999D03*
%TO.P,U3,9,NC*%
%TO.N,/GND*%
X131322150Y-85431001D03*
%TO.P,U3,10,NC*%
X131322150Y-85931000D03*
%TO.P,U3,11,\u002AWE*%
%TO.N,/Write*%
X131322150Y-86430999D03*
%TO.P,U3,12,NC*%
%TO.N,/GND*%
X131322150Y-86931000D03*
%TO.P,U3,13,NC*%
X131322150Y-87431000D03*
%TO.P,U3,14,NC*%
X131322150Y-87931001D03*
%TO.P,U3,15,NC*%
X131322150Y-88431000D03*
%TO.P,U3,16,NC*%
X131322150Y-88930999D03*
%TO.P,U3,17,A17*%
X131322150Y-89431001D03*
%TO.P,U3,18,A7*%
%TO.N,/SST.A7*%
X131322150Y-89931000D03*
%TO.P,U3,19,A6*%
%TO.N,/SST.A6*%
X131322150Y-90431001D03*
%TO.P,U3,20,A5*%
%TO.N,/SST.A5*%
X131322150Y-90931000D03*
%TO.P,U3,21,A4*%
%TO.N,/SST.A4*%
X131322150Y-91430999D03*
%TO.P,U3,22,A3*%
%TO.N,/SST.A3*%
X131322150Y-91931001D03*
%TO.P,U3,23,A2*%
%TO.N,/SST.A2*%
X131322150Y-92431000D03*
%TO.P,U3,24,A1*%
%TO.N,/SST.A1*%
X131322150Y-92931001D03*
%TO.P,U3,25,A0*%
%TO.N,/SST.A0*%
X151019850Y-92930999D03*
%TO.P,U3,26,\u002ACE*%
%TO.N,/SST.CE*%
X151019850Y-92431000D03*
%TO.P,U3,27,VSS*%
%TO.N,/GND*%
X151019850Y-91931001D03*
%TO.P,U3,28,\u002AOE*%
%TO.N,/Read_Bottom*%
X151019850Y-91430999D03*
%TO.P,U3,29,DQ0*%
%TO.N,/AD0*%
X151019850Y-90931000D03*
%TO.P,U3,30,DQ8*%
%TO.N,/AD8*%
X151019850Y-90430999D03*
%TO.P,U3,31,DQ1*%
%TO.N,/AD1*%
X151019850Y-89931000D03*
%TO.P,U3,32,DQ9*%
%TO.N,/AD9*%
X151019850Y-89431001D03*
%TO.P,U3,33,DQ2*%
%TO.N,/AD2*%
X151019850Y-88930999D03*
%TO.P,U3,34,DQ10*%
%TO.N,/AD10*%
X151019850Y-88431000D03*
%TO.P,U3,35,DQ3*%
%TO.N,/AD3*%
X151019850Y-87930998D03*
%TO.P,U3,36,DQ11*%
%TO.N,/AD11*%
X151019850Y-87431000D03*
%TO.P,U3,37,VDD*%
%TO.N,/VCC*%
X151019850Y-86931000D03*
%TO.P,U3,38,DQ4*%
%TO.N,/AD4*%
X151019850Y-86430999D03*
%TO.P,U3,39,DQ12*%
%TO.N,/AD12*%
X151019850Y-85931000D03*
%TO.P,U3,40,DQ5*%
%TO.N,/AD5*%
X151019850Y-85431001D03*
%TO.P,U3,41,DQ13*%
%TO.N,/AD13*%
X151019850Y-84930999D03*
%TO.P,U3,42,DQ6*%
%TO.N,/AD6*%
X151019850Y-84431000D03*
%TO.P,U3,43,DQ14*%
%TO.N,/AD14*%
X151019850Y-83930999D03*
%TO.P,U3,44,DQ7*%
%TO.N,/AD7*%
X151019850Y-83431000D03*
%TO.P,U3,45,DQ15*%
%TO.N,/AD15*%
X151019850Y-82931001D03*
%TO.P,U3,46,VSS*%
%TO.N,/GND*%
X151019850Y-82430999D03*
%TO.P,U3,47,NC*%
X151019850Y-81931000D03*
%TO.P,U3,48,A16*%
X151019850Y-81430999D03*
%TD*%
D18*
%TO.P,C1,1*%
%TO.N,/VCC*%
X122754000Y-111841000D03*
%TO.P,C1,2*%
%TO.N,/Const_Low*%
X122754000Y-110291000D03*
%TD*%
D19*
%TO.P,Hole1,1*%
%TO.N,N/C*%
X115831000Y-85035000D03*
%TD*%
D20*
%TO.P,U4,1,INPUT/GCLRN*%
%TO.N,/Const_Low*%
X140959000Y-113557800D03*
%TO.P,U4,2,INPUT/OE2/GCLK2*%
%TO.N,/A17*%
X142229000Y-113557800D03*
%TO.P,U4,3,VCCINT3-3VONLY*%
%TO.N,/VCC*%
X143499000Y-113557800D03*
%TO.P,U4,4,IO_A_16*%
%TO.N,/Write*%
X144769000Y-113557800D03*
%TO.P,U4,5,IO_A_14*%
%TO.N,/A22*%
X146039000Y-113557800D03*
%TO.P,U4,6,IO_A_11*%
%TO.N,/A23*%
X147309000Y-113557800D03*
D21*
%TO.P,U4,7,TDI*%
%TO.N,/AD0.B0*%
X149137800Y-111729000D03*
%TO.P,U4,8,IO_A_5*%
%TO.N,/Read_Bottom*%
X149137800Y-110459000D03*
%TO.P,U4,9,IO_A_4*%
%TO.N,/AD1.B1*%
X149137800Y-109189000D03*
%TO.P,U4,10,GNDIO*%
%TO.N,/GND*%
X149137800Y-107919000D03*
%TO.P,U4,11,IO_A_3*%
%TO.N,/A20*%
X149137800Y-106649000D03*
%TO.P,U4,12,IO_A_1*%
%TO.N,/CS.ROM*%
X149137800Y-105379000D03*
%TO.P,U4,13,TMS*%
%TO.N,/AD11.B3*%
X149137800Y-104109000D03*
%TO.P,U4,14,IO_B_30*%
%TO.N,/AD14.B6*%
X149137800Y-102839000D03*
%TO.P,U4,15,VCCIO2-5VOR3-3V*%
%TO.N,/VCC*%
X149137800Y-101569000D03*
%TO.P,U4,16,IO_B_25*%
%TO.N,/Switch*%
X149137800Y-100299000D03*
%TO.P,U4,17,GNDIO*%
%TO.N,/GND*%
X149137800Y-99029000D03*
D20*
%TO.P,U4,18,IO_B_21*%
%TO.N,/AD13.B5*%
X147309000Y-97200200D03*
%TO.P,U4,19,IO_B_20*%
%TO.N,/AD12.B4*%
X146039000Y-97200200D03*
%TO.P,U4,20,IO_B_19*%
%TO.N,/SST.CE.Altera*%
X144769000Y-97200200D03*
%TO.P,U4,21,IO_B_17*%
%TO.N,/245.OE.Altera*%
X143499000Y-97200200D03*
%TO.P,U4,22,GNDINT*%
%TO.N,/GND*%
X142229000Y-97200200D03*
%TO.P,U4,23,VCCINT3-3VONLY_2*%
%TO.N,/VCC*%
X140959000Y-97200200D03*
%TO.P,U4,24,IO_C_33*%
%TO.N,/Rd.Top.Altera*%
X139689000Y-97200200D03*
%TO.P,U4,25,IO_C_35*%
%TO.N,/AD15.B7*%
X138419000Y-97200200D03*
%TO.P,U4,26,IO_C_36*%
%TO.N,/A19*%
X137149000Y-97200200D03*
%TO.P,U4,27,IO_C_37*%
%TO.N,/AD9.B1*%
X135879000Y-97200200D03*
%TO.P,U4,28,IO_C_40*%
%TO.N,/AD10.B2*%
X134609000Y-97200200D03*
D21*
%TO.P,U4,29,IO_C_41*%
%TO.N,unconnected-(U4-Pad29)*%
X132780200Y-99029000D03*
%TO.P,U4,30,GNDIO*%
%TO.N,/GND*%
X132780200Y-100299000D03*
%TO.P,U4,31,IO_C_46*%
%TO.N,/A21*%
X132780200Y-101569000D03*
%TO.P,U4,32,TCK*%
%TO.N,/AD8.B0*%
X132780200Y-102839000D03*
%TO.P,U4,33,IO_D_49*%
%TO.N,/AD2.B2*%
X132780200Y-104109000D03*
%TO.P,U4,34,IO_D_51*%
%TO.N,/AD6.B6*%
X132780200Y-105379000D03*
%TO.P,U4,35,VCCIO2-5VOR3-3V_2*%
%TO.N,/VCC*%
X132780200Y-106649000D03*
%TO.P,U4,36,GNDIO*%
%TO.N,/GND*%
X132780200Y-107919000D03*
%TO.P,U4,37,IO_D_53*%
%TO.N,/AD5.B5*%
X132780200Y-109189000D03*
%TO.P,U4,38,TDO*%
%TO.N,/AD4.B4*%
X132780200Y-110459000D03*
%TO.P,U4,39,IO_D_57*%
%TO.N,/AD7.B7*%
X132780200Y-111729000D03*
D20*
%TO.P,U4,40,IO_D_62*%
%TO.N,unconnected-(U4-Pad40)*%
X134609000Y-113557800D03*
%TO.P,U4,41,IO_D_64*%
%TO.N,/AD3.B3*%
X135879000Y-113557800D03*
%TO.P,U4,42,GNDINT*%
%TO.N,/GND*%
X137149000Y-113557800D03*
%TO.P,U4,43,INPUT/GCLK1*%
%TO.N,/A16*%
X138419000Y-113557800D03*
%TO.P,U4,44,INPUT/OE1*%
%TO.N,/A18*%
X139689000Y-113557800D03*
%TD*%
D15*
%TO.P,R3,1*%
%TO.N,/SST.CE*%
X147840000Y-94693000D03*
%TO.P,R3,2*%
%TO.N,/SST.CE.Altera*%
X146190000Y-94693000D03*
%TD*%
D22*
%TO.P,C8,1*%
%TO.N,/VCC*%
X128473100Y-110218000D03*
D23*
%TO.P,C8,2*%
%TO.N,/GND*%
X126473100Y-110218000D03*
%TD*%
D19*
%TO.P,Hole2,1*%
%TO.N,N/C*%
X166073000Y-85049000D03*
%TD*%
D14*
%TO.P,RP4,1,1*%
%TO.N,/AD15.B7*%
X156838000Y-85351400D03*
%TO.P,RP4,2,2*%
%TO.N,/AD14.B6*%
X156838000Y-84551799D03*
%TO.P,RP4,3,3*%
%TO.N,/AD13.B5*%
X156838000Y-83751801D03*
%TO.P,RP4,4,4*%
%TO.N,/AD12.B4*%
X156838000Y-82964600D03*
%TO.P,RP4,5,5*%
%TO.N,/SST.A12*%
X155110800Y-82964600D03*
%TO.P,RP4,6,6*%
%TO.N,/SST.A13*%
X155110800Y-83751801D03*
%TO.P,RP4,7,7*%
%TO.N,/SST.A14*%
X155110800Y-84551799D03*
%TO.P,RP4,8,8*%
%TO.N,/SST.A15*%
X155110800Y-85351400D03*
%TD*%
D24*
%TO.P,C3,1*%
%TO.N,/VCC*%
X154142000Y-100336000D03*
%TO.P,C3,2*%
%TO.N,/GND*%
X152592000Y-100336000D03*
%TD*%
D11*
%TO.P,C5,1*%
%TO.N,/VCC*%
X118016000Y-108068000D03*
%TO.P,C5,2*%
%TO.N,/GND*%
X119566000Y-108068000D03*
%TD*%
D15*
%TO.P,R6,1*%
%TO.N,/VCC*%
X154188000Y-101839000D03*
%TO.P,R6,2*%
%TO.N,/Switch*%
X152538000Y-101839000D03*
%TD*%
D25*
%TO.P,R1,1*%
%TO.N,/VCC*%
X161272000Y-109950000D03*
%TO.P,R1,2*%
%TO.N,/REQ*%
X161272000Y-111600000D03*
%TD*%
D13*
%TO.P,U1,1,DIR*%
%TO.N,/VCC*%
X127952200Y-97827000D03*
%TO.P,U1,2,A0*%
%TO.N,/AD0*%
X127952200Y-96557000D03*
%TO.P,U1,3,A1*%
%TO.N,/AD1*%
X127952200Y-95287000D03*
%TO.P,U1,4,A2*%
%TO.N,/AD2*%
X127952200Y-94017000D03*
%TO.P,U1,5,A3*%
%TO.N,/AD3*%
X127952200Y-92747000D03*
%TO.P,U1,6,A4*%
%TO.N,/AD4*%
X127952200Y-91477000D03*
%TO.P,U1,7,A5*%
%TO.N,/AD5*%
X127952200Y-90207000D03*
%TO.P,U1,8,A6*%
%TO.N,/AD6*%
X127952200Y-88937000D03*
%TO.P,U1,9,A7*%
%TO.N,/AD7*%
X127952200Y-87667000D03*
%TO.P,U1,10,GND*%
%TO.N,/GND*%
X127952200Y-86397000D03*
%TO.P,U1,11,B7*%
%TO.N,/AD7.B7*%
X118401800Y-86397000D03*
%TO.P,U1,12,B6*%
%TO.N,/AD6.B6*%
X118401800Y-87667000D03*
%TO.P,U1,13,B5*%
%TO.N,/AD5.B5*%
X118401800Y-88937000D03*
%TO.P,U1,14,B4*%
%TO.N,/AD4.B4*%
X118401800Y-90207000D03*
%TO.P,U1,15,B3*%
%TO.N,/AD3.B3*%
X118401800Y-91477000D03*
%TO.P,U1,16,B2*%
%TO.N,/AD2.B2*%
X118401800Y-92747000D03*
%TO.P,U1,17,B1*%
%TO.N,/AD1.B1*%
X118401800Y-94017000D03*
%TO.P,U1,18,B0*%
%TO.N,/AD0.B0*%
X118401800Y-95287000D03*
%TO.P,U1,19,OE*%
%TO.N,/245.OE*%
X118401800Y-96557000D03*
%TO.P,U1,20,VCC*%
%TO.N,/VCC*%
X118401800Y-97827000D03*
%TD*%
D18*
%TO.P,C9,1*%
%TO.N,/VCC*%
X164396000Y-82939000D03*
%TO.P,C9,2*%
%TO.N,/GND*%
X164396000Y-81389000D03*
%TD*%
D26*
%TO.P,RP2,1,1*%
%TO.N,/AD7.B7*%
X120434400Y-84228000D03*
%TO.P,RP2,2,2*%
%TO.N,/AD6.B6*%
X121234001Y-84228000D03*
%TO.P,RP2,3,3*%
%TO.N,/AD5.B5*%
X122033999Y-84228000D03*
%TO.P,RP2,4,4*%
%TO.N,/AD4.B4*%
X122821200Y-84228000D03*
%TO.P,RP2,5,5*%
%TO.N,/SST.A4*%
X122821200Y-82500800D03*
%TO.P,RP2,6,6*%
%TO.N,/SST.A5*%
X122033999Y-82500800D03*
%TO.P,RP2,7,7*%
%TO.N,/SST.A6*%
X121234001Y-82500800D03*
%TO.P,RP2,8,8*%
%TO.N,/SST.A7*%
X120434400Y-82500800D03*
%TD*%
D27*
%TO.P,J2,1,+3.3V/+5V*%
%TO.N,/VCC*%
X164245000Y-77303000D03*
%TO.P,J2,2,Clock*%
%TO.N,/Clock*%
X162698500Y-78811000D03*
%TO.P,J2,3,/WR*%
%TO.N,/Write*%
X161230100Y-77302900D03*
%TO.P,J2,4,/RD*%
%TO.N,/Read_Top*%
X159682000Y-78809000D03*
%TO.P,J2,5,/CS.ROM*%
%TO.N,/CS.ROM*%
X158212000Y-77303000D03*
%TO.P,J2,6,AD0*%
%TO.N,/AD0*%
X156666000Y-78811000D03*
%TO.P,J2,7,AD1*%
%TO.N,/AD1*%
X155197600Y-77302900D03*
%TO.P,J2,8,AD2*%
%TO.N,/AD2*%
X153648000Y-78810000D03*
%TO.P,J2,9,AD3*%
%TO.N,/AD3*%
X152222000Y-77304000D03*
%TO.P,J2,10,AD4*%
%TO.N,/AD4*%
X150673200Y-78811000D03*
%TO.P,J2,11,AD5*%
%TO.N,/AD5*%
X149165100Y-77302900D03*
%TO.P,J2,12,AD6*%
%TO.N,/AD6*%
X147613000Y-78811000D03*
%TO.P,J2,13,AD7*%
%TO.N,/AD7*%
X146148800Y-77302900D03*
%TO.P,J2,14,AD8*%
%TO.N,/AD8*%
X144599000Y-78811000D03*
%TO.P,J2,15,AD9*%
%TO.N,/AD9*%
X143213000Y-77302000D03*
%TO.P,J2,16,AD10*%
%TO.N,/AD10*%
X141662000Y-78812000D03*
%TO.P,J2,17,AD11*%
%TO.N,/AD11*%
X140192000Y-77303000D03*
%TO.P,J2,18,AD12*%
%TO.N,/AD12*%
X138647000Y-78810000D03*
%TO.P,J2,19,AD13*%
%TO.N,/AD13*%
X137178000Y-77304000D03*
%TO.P,J2,20,AD14*%
%TO.N,/AD14*%
X135630000Y-78812000D03*
%TO.P,J2,21,AD15*%
%TO.N,/AD15*%
X134162000Y-77302000D03*
%TO.P,J2,22,A16*%
%TO.N,/A16*%
X132617000Y-78810000D03*
%TO.P,J2,23,A17*%
%TO.N,/A17*%
X131184000Y-77301000D03*
%TO.P,J2,24,A18*%
%TO.N,/A18*%
X129640000Y-78811000D03*
%TO.P,J2,25,A19*%
%TO.N,/A19*%
X128249000Y-77306000D03*
%TO.P,J2,26,A20*%
%TO.N,/A20*%
X126698000Y-78809000D03*
%TO.P,J2,27,A21*%
%TO.N,/A21*%
X125153000Y-77304000D03*
%TO.P,J2,28,A22*%
%TO.N,/A22*%
X123646000Y-78811000D03*
%TO.P,J2,29,A23*%
%TO.N,/A23*%
X122139000Y-77304000D03*
%TO.P,J2,30,/CS.SRAM*%
%TO.N,/CS.SRAM*%
X120632000Y-78819000D03*
%TO.P,J2,31,/REQ*%
%TO.N,/REQ*%
X119117000Y-77304000D03*
%TO.P,J2,32,GND*%
%TO.N,/GND*%
X117613500Y-78811000D03*
%TD*%
D28*
%TO.P,J1,1,+3.3V/+5V*%
%TO.N,/VCC*%
X117389000Y-123302000D03*
D29*
%TO.P,J1,2,Clock*%
%TO.N,/Clock*%
X119084000Y-123298000D03*
%TO.P,J1,3,/WR*%
%TO.N,/Write*%
X120579000Y-123298000D03*
%TO.P,J1,4,/RD*%
%TO.N,/Read_Bottom*%
X122086000Y-123298000D03*
%TO.P,J1,5,/CS.ROM*%
%TO.N,/CS.ROM*%
X123577000Y-123298000D03*
%TO.P,J1,6,AD0*%
%TO.N,/AD0*%
X125084000Y-123298000D03*
%TO.P,J1,7,AD1*%
%TO.N,/AD1*%
X126579000Y-123298000D03*
%TO.P,J1,8,AD2*%
%TO.N,/AD2*%
X128086000Y-123308000D03*
%TO.P,J1,9,AD3*%
%TO.N,/AD3*%
X129580000Y-123303000D03*
%TO.P,J1,10,AD4*%
%TO.N,/AD4*%
X131079000Y-123307000D03*
%TO.P,J1,11,AD5*%
%TO.N,/AD5*%
X132598000Y-123307000D03*
%TO.P,J1,12,AD6*%
%TO.N,/AD6*%
X134081000Y-123307000D03*
%TO.P,J1,13,AD7*%
%TO.N,/AD7*%
X135588000Y-123307000D03*
%TO.P,J1,14,AD8*%
%TO.N,/AD8*%
X137081000Y-123306000D03*
%TO.P,J1,15,AD9*%
%TO.N,/AD9*%
X138588000Y-123306000D03*
%TO.P,J1,16,AD10*%
%TO.N,/AD10*%
X140095000Y-123306000D03*
%TO.P,J1,17,AD11*%
%TO.N,/AD11*%
X141578000Y-123306000D03*
%TO.P,J1,18,AD12*%
%TO.N,/AD12*%
X143080000Y-123306000D03*
%TO.P,J1,19,AD13*%
%TO.N,/AD13*%
X144586000Y-123306000D03*
%TO.P,J1,20,AD14*%
%TO.N,/AD14*%
X146081000Y-123306000D03*
%TO.P,J1,21,AD15*%
%TO.N,/AD15*%
X147588000Y-123306000D03*
%TO.P,J1,22,A16*%
%TO.N,/A16*%
X149083000Y-123306000D03*
%TO.P,J1,23,A17*%
%TO.N,/A17*%
X150587000Y-123311000D03*
%TO.P,J1,24,A18*%
%TO.N,/A18*%
X152082000Y-123299000D03*
%TO.P,J1,25,A19*%
%TO.N,/A19*%
X153577000Y-123299000D03*
%TO.P,J1,26,A20*%
%TO.N,/A20*%
X155084000Y-123299000D03*
%TO.P,J1,27,A21*%
%TO.N,/A21*%
X156584000Y-123298000D03*
%TO.P,J1,28,A22*%
%TO.N,/A22*%
X158079000Y-123298000D03*
%TO.P,J1,29,A23*%
%TO.N,/A23*%
X159598000Y-123298000D03*
%TO.P,J1,30,/CS.SRAM*%
%TO.N,/CS.SRAM*%
X161087000Y-123305000D03*
%TO.P,J1,31,/REQ*%
%TO.N,/REQ*%
X162582000Y-123305000D03*
D28*
%TO.P,J1,32,GND*%
%TO.N,/GND*%
X164280000Y-123305000D03*
%TD*%
D26*
%TO.P,RP3,1,1*%
%TO.N,/AD11.B3*%
X160081000Y-84827000D03*
%TO.P,RP3,2,2*%
%TO.N,/AD10.B2*%
X160880601Y-84827000D03*
%TO.P,RP3,3,3*%
%TO.N,/AD9.B1*%
X161680599Y-84827000D03*
%TO.P,RP3,4,4*%
%TO.N,/AD8.B0*%
X162467800Y-84827000D03*
%TO.P,RP3,5,5*%
%TO.N,/SST.A8*%
X162467800Y-83099800D03*
%TO.P,RP3,6,6*%
%TO.N,/SST.A9*%
X161680599Y-83099800D03*
%TO.P,RP3,7,7*%
%TO.N,/SST.A10*%
X160880601Y-83099800D03*
%TO.P,RP3,8,8*%
%TO.N,/SST.A11*%
X160081000Y-83099800D03*
%TD*%
D12*
%TO.P,Hole4,1*%
%TO.N,N/C*%
X120795000Y-102481000D03*
%TD*%
D25*
%TO.P,R2,1*%
%TO.N,/Const_Low*%
X123711000Y-107745000D03*
%TO.P,R2,2*%
%TO.N,/GND*%
X123711000Y-109395000D03*
%TD*%
D18*
%TO.P,C7,1*%
%TO.N,/VCC*%
X152500000Y-111698000D03*
%TO.P,C7,2*%
%TO.N,/GND*%
X152500000Y-110148000D03*
%TD*%
D15*
%TO.P,R4,1*%
%TO.N,/Rd.Top.Altera*%
X139538000Y-94283000D03*
%TO.P,R4,2*%
%TO.N,/Read_Top*%
X137888000Y-94283000D03*
%TD*%
D24*
%TO.P,C2,1*%
%TO.N,/VCC*%
X127943000Y-99286000D03*
%TO.P,C2,2*%
%TO.N,/GND*%
X126393000Y-99286000D03*
%TD*%
D30*
%TO.N,/AD12.B4*%
X159615800Y-90037700D03*
X151073900Y-97076100D03*
%TO.N,/AD13.B5*%
X152273300Y-96874900D03*
X158870100Y-91220200D03*
%TO.N,/AD14.B6*%
X153447300Y-103475400D03*
X159419000Y-96086000D03*
%TO.N,/AD15.B7*%
X155969500Y-103218300D03*
X155969500Y-105971300D03*
X138963900Y-105971300D03*
X138963900Y-98622800D03*
%TO.N,/AD8.B0*%
X161478200Y-88074300D03*
X147429100Y-92573300D03*
%TO.N,/AD9.B1*%
X161574900Y-90501800D03*
X151230800Y-104786700D03*
X136151000Y-105328800D03*
X135879000Y-98694600D03*
%TO.N,/AD10.B2*%
X159968500Y-87744300D03*
X146196700Y-91421400D03*
%TO.N,/AD11.B3*%
X152628000Y-104109000D03*
X161937700Y-93355400D03*
%TO.N,/AD7.B7*%
X120098000Y-86155100D03*
X130311700Y-111556100D03*
%TO.N,/AD6.B6*%
X130481400Y-105480000D03*
X121083700Y-85738900D03*
%TO.N,/AD5.B5*%
X121192500Y-87348100D03*
X129738800Y-109189000D03*
%TO.N,/AD4.B4*%
X129600100Y-111360000D03*
X122187800Y-87872500D03*
%TO.N,/AD0.B0*%
X145052700Y-111729000D03*
X125502900Y-85557100D03*
%TO.N,/AD1.B1*%
X129943400Y-80516400D03*
X138099900Y-108867600D03*
%TO.N,/AD2.B2*%
X123923100Y-87798600D03*
X129415100Y-103848000D03*
%TO.N,/AD3.B3*%
X120224900Y-91382600D03*
X123608700Y-113356200D03*
%TO.N,/CS.SRAM*%
X148070700Y-114492300D03*
%TO.N,/A23*%
X146977900Y-115080700D03*
%TO.N,/A22*%
X145751300Y-115570700D03*
%TO.N,/A21*%
X131257900Y-101569000D03*
X137386200Y-116770300D03*
X135688100Y-100552800D03*
%TO.N,/A20*%
X136548600Y-106649000D03*
X154211500Y-109735600D03*
X154211500Y-119961000D03*
%TO.N,/A19*%
X137028100Y-95743500D03*
X138589900Y-117186600D03*
%TO.N,/A18*%
X139161300Y-112149000D03*
X139367500Y-117583500D03*
%TO.N,/A17*%
X139648900Y-111370200D03*
X139496500Y-119342700D03*
%TO.N,/A16*%
X140754100Y-109870600D03*
X148748300Y-118027800D03*
X149500500Y-112915400D03*
%TO.N,/CS.ROM*%
X152165200Y-105379000D03*
X165160600Y-87744100D03*
X123477300Y-119953800D03*
%TO.N,/Clock*%
X119154000Y-119938500D03*
%TO.N,/AD15*%
X148632300Y-97208900D03*
X147913100Y-119855600D03*
X140863800Y-84238800D03*
%TO.N,/AD7*%
X135670700Y-119411100D03*
X148731300Y-83507400D03*
X133539300Y-88853700D03*
X130226000Y-88094100D03*
%TO.N,/AD14*%
X149313400Y-95696500D03*
X148517100Y-119438400D03*
X142440200Y-85035900D03*
%TO.N,/AD6*%
X149937300Y-84496000D03*
X134203000Y-117951800D03*
X130222000Y-88904900D03*
X134026500Y-90119500D03*
%TO.N,/AD13*%
X143641500Y-84911800D03*
X146076200Y-119961700D03*
X150727400Y-95221900D03*
%TO.N,/AD5*%
X125136500Y-90225700D03*
X119675000Y-80049200D03*
X131845000Y-120024200D03*
X152229300Y-85431000D03*
%TO.N,/AD12*%
X151889900Y-94051200D03*
X144933700Y-119641700D03*
X145506400Y-85412100D03*
%TO.N,/AD4*%
X152093600Y-86154500D03*
X130799100Y-119974400D03*
X124717700Y-93964800D03*
%TO.N,/AD11*%
X140818200Y-86539400D03*
X148068400Y-87315000D03*
X146022800Y-95693900D03*
X141537000Y-119530100D03*
%TO.N,/AD3*%
X149844200Y-87945400D03*
X133414900Y-117187000D03*
X131884500Y-94011600D03*
%TO.N,/AD10*%
X152075200Y-87654900D03*
X140951600Y-119125200D03*
X134673100Y-80460100D03*
%TO.N,/AD2*%
X133170800Y-116387800D03*
X131902000Y-94821000D03*
X149773500Y-88747200D03*
%TO.N,/AD9*%
X140522800Y-80242000D03*
X145545900Y-89505600D03*
X140199000Y-119545200D03*
X140199000Y-89454700D03*
%TO.N,/AD1*%
X149153800Y-89756500D03*
X124439900Y-116545700D03*
X124210700Y-95631200D03*
%TO.N,/AD8*%
X152180000Y-90883600D03*
X143146500Y-79903400D03*
X146540000Y-118075100D03*
X148496400Y-98040300D03*
%TO.N,/AD0*%
X149785700Y-90349200D03*
X125311500Y-119950700D03*
X124961400Y-96445700D03*
%TO.N,/Read_Bottom*%
X146681200Y-109882900D03*
X126394100Y-118998200D03*
X142351700Y-93176100D03*
%TO.N,/SST.A0*%
X149781500Y-94538700D03*
X144115500Y-89854800D03*
%TO.N,/SST.A1*%
X132394600Y-92861600D03*
X129200500Y-83612300D03*
%TO.N,/SST.A2*%
X132483500Y-91729100D03*
X129295000Y-82906800D03*
%TO.N,/SST.A3*%
X130254900Y-92296900D03*
X128506900Y-82216400D03*
%TO.N,/SST.A4*%
X125724800Y-81499200D03*
X129950500Y-91431000D03*
%TO.N,/SST.A5*%
X128078800Y-80899700D03*
X132473100Y-87534600D03*
%TO.N,/SST.A6*%
X119724500Y-83760900D03*
X123253200Y-92505800D03*
%TO.N,/SST.A7*%
X125091100Y-89352700D03*
X120067200Y-81572400D03*
%TO.N,/Write*%
X136348200Y-116189200D03*
X133668800Y-87115700D03*
X150851800Y-110618800D03*
X165919000Y-76060100D03*
%TO.N,/SST.A8*%
X156836300Y-81362700D03*
X146264300Y-86821200D03*
X135909200Y-90078100D03*
X130228900Y-84931000D03*
%TO.N,/SST.A10*%
X159401600Y-83869800D03*
X144219000Y-86812300D03*
X140415300Y-87126900D03*
X137235300Y-83530900D03*
%TO.N,/SST.A11*%
X158720400Y-83099800D03*
X147879900Y-88904600D03*
X139574600Y-88408200D03*
X134389300Y-83223100D03*
%TO.N,/SST.A14*%
X152862300Y-84612800D03*
X146601400Y-80422500D03*
%TO.N,/SST.A15*%
X153412400Y-85351400D03*
X144043000Y-80710800D03*
%TO.N,/Switch*%
X151690200Y-100840300D03*
%TO.N,/245.OE*%
X151615100Y-101699200D03*
X166554300Y-87885400D03*
X146509700Y-101037300D03*
X144530600Y-98681700D03*
X144501400Y-103357000D03*
%TO.N,/Read_Top*%
X147486900Y-91403300D03*
D31*
%TO.N,/GND*%
X153265500Y-108996700D03*
X139250800Y-84235600D03*
X144179700Y-93783800D03*
X121442600Y-98741400D03*
X157114000Y-99154700D03*
X163960000Y-119814800D03*
D30*
%TO.N,/REQ*%
X161209300Y-118801700D03*
D31*
%TO.N,/VCC*%
X156671100Y-90006500D03*
X128844500Y-106774200D03*
X126392900Y-112066300D03*
%TD*%
D32*
%TO.N,/AD12.B4*%
X156838000Y-82964600D02*
X157608000Y-82964600D01*
X163374200Y-94778000D02*
X162172400Y-94778000D01*
X147726500Y-98503600D02*
X146039000Y-98503600D01*
X147930100Y-98300000D02*
X147726500Y-98503600D01*
X147930100Y-97095800D02*
X147930100Y-98300000D01*
X148367200Y-96658700D02*
X147930100Y-97095800D01*
X149708000Y-96658700D02*
X148367200Y-96658700D01*
X150125400Y-97076100D02*
X149708000Y-96658700D01*
X151073900Y-97076100D02*
X150125400Y-97076100D01*
X146039000Y-97200200D02*
X146039000Y-98503600D01*
X159011000Y-89432900D02*
X159615800Y-90037700D01*
X159011000Y-84367600D02*
X159011000Y-89432900D01*
X157608000Y-82964600D02*
X159011000Y-84367600D01*
X159615800Y-92221400D02*
X159615800Y-90037700D01*
X162172400Y-94778000D02*
X159615800Y-92221400D01*
D33*
%TO.N,/AD13.B5*%
X147363000Y-96500700D02*
X147343000Y-96520500D01*
X147383000Y-96480900D02*
X147363000Y-96500700D01*
D32*
X163374200Y-96048000D02*
X162172400Y-96048000D01*
X156838000Y-83751800D02*
X157608000Y-83751800D01*
X147620100Y-96757700D02*
X147363000Y-96500700D01*
X147309000Y-97068800D02*
X147620100Y-96757700D01*
X147309000Y-97200200D02*
X147309000Y-97068800D01*
X148119200Y-96258600D02*
X147620100Y-96757700D01*
X149873700Y-96258600D02*
X148119200Y-96258600D01*
X149895400Y-96280300D02*
X149873700Y-96258600D01*
X150239600Y-96280300D02*
X149895400Y-96280300D01*
X150271700Y-96312400D02*
X150239600Y-96280300D01*
X150437400Y-96312400D02*
X150271700Y-96312400D01*
X150444300Y-96319300D02*
X150437400Y-96312400D01*
X150576500Y-96319300D02*
X150444300Y-96319300D01*
X150647500Y-96390300D02*
X150576500Y-96319300D01*
X151239600Y-96390300D02*
X150647500Y-96390300D01*
X151724200Y-96874900D02*
X151239600Y-96390300D01*
X152273300Y-96874900D02*
X151724200Y-96874900D01*
X158554400Y-84698200D02*
X157608000Y-83751800D01*
X158554400Y-90904500D02*
X158554400Y-84698200D01*
X158870100Y-91220200D02*
X158554400Y-90904500D01*
X158870100Y-92745700D02*
X158870100Y-91220200D01*
X162172400Y-96048000D02*
X158870100Y-92745700D01*
%TO.N,/AD14.B6*%
X156838000Y-84551800D02*
X157608000Y-84551800D01*
X163374200Y-97318000D02*
X162172400Y-97318000D01*
X151077600Y-103475400D02*
X153447300Y-103475400D01*
X150441200Y-102839000D02*
X151077600Y-103475400D01*
X149137800Y-102839000D02*
X150441200Y-102839000D01*
X160651000Y-97318000D02*
X159419000Y-96086000D01*
X162172400Y-97318000D02*
X160651000Y-97318000D01*
X158022500Y-94689500D02*
X159419000Y-96086000D01*
X158022500Y-84966300D02*
X158022500Y-94689500D01*
X157608000Y-84551800D02*
X158022500Y-84966300D01*
%TO.N,/AD15.B7*%
X163374200Y-98588000D02*
X162172400Y-98588000D01*
X138419000Y-97200200D02*
X138419000Y-98503600D01*
X138844700Y-98503600D02*
X138419000Y-98503600D01*
X138963900Y-98622800D02*
X138844700Y-98503600D01*
X162172400Y-98588000D02*
X160502400Y-98588000D01*
X156838000Y-85351400D02*
X157608000Y-85351400D01*
X160502400Y-98685400D02*
X160502400Y-98588000D01*
X155969500Y-103218300D02*
X160502400Y-98685400D01*
X157608000Y-95693600D02*
X157608000Y-85351400D01*
X160502400Y-98588000D02*
X157608000Y-95693600D01*
X155969500Y-105971300D02*
X138963900Y-105971300D01*
%TO.N,/AD8.B0*%
X163374200Y-89698000D02*
X162172400Y-89698000D01*
X162467800Y-84827000D02*
X162467800Y-85597000D01*
X162172400Y-88768500D02*
X162172400Y-89698000D01*
X161478200Y-88074300D02*
X162172400Y-88768500D01*
X132780200Y-102839000D02*
X134083600Y-102839000D01*
X161478200Y-86586600D02*
X162467800Y-85597000D01*
X161478200Y-88074300D02*
X161478200Y-86586600D01*
X140028000Y-92573300D02*
X147429100Y-92573300D01*
X138713000Y-93888300D02*
X140028000Y-92573300D01*
X138713000Y-94715900D02*
X138713000Y-93888300D01*
X137826700Y-95602200D02*
X138713000Y-94715900D01*
X137826700Y-99192100D02*
X137826700Y-95602200D01*
X134179800Y-102839000D02*
X137826700Y-99192100D01*
X134083600Y-102839000D02*
X134179800Y-102839000D01*
%TO.N,/AD9.B1*%
X163374200Y-90968000D02*
X162272500Y-90968000D01*
X161680600Y-84827000D02*
X161680600Y-85597000D01*
X135879000Y-98694600D02*
X135879000Y-97200200D01*
X161806300Y-90501800D02*
X161574900Y-90501800D01*
X162272500Y-90968000D02*
X161806300Y-90501800D01*
X138716100Y-102763700D02*
X136151000Y-105328800D01*
X145032900Y-102763700D02*
X138716100Y-102763700D01*
X147055900Y-104786700D02*
X145032900Y-102763700D01*
X151230800Y-104786700D02*
X147055900Y-104786700D01*
X160923500Y-86354100D02*
X161680600Y-85597000D01*
X160923500Y-89368800D02*
X160923500Y-86354100D01*
X161574900Y-90020200D02*
X160923500Y-89368800D01*
X161574900Y-90501800D02*
X161574900Y-90020200D01*
%TO.N,/AD10.B2*%
X163374200Y-92238000D02*
X162172400Y-92238000D01*
X160880600Y-84827000D02*
X160880600Y-85597000D01*
X160425500Y-86052100D02*
X160425500Y-87744300D01*
X160880600Y-85597000D02*
X160425500Y-86052100D01*
X161020200Y-91085800D02*
X162172400Y-92238000D01*
X161020200Y-90031300D02*
X161020200Y-91085800D01*
X160425500Y-89436600D02*
X161020200Y-90031300D01*
X160425500Y-87744300D02*
X160425500Y-89436600D01*
X139084400Y-91421400D02*
X134609000Y-95896800D01*
X146196700Y-91421400D02*
X139084400Y-91421400D01*
X134609000Y-97200200D02*
X134609000Y-95896800D01*
X160425500Y-87744300D02*
X159968500Y-87744300D01*
%TO.N,/AD11.B3*%
X160081000Y-84827000D02*
X160081000Y-85597000D01*
X163374200Y-93508000D02*
X162172400Y-93508000D01*
X162019800Y-93355400D02*
X162172400Y-93508000D01*
X161937700Y-93355400D02*
X162019800Y-93355400D01*
X149137800Y-104109000D02*
X152628000Y-104109000D01*
X160420000Y-91837700D02*
X161937700Y-93355400D01*
X160420000Y-90064000D02*
X160420000Y-91837700D01*
X159411100Y-89055100D02*
X160420000Y-90064000D01*
X159411100Y-86266900D02*
X159411100Y-89055100D01*
X160081000Y-85597000D02*
X159411100Y-86266900D01*
%TO.N,/AD7.B7*%
X120434400Y-84613000D02*
X120434400Y-84998000D01*
X120434400Y-84613000D02*
X120434400Y-84228000D01*
X132780200Y-111729000D02*
X131476800Y-111729000D01*
X131303900Y-111556100D02*
X130311700Y-111556100D01*
X131476800Y-111729000D02*
X131303900Y-111556100D01*
X118401800Y-86397000D02*
X119603600Y-86397000D01*
X120434400Y-85818700D02*
X120098000Y-86155100D01*
X120434400Y-84998000D02*
X120434400Y-85818700D01*
X119845500Y-86155100D02*
X119603600Y-86397000D01*
X120098000Y-86155100D02*
X119845500Y-86155100D01*
D33*
%TO.N,/AD6.B6*%
X132143000Y-105490000D02*
X132153000Y-105480000D01*
D32*
X118401800Y-87667000D02*
X119603600Y-87667000D01*
X121234000Y-85588600D02*
X121083700Y-85738900D01*
X121234000Y-84228000D02*
X121234000Y-85588600D01*
X121083700Y-86186900D02*
X119603600Y-87667000D01*
X121083700Y-85738900D02*
X121083700Y-86186900D01*
X132153000Y-105480000D02*
X130481400Y-105480000D01*
D33*
X132153000Y-105480000D02*
X132168000Y-105465000D01*
X132168000Y-105465000D02*
X132183000Y-105450000D01*
D32*
X132694200Y-105465000D02*
X132780200Y-105379000D01*
X132168000Y-105465000D02*
X132694200Y-105465000D01*
%TO.N,/AD5.B5*%
X118401800Y-88937000D02*
X119603600Y-88937000D01*
X119603600Y-88937000D02*
X121192500Y-87348100D01*
X122034000Y-86506600D02*
X122034000Y-84228000D01*
X121192500Y-87348100D02*
X122034000Y-86506600D01*
X132780200Y-109189000D02*
X129738800Y-109189000D01*
D33*
%TO.N,/AD4.B4*%
X131816000Y-110500000D02*
X131826000Y-110490000D01*
X131746000Y-110570000D02*
X131816000Y-110500000D01*
D32*
X118401800Y-90207000D02*
X119603600Y-90207000D01*
X132739200Y-110500000D02*
X131816000Y-110500000D01*
X132780200Y-110459000D02*
X132739200Y-110500000D01*
X121938100Y-87872500D02*
X119603600Y-90207000D01*
X122187800Y-87872500D02*
X121938100Y-87872500D01*
X122821200Y-87239100D02*
X122821200Y-84228000D01*
X122187800Y-87872500D02*
X122821200Y-87239100D01*
X130460100Y-110500000D02*
X129600100Y-111360000D01*
X131816000Y-110500000D02*
X130460100Y-110500000D01*
%TO.N,/AD0.B0*%
X125842000Y-84603200D02*
X125072000Y-84603200D01*
X125072000Y-85557100D02*
X125502900Y-85557100D01*
X125072000Y-84603200D02*
X125072000Y-85557100D01*
X118401800Y-95287000D02*
X119603600Y-95287000D01*
X125072000Y-87993500D02*
X125072000Y-85557100D01*
X124032700Y-89032800D02*
X125072000Y-87993500D01*
X124032700Y-89584000D02*
X124032700Y-89032800D01*
X119603600Y-94013100D02*
X124032700Y-89584000D01*
X119603600Y-95287000D02*
X119603600Y-94013100D01*
X149137800Y-111729000D02*
X145052700Y-111729000D01*
%TO.N,/AD1.B1*%
X124473200Y-84414800D02*
X125072000Y-83816000D01*
X124473200Y-88026500D02*
X124473200Y-84414800D01*
X123599100Y-88900600D02*
X124473200Y-88026500D01*
X123599100Y-89451800D02*
X123599100Y-88900600D01*
X119033900Y-94017000D02*
X123599100Y-89451800D01*
X118401800Y-94017000D02*
X119033900Y-94017000D01*
X125457000Y-83816000D02*
X125072000Y-83816000D01*
X125457000Y-83816000D02*
X125842000Y-83816000D01*
X149137800Y-109189000D02*
X147834400Y-109189000D01*
X147513000Y-108867600D02*
X138099900Y-108867600D01*
X147834400Y-109189000D02*
X147513000Y-108867600D01*
X125842000Y-83816000D02*
X126612000Y-83816000D01*
X129004200Y-81455600D02*
X129943400Y-80516400D01*
X127150300Y-81455600D02*
X129004200Y-81455600D01*
X126612000Y-81993900D02*
X127150300Y-81455600D01*
X126612000Y-83816000D02*
X126612000Y-81993900D01*
%TO.N,/AD2.B2*%
X118401800Y-92747000D02*
X119603600Y-92747000D01*
X125842000Y-83016000D02*
X125072000Y-83016000D01*
X132780200Y-104109000D02*
X131476800Y-104109000D01*
X123923100Y-84164900D02*
X123923100Y-87798600D01*
X125072000Y-83016000D02*
X123923100Y-84164900D01*
X123057800Y-88663900D02*
X123923100Y-87798600D01*
X123057800Y-89351500D02*
X123057800Y-88663900D01*
X119662300Y-92747000D02*
X123057800Y-89351500D01*
X119603600Y-92747000D02*
X119662300Y-92747000D01*
X131215800Y-103848000D02*
X129415100Y-103848000D01*
X131476800Y-104109000D02*
X131215800Y-103848000D01*
%TO.N,/AD3.B3*%
X118401800Y-91477000D02*
X119603600Y-91477000D01*
X125842000Y-82216400D02*
X125072000Y-82216400D01*
X135879000Y-113557800D02*
X135879000Y-114861200D01*
X132617400Y-113356200D02*
X123608700Y-113356200D01*
X134122400Y-114861200D02*
X132617400Y-113356200D01*
X135879000Y-114861200D02*
X134122400Y-114861200D01*
X119698000Y-91382600D02*
X120224900Y-91382600D01*
X119603600Y-91477000D02*
X119698000Y-91382600D01*
X123375400Y-83913000D02*
X125072000Y-82216400D01*
X123375400Y-87336400D02*
X123375400Y-83913000D01*
X122884100Y-87827700D02*
X123375400Y-87336400D01*
X122884100Y-88246600D02*
X122884100Y-87827700D01*
X120224900Y-90905800D02*
X122884100Y-88246600D01*
X120224900Y-91382600D02*
X120224900Y-90905800D01*
%TO.N,/CS.SRAM*%
X161087000Y-123305000D02*
X161087000Y-120124900D01*
X155454400Y-114492300D02*
X148070700Y-114492300D01*
X161087000Y-120124900D02*
X155454400Y-114492300D01*
%TO.N,/A23*%
X159598000Y-123298000D02*
X159598000Y-120117900D01*
X147309000Y-113557800D02*
X147309000Y-114861200D01*
X147089500Y-115080700D02*
X146977900Y-115080700D01*
X147309000Y-114861200D02*
X147089500Y-115080700D01*
X147595200Y-115147400D02*
X147309000Y-114861200D01*
X154627500Y-115147400D02*
X147595200Y-115147400D01*
X159598000Y-120117900D02*
X154627500Y-115147400D01*
D33*
%TO.N,/A22*%
X158178000Y-121126500D02*
X158218000Y-121166000D01*
D32*
X158079000Y-121225500D02*
X158079000Y-123298000D01*
X158178000Y-121126500D02*
X158079000Y-121225500D01*
X146039000Y-113557800D02*
X146039000Y-114861200D01*
D33*
X158138000Y-121087000D02*
X158178000Y-121126500D01*
D32*
X146039000Y-115570700D02*
X145751300Y-115570700D01*
X146039000Y-114861200D02*
X146039000Y-115570700D01*
X158138000Y-121012700D02*
X158138000Y-121087000D01*
X152781000Y-115655700D02*
X158138000Y-121012700D01*
X146124000Y-115655700D02*
X152781000Y-115655700D01*
X146039000Y-115570700D02*
X146124000Y-115655700D01*
%TO.N,/A21*%
X132780200Y-101569000D02*
X131257900Y-101569000D01*
X156584000Y-123298000D02*
X156584000Y-120117900D01*
X134671900Y-101569000D02*
X135688100Y-100552800D01*
X132780200Y-101569000D02*
X134671900Y-101569000D01*
X137549000Y-116607500D02*
X137386200Y-116770300D01*
X147570900Y-116607500D02*
X137549000Y-116607500D01*
X147901000Y-116277400D02*
X147570900Y-116607500D01*
X152743500Y-116277400D02*
X147901000Y-116277400D01*
X156584000Y-120117900D02*
X152743500Y-116277400D01*
%TO.N,/A20*%
X149137800Y-106649000D02*
X147834400Y-106649000D01*
X155202000Y-120951500D02*
X154211500Y-119961000D01*
X155202000Y-121166000D02*
X155202000Y-120951500D01*
D33*
X155202000Y-121166000D02*
X155221500Y-121186000D01*
X155221500Y-121186000D02*
X155241000Y-121206000D01*
D32*
X155084000Y-121323500D02*
X155084000Y-123299000D01*
X155221500Y-121186000D02*
X155084000Y-121323500D01*
X151907900Y-106649000D02*
X149137800Y-106649000D01*
X154211500Y-108952600D02*
X151907900Y-106649000D01*
X154211500Y-109735600D02*
X154211500Y-108952600D01*
X147834400Y-106649000D02*
X136548600Y-106649000D01*
%TO.N,/A19*%
X153577000Y-121759000D02*
X153577000Y-123299000D01*
X153614000Y-121722000D02*
X153577000Y-121759000D01*
X137149000Y-97200200D02*
X137149000Y-95896800D01*
X137028100Y-95775900D02*
X137028100Y-95743500D01*
X137149000Y-95896800D02*
X137028100Y-95775900D01*
D33*
X153693000Y-121643000D02*
X153614000Y-121722000D01*
D32*
X138759600Y-117016900D02*
X138589900Y-117186600D01*
X147727300Y-117016900D02*
X138759600Y-117016900D01*
X148066700Y-116677500D02*
X147727300Y-117016900D01*
X149307600Y-116677500D02*
X148066700Y-116677500D01*
X153693000Y-121062900D02*
X149307600Y-116677500D01*
X153693000Y-121643000D02*
X153693000Y-121062900D01*
%TO.N,/A18*%
X139266700Y-112254400D02*
X139161300Y-112149000D01*
X139689000Y-112254400D02*
X139266700Y-112254400D01*
X152082000Y-121349000D02*
X152185000Y-121246000D01*
X152082000Y-123299000D02*
X152082000Y-121349000D01*
X139689000Y-113557800D02*
X139689000Y-112254400D01*
D33*
X152265000Y-121166000D02*
X152225000Y-121206000D01*
X152225000Y-121206000D02*
X152185000Y-121246000D01*
D32*
X139473300Y-117477700D02*
X139367500Y-117583500D01*
X147832300Y-117477700D02*
X139473300Y-117477700D01*
X148232400Y-117077600D02*
X147832300Y-117477700D01*
X149141900Y-117077600D02*
X148232400Y-117077600D01*
X152225000Y-120160700D02*
X149141900Y-117077600D01*
X152225000Y-121206000D02*
X152225000Y-120160700D01*
D33*
%TO.N,/A17*%
X150587000Y-121931000D02*
X150558000Y-121960000D01*
D32*
X150587000Y-121931000D02*
X150587000Y-123311000D01*
X142229000Y-113557800D02*
X142229000Y-112254400D01*
X140533100Y-112254400D02*
X142229000Y-112254400D01*
X139648900Y-111370200D02*
X140533100Y-112254400D01*
D33*
X150836000Y-121682000D02*
X150711500Y-121806500D01*
X150711500Y-121806500D02*
X150587000Y-121931000D01*
D32*
X140280800Y-118558400D02*
X139496500Y-119342700D01*
X143350000Y-118558400D02*
X140280800Y-118558400D01*
X143419400Y-118627800D02*
X143350000Y-118558400D01*
X147348200Y-118627800D02*
X143419400Y-118627800D01*
X148498300Y-117477700D02*
X147348200Y-118627800D01*
X148976200Y-117477700D02*
X148498300Y-117477700D01*
X150711500Y-119213000D02*
X148976200Y-117477700D01*
X150711500Y-121806500D02*
X150711500Y-119213000D01*
%TO.N,/A16*%
X149248000Y-123141000D02*
X149248000Y-122595000D01*
X149083000Y-123306000D02*
X149248000Y-123141000D01*
X138419000Y-113557800D02*
X138419000Y-112254400D01*
X138419000Y-111822200D02*
X138419000Y-112254400D01*
X140370600Y-109870600D02*
X138419000Y-111822200D01*
X140754100Y-109870600D02*
X140370600Y-109870600D01*
D33*
X149050000Y-122397000D02*
X149149000Y-122496000D01*
X149149000Y-122496000D02*
X149248000Y-122595000D01*
D32*
X149149000Y-118428500D02*
X148748300Y-118027800D01*
X149149000Y-122496000D02*
X149149000Y-118428500D01*
X149671700Y-112915400D02*
X149500500Y-112915400D01*
X151401900Y-111185200D02*
X149671700Y-112915400D01*
X151401900Y-110390900D02*
X151401900Y-111185200D01*
X150877700Y-109866700D02*
X151401900Y-110390900D01*
X147936800Y-109866700D02*
X150877700Y-109866700D01*
X147350800Y-109280700D02*
X147936800Y-109866700D01*
X141344000Y-109280700D02*
X147350800Y-109280700D01*
X140754100Y-109870600D02*
X141344000Y-109280700D01*
%TO.N,/CS.ROM*%
X158212000Y-79105800D02*
X158212000Y-77303000D01*
X159296000Y-80189800D02*
X158212000Y-79105800D01*
X160767600Y-80189800D02*
X159296000Y-80189800D01*
X163059500Y-82481700D02*
X160767600Y-80189800D01*
X163059500Y-85880000D02*
X163059500Y-82481700D01*
X162172400Y-86767100D02*
X163059500Y-85880000D01*
X162172400Y-87566600D02*
X162172400Y-86767100D01*
X162349900Y-87744100D02*
X162172400Y-87566600D01*
X165160600Y-87744100D02*
X162349900Y-87744100D01*
X123577000Y-123298000D02*
X123577000Y-120117900D01*
X123477300Y-120018200D02*
X123477300Y-119953800D01*
X123577000Y-120117900D02*
X123477300Y-120018200D01*
X152066600Y-105477600D02*
X152165200Y-105379000D01*
X149236400Y-105477600D02*
X152066600Y-105477600D01*
X149137800Y-105379000D02*
X149236400Y-105477600D01*
%TO.N,/Clock*%
X119084000Y-120008500D02*
X119154000Y-119938500D01*
X119084000Y-123298000D02*
X119084000Y-120008500D01*
%TO.N,/AD15*%
X147588000Y-121438000D02*
X147588000Y-123306000D01*
X147740000Y-121286000D02*
X147588000Y-121438000D01*
X153823800Y-97318000D02*
X152622000Y-97318000D01*
D33*
X147820000Y-121206000D02*
X147780000Y-121246000D01*
X147780000Y-121246000D02*
X147740000Y-121286000D01*
D32*
X152313800Y-97626200D02*
X152622000Y-97318000D01*
X149049600Y-97626200D02*
X152313800Y-97626200D01*
X148632300Y-97208900D02*
X149049600Y-97626200D01*
X147780000Y-119988700D02*
X147913100Y-119855600D01*
X147780000Y-121246000D02*
X147780000Y-119988700D01*
X141839200Y-84238800D02*
X140863800Y-84238800D01*
X142916600Y-83161400D02*
X141839200Y-84238800D01*
X147181900Y-83161400D02*
X142916600Y-83161400D01*
X147412300Y-82931000D02*
X147181900Y-83161400D01*
X151019900Y-82931000D02*
X147412300Y-82931000D01*
%TO.N,/AD7*%
X135588000Y-123307000D02*
X135588000Y-120126900D01*
X127952200Y-87667000D02*
X129154000Y-87667000D01*
X129581100Y-88094100D02*
X130226000Y-88094100D01*
X129154000Y-87667000D02*
X129581100Y-88094100D01*
X148807700Y-83431000D02*
X148731300Y-83507400D01*
X151019900Y-83431000D02*
X148807700Y-83431000D01*
X135588000Y-119493800D02*
X135670700Y-119411100D01*
X135588000Y-120126900D02*
X135588000Y-119493800D01*
X137418700Y-84974300D02*
X133539300Y-88853700D01*
X139908000Y-84974300D02*
X137418700Y-84974300D01*
X140093300Y-84789000D02*
X139908000Y-84974300D01*
X141854900Y-84789000D02*
X140093300Y-84789000D01*
X143082400Y-83561500D02*
X141854900Y-84789000D01*
X148677200Y-83561500D02*
X143082400Y-83561500D01*
X148731300Y-83507400D02*
X148677200Y-83561500D01*
D33*
%TO.N,/AD14*%
X146192500Y-121285500D02*
X146272000Y-121365000D01*
D32*
X146081000Y-121397000D02*
X146081000Y-123306000D01*
X146192500Y-121285500D02*
X146081000Y-121397000D01*
X153823800Y-96048000D02*
X152622000Y-96048000D01*
D33*
X146113000Y-121206000D02*
X146192500Y-121285500D01*
D32*
X152346000Y-95772000D02*
X152622000Y-96048000D01*
X149388900Y-95772000D02*
X152346000Y-95772000D01*
X149313400Y-95696500D02*
X149388900Y-95772000D01*
X148362100Y-119283400D02*
X148517100Y-119438400D01*
X147707100Y-119283400D02*
X148362100Y-119283400D01*
X146113000Y-120877500D02*
X147707100Y-119283400D01*
X146113000Y-121206000D02*
X146113000Y-120877500D01*
X142440200Y-84769400D02*
X142440200Y-85035900D01*
X143248000Y-83961600D02*
X142440200Y-84769400D01*
X145965600Y-83961600D02*
X143248000Y-83961600D01*
X146123900Y-84119900D02*
X145965600Y-83961600D01*
X149107400Y-84119900D02*
X146123900Y-84119900D01*
X149296300Y-83931000D02*
X149107400Y-84119900D01*
X151019900Y-83931000D02*
X149296300Y-83931000D01*
%TO.N,/AD6*%
X130189900Y-88937000D02*
X127952200Y-88937000D01*
X130222000Y-88904900D02*
X130189900Y-88937000D01*
D33*
X134008000Y-121405000D02*
X134018000Y-121414700D01*
D32*
X150002300Y-84431000D02*
X149937300Y-84496000D01*
X151019900Y-84431000D02*
X150002300Y-84431000D01*
X134018000Y-118136800D02*
X134203000Y-117951800D01*
X134018000Y-121414700D02*
X134018000Y-118136800D01*
D33*
X134018000Y-121414700D02*
X134048000Y-121444000D01*
D32*
X134048000Y-123274000D02*
X134048000Y-121444000D01*
X134081000Y-123307000D02*
X134048000Y-123274000D01*
X138771600Y-85374400D02*
X134026500Y-90119500D01*
X140073700Y-85374400D02*
X138771600Y-85374400D01*
X140259000Y-85189100D02*
X140073700Y-85374400D01*
X141377500Y-85189100D02*
X140259000Y-85189100D01*
X141791400Y-85603000D02*
X141377500Y-85189100D01*
X142651300Y-85603000D02*
X141791400Y-85603000D01*
X143091400Y-85162900D02*
X142651300Y-85603000D01*
X143091400Y-84684000D02*
X143091400Y-85162900D01*
X143413700Y-84361700D02*
X143091400Y-84684000D01*
X145799900Y-84361700D02*
X143413700Y-84361700D01*
X145958200Y-84520000D02*
X145799900Y-84361700D01*
X149913300Y-84520000D02*
X145958200Y-84520000D01*
X149937300Y-84496000D02*
X149913300Y-84520000D01*
%TO.N,/AD13*%
X144586000Y-123306000D02*
X144586000Y-120125900D01*
X153823800Y-94778000D02*
X152622000Y-94778000D01*
X152178100Y-95221900D02*
X150727400Y-95221900D01*
X152622000Y-94778000D02*
X152178100Y-95221900D01*
X145391700Y-119961700D02*
X146076200Y-119961700D01*
X145161600Y-120191800D02*
X145391700Y-119961700D01*
X144705900Y-120191800D02*
X145161600Y-120191800D01*
X144640000Y-120125900D02*
X144705900Y-120191800D01*
X144586000Y-120125900D02*
X144640000Y-120125900D01*
X143712200Y-84841100D02*
X143641500Y-84911800D01*
X145713500Y-84841100D02*
X143712200Y-84841100D01*
X145920100Y-85047700D02*
X145713500Y-84841100D01*
X150199300Y-85047700D02*
X145920100Y-85047700D01*
X150316000Y-84931000D02*
X150199300Y-85047700D01*
X151019900Y-84931000D02*
X150316000Y-84931000D01*
D33*
%TO.N,/AD5*%
X132599500Y-121266000D02*
X132580000Y-121286000D01*
D32*
X132598000Y-121267500D02*
X132598000Y-123307000D01*
X132599500Y-121266000D02*
X132598000Y-121267500D01*
D33*
X132619000Y-121246000D02*
X132599500Y-121266000D01*
D32*
X117080600Y-80049200D02*
X119675000Y-80049200D01*
X116373700Y-79342300D02*
X117080600Y-80049200D01*
X116373700Y-78243500D02*
X116373700Y-79342300D01*
X118578800Y-76038400D02*
X116373700Y-78243500D01*
X147900600Y-76038400D02*
X118578800Y-76038400D01*
X149165100Y-77302900D02*
X147900600Y-76038400D01*
X151019900Y-85431000D02*
X151923300Y-85431000D01*
X125155200Y-90207000D02*
X125136500Y-90225700D01*
X127952200Y-90207000D02*
X125155200Y-90207000D01*
X132619000Y-120798200D02*
X131845000Y-120024200D01*
X132619000Y-121246000D02*
X132619000Y-120798200D01*
X151923300Y-85431000D02*
X152229300Y-85431000D01*
D33*
%TO.N,/AD12*%
X142938000Y-120769500D02*
X143057000Y-120889000D01*
D32*
X143080000Y-120911500D02*
X143080000Y-123306000D01*
X142938000Y-120769500D02*
X143080000Y-120911500D01*
X153823800Y-93508000D02*
X152622000Y-93508000D01*
X152078800Y-94051200D02*
X151889900Y-94051200D01*
X152622000Y-93508000D02*
X152078800Y-94051200D01*
D33*
X142819000Y-120650000D02*
X142938000Y-120769500D01*
D32*
X143827300Y-119641700D02*
X142819000Y-120650000D01*
X144933700Y-119641700D02*
X143827300Y-119641700D01*
X146728600Y-85931000D02*
X151019900Y-85931000D01*
X146541100Y-85743500D02*
X146728600Y-85931000D01*
X145837800Y-85743500D02*
X146541100Y-85743500D01*
X145506400Y-85412100D02*
X145837800Y-85743500D01*
%TO.N,/AD4*%
X151019900Y-86431000D02*
X151923300Y-86431000D01*
X128553100Y-91477000D02*
X129154000Y-91477000D01*
X128553100Y-91477000D02*
X127952200Y-91477000D01*
X151019900Y-86431000D02*
X150116600Y-86431000D01*
X151923300Y-86324800D02*
X152093600Y-86154500D01*
X151923300Y-86431000D02*
X151923300Y-86324800D01*
X146662700Y-86431000D02*
X150116600Y-86431000D01*
X146502700Y-86271000D02*
X146662700Y-86431000D01*
X145587300Y-86271000D02*
X146502700Y-86271000D01*
X144778300Y-85462000D02*
X145587300Y-86271000D01*
X143358100Y-85462000D02*
X144778300Y-85462000D01*
X142817000Y-86003100D02*
X143358100Y-85462000D01*
X141625700Y-86003100D02*
X142817000Y-86003100D01*
X141211800Y-85589200D02*
X141625700Y-86003100D01*
X140424700Y-85589200D02*
X141211800Y-85589200D01*
X140239400Y-85774500D02*
X140424700Y-85589200D01*
X139435000Y-85774500D02*
X140239400Y-85774500D01*
X133221800Y-91987700D02*
X139435000Y-85774500D01*
X133221800Y-92913800D02*
X133221800Y-91987700D01*
X132707000Y-93428600D02*
X133221800Y-92913800D01*
X130554300Y-93428600D02*
X132707000Y-93428600D01*
X129154000Y-92028300D02*
X130554300Y-93428600D01*
X129154000Y-91477000D02*
X129154000Y-92028300D01*
X126750400Y-91932100D02*
X126750400Y-91477000D01*
X124717700Y-93964800D02*
X126750400Y-91932100D01*
X127952200Y-91477000D02*
X126750400Y-91477000D01*
X131079000Y-123307000D02*
X131079000Y-120126900D01*
X130951600Y-120126900D02*
X130799100Y-119974400D01*
X131079000Y-120126900D02*
X130951600Y-120126900D01*
D33*
%TO.N,/AD11*%
X141772000Y-121112000D02*
X141787000Y-121127000D01*
D32*
X141578000Y-121306000D02*
X141578000Y-123306000D01*
X141772000Y-121112000D02*
X141578000Y-121306000D01*
X151019900Y-87431000D02*
X150116600Y-87431000D01*
X150000600Y-87315000D02*
X150116600Y-87431000D01*
X148068400Y-87315000D02*
X150000600Y-87315000D01*
X152622000Y-92534400D02*
X152622000Y-92238000D01*
X150066300Y-95090100D02*
X152622000Y-92534400D01*
X149088600Y-95090100D02*
X150066300Y-95090100D01*
X148484800Y-95693900D02*
X149088600Y-95090100D01*
X146022800Y-95693900D02*
X148484800Y-95693900D01*
X153823800Y-92238000D02*
X152622000Y-92238000D01*
D33*
X141747000Y-121087000D02*
X141772000Y-121112000D01*
D32*
X141537000Y-120877000D02*
X141537000Y-119530100D01*
X141747000Y-121087000D02*
X141537000Y-120877000D01*
X148012100Y-87371300D02*
X148068400Y-87315000D01*
X145556000Y-87371300D02*
X148012100Y-87371300D01*
X144446900Y-86262200D02*
X145556000Y-87371300D01*
X143689500Y-86262200D02*
X144446900Y-86262200D01*
X143089300Y-86862400D02*
X143689500Y-86262200D01*
X141141200Y-86862400D02*
X143089300Y-86862400D01*
X140818200Y-86539400D02*
X141141200Y-86862400D01*
%TO.N,/AD3*%
X127952200Y-92747000D02*
X129154000Y-92747000D01*
X151019900Y-87931000D02*
X150116600Y-87931000D01*
X150102200Y-87945400D02*
X150116600Y-87931000D01*
X149844200Y-87945400D02*
X150102200Y-87945400D01*
X131884500Y-94011600D02*
X131884500Y-93894400D01*
X130301400Y-93894400D02*
X129154000Y-92747000D01*
X131884500Y-93894400D02*
X130301400Y-93894400D01*
X132903200Y-93894400D02*
X131884500Y-93894400D01*
X138554700Y-88242900D02*
X132903200Y-93894400D01*
X138554700Y-88084400D02*
X138554700Y-88242900D01*
X139181100Y-87458000D02*
X138554700Y-88084400D01*
X139968200Y-87458000D02*
X139181100Y-87458000D01*
X140444800Y-87934600D02*
X139968200Y-87458000D01*
X149833400Y-87934600D02*
X140444800Y-87934600D01*
X149844200Y-87945400D02*
X149833400Y-87934600D01*
X129580000Y-123303000D02*
X129580000Y-120122900D01*
X132515900Y-117187000D02*
X129580000Y-120122900D01*
X133414900Y-117187000D02*
X132515900Y-117187000D01*
%TO.N,/AD10*%
X153823800Y-90968000D02*
X155025600Y-90968000D01*
X151019900Y-88431000D02*
X152075200Y-88431000D01*
X155025600Y-89305700D02*
X155025600Y-90968000D01*
X154750700Y-89030800D02*
X155025600Y-89305700D01*
X152675000Y-89030800D02*
X154750700Y-89030800D01*
X152075200Y-88431000D02*
X152675000Y-89030800D01*
X152075200Y-88431000D02*
X152075200Y-87654900D01*
X140476800Y-78812000D02*
X141662000Y-78812000D01*
X138828700Y-80460100D02*
X140476800Y-78812000D01*
X134673100Y-80460100D02*
X138828700Y-80460100D01*
X140762800Y-119314000D02*
X140951600Y-119125200D01*
X140762800Y-120683200D02*
X140762800Y-119314000D01*
X140200000Y-121246000D02*
X140762800Y-120683200D01*
D33*
X140200000Y-121246000D02*
X140239500Y-121285500D01*
X140239500Y-121285500D02*
X140279000Y-121325000D01*
D32*
X140095000Y-121430000D02*
X140095000Y-123306000D01*
X140239500Y-121285500D02*
X140095000Y-121430000D01*
%TO.N,/AD2*%
X127952200Y-94017000D02*
X129154000Y-94017000D01*
X128086000Y-123308000D02*
X128086000Y-120127900D01*
X131826100Y-116387800D02*
X128086000Y-120127900D01*
X133170800Y-116387800D02*
X131826100Y-116387800D01*
X131902000Y-94821000D02*
X131902000Y-94694600D01*
X129431500Y-94294500D02*
X129154000Y-94017000D01*
X131389500Y-94294500D02*
X129431500Y-94294500D01*
X131789600Y-94694600D02*
X131389500Y-94294500D01*
X131902000Y-94694600D02*
X131789600Y-94694600D01*
X149957300Y-88931000D02*
X151019900Y-88931000D01*
X149773500Y-88747200D02*
X149957300Y-88931000D01*
X132668900Y-94694600D02*
X131902000Y-94694600D01*
X138954800Y-88408700D02*
X132668900Y-94694600D01*
X138954800Y-88250100D02*
X138954800Y-88408700D01*
X139346800Y-87858100D02*
X138954800Y-88250100D01*
X139802500Y-87858100D02*
X139346800Y-87858100D01*
X140279200Y-88334800D02*
X139802500Y-87858100D01*
X149361100Y-88334800D02*
X140279200Y-88334800D01*
X149773500Y-88747200D02*
X149361100Y-88334800D01*
D33*
%TO.N,/AD9*%
X138612500Y-121166500D02*
X138692000Y-121246000D01*
D32*
X138588000Y-121191000D02*
X138588000Y-123306000D01*
X138612500Y-121166500D02*
X138588000Y-121191000D01*
X152355000Y-89431000D02*
X152622000Y-89698000D01*
X151019900Y-89431000D02*
X152355000Y-89431000D01*
X153823800Y-89698000D02*
X152622000Y-89698000D01*
D33*
X138533000Y-121087000D02*
X138612500Y-121166500D01*
D32*
X140704100Y-80060700D02*
X140522800Y-80242000D01*
X142170500Y-80060700D02*
X140704100Y-80060700D01*
X143213000Y-79018200D02*
X142170500Y-80060700D01*
X143213000Y-77302000D02*
X143213000Y-79018200D01*
X150987900Y-89399000D02*
X151019900Y-89431000D01*
X149635100Y-89399000D02*
X150987900Y-89399000D01*
X149394900Y-89158800D02*
X149635100Y-89399000D01*
X148706800Y-89158800D02*
X149394900Y-89158800D01*
X148360000Y-89505600D02*
X148706800Y-89158800D01*
X145545900Y-89505600D02*
X148360000Y-89505600D01*
X140349000Y-89304700D02*
X140199000Y-89454700D01*
X145345000Y-89304700D02*
X140349000Y-89304700D01*
X145545900Y-89505600D02*
X145345000Y-89304700D01*
X139661900Y-120082300D02*
X140199000Y-119545200D01*
X139414700Y-120082300D02*
X139661900Y-120082300D01*
X138533000Y-120964000D02*
X139414700Y-120082300D01*
X138533000Y-121087000D02*
X138533000Y-120964000D01*
D33*
%TO.N,/AD1*%
X126448000Y-121265500D02*
X126349000Y-121365000D01*
D32*
X126579000Y-121396500D02*
X126579000Y-123298000D01*
X126448000Y-121265500D02*
X126579000Y-121396500D01*
X127952200Y-95287000D02*
X129154000Y-95287000D01*
X150013600Y-89799100D02*
X149153800Y-89799100D01*
X150145500Y-89931000D02*
X150013600Y-89799100D01*
X151019900Y-89931000D02*
X150145500Y-89931000D01*
X149153800Y-89756500D02*
X149153800Y-89799100D01*
X129699500Y-95832500D02*
X129154000Y-95287000D01*
X133386900Y-95832500D02*
X129699500Y-95832500D01*
X138814400Y-90405000D02*
X133386900Y-95832500D01*
X148547900Y-90405000D02*
X138814400Y-90405000D01*
X149153800Y-89799100D02*
X148547900Y-90405000D01*
D33*
X126547000Y-121166000D02*
X126448000Y-121265500D01*
D32*
X127952200Y-95287000D02*
X126750400Y-95287000D01*
X126406200Y-95631200D02*
X124210700Y-95631200D01*
X126750400Y-95287000D02*
X126406200Y-95631200D01*
X126999400Y-120713600D02*
X126547000Y-121166000D01*
X126999400Y-118824100D02*
X126999400Y-120713600D01*
X124721000Y-116545700D02*
X126999400Y-118824100D01*
X124439900Y-116545700D02*
X124721000Y-116545700D01*
%TO.N,/AD8*%
X151019900Y-90431000D02*
X151923300Y-90431000D01*
D33*
X136910700Y-121121300D02*
X136866000Y-121166000D01*
D32*
X137081000Y-121291600D02*
X137081000Y-123306000D01*
X136910700Y-121121300D02*
X137081000Y-121291600D01*
X153823800Y-88428000D02*
X153189000Y-88428000D01*
X143506600Y-79903400D02*
X143146500Y-79903400D01*
X144599000Y-78811000D02*
X143506600Y-79903400D01*
X152180000Y-90687700D02*
X152180000Y-90883600D01*
X151923300Y-90431000D02*
X152180000Y-90687700D01*
X153824000Y-88428000D02*
X153823800Y-88428000D01*
D33*
X136985000Y-121047000D02*
X136910700Y-121121300D01*
D32*
X155025600Y-97730500D02*
X155025600Y-91534900D01*
X154735000Y-98021100D02*
X155025600Y-97730500D01*
X152484800Y-98021100D02*
X154735000Y-98021100D01*
X152465600Y-98040300D02*
X152484800Y-98021100D01*
X148496400Y-98040300D02*
X152465600Y-98040300D01*
X155433100Y-91127400D02*
X155025600Y-91534900D01*
X155433100Y-89122900D02*
X155433100Y-91127400D01*
X154738200Y-88428000D02*
X155433100Y-89122900D01*
X153824000Y-88428000D02*
X154738200Y-88428000D01*
X152180000Y-90949600D02*
X152180000Y-90883600D01*
X152765300Y-91534900D02*
X152180000Y-90949600D01*
X155025600Y-91534900D02*
X152765300Y-91534900D01*
X139956900Y-118075100D02*
X136985000Y-121047000D01*
X146540000Y-118075100D02*
X139956900Y-118075100D01*
D33*
%TO.N,/AD0*%
X125084000Y-121360000D02*
X125079000Y-121365000D01*
D32*
X125084000Y-121360000D02*
X125084000Y-123298000D01*
D33*
X125317000Y-121127000D02*
X125200500Y-121243500D01*
X125200500Y-121243500D02*
X125084000Y-121360000D01*
D32*
X127952200Y-96557000D02*
X126750400Y-96557000D01*
X125200500Y-120061700D02*
X125311500Y-119950700D01*
X125200500Y-121243500D02*
X125200500Y-120061700D01*
X126639100Y-96445700D02*
X124961400Y-96445700D01*
X126750400Y-96557000D02*
X126639100Y-96445700D01*
X133228200Y-96557000D02*
X127952200Y-96557000D01*
X138960600Y-90824600D02*
X133228200Y-96557000D01*
X149785700Y-90824600D02*
X138960600Y-90824600D01*
X149892100Y-90931000D02*
X149785700Y-90824600D01*
X151019900Y-90931000D02*
X149892100Y-90931000D01*
X149785700Y-90824600D02*
X149785700Y-90349200D01*
D33*
%TO.N,/Read_Bottom*%
X121864000Y-121325500D02*
X121666000Y-121524000D01*
D32*
X122086000Y-121547500D02*
X122086000Y-123298000D01*
X121864000Y-121325500D02*
X122086000Y-121547500D01*
X149137800Y-110459000D02*
X147834400Y-110459000D01*
D33*
X122062000Y-121127000D02*
X121864000Y-121325500D01*
D32*
X122062000Y-120565800D02*
X122062000Y-121127000D01*
X123629600Y-118998200D02*
X122062000Y-120565800D01*
X126394100Y-118998200D02*
X123629600Y-118998200D01*
X149961300Y-91431000D02*
X151019900Y-91431000D01*
X148240200Y-93152100D02*
X149961300Y-91431000D01*
X147230100Y-93152100D02*
X148240200Y-93152100D01*
X147158700Y-93080700D02*
X147230100Y-93152100D01*
X142447100Y-93080700D02*
X147158700Y-93080700D01*
X142351700Y-93176100D02*
X142447100Y-93080700D01*
X147258300Y-109882900D02*
X146681200Y-109882900D01*
X147834400Y-110459000D02*
X147258300Y-109882900D01*
%TO.N,/SST.A0*%
X127569200Y-84603200D02*
X126799200Y-84603200D01*
X151019900Y-93300300D02*
X149781500Y-94538700D01*
X151019900Y-92931000D02*
X151019900Y-93300300D01*
X126612100Y-84790300D02*
X126799200Y-84603200D01*
X126612100Y-87019200D02*
X126612100Y-84790300D01*
X124432800Y-89198500D02*
X126612100Y-87019200D01*
X124432800Y-90548300D02*
X124432800Y-89198500D01*
X122670400Y-92310700D02*
X124432800Y-90548300D01*
X122670400Y-92773500D02*
X122670400Y-92310700D01*
X124617100Y-94720200D02*
X122670400Y-92773500D01*
X130758000Y-94720200D02*
X124617100Y-94720200D01*
X131428500Y-95390700D02*
X130758000Y-94720200D01*
X133262900Y-95390700D02*
X131428500Y-95390700D01*
X138648700Y-90004900D02*
X133262900Y-95390700D01*
X143965400Y-90004900D02*
X138648700Y-90004900D01*
X144115500Y-89854800D02*
X143965400Y-90004900D01*
%TO.N,/SST.A1*%
X127569200Y-83816000D02*
X128339200Y-83816000D01*
X131322200Y-92931000D02*
X132225600Y-92931000D01*
X128542900Y-83612300D02*
X129200500Y-83612300D01*
X128339200Y-83816000D02*
X128542900Y-83612300D01*
X132325200Y-92931000D02*
X132394600Y-92861600D01*
X132225600Y-92931000D02*
X132325200Y-92931000D01*
%TO.N,/SST.A2*%
X132483500Y-91979800D02*
X132483500Y-91729100D01*
X132032300Y-92431000D02*
X132483500Y-91979800D01*
X131322200Y-92431000D02*
X132032300Y-92431000D01*
X129185800Y-83016000D02*
X129295000Y-82906800D01*
X127569200Y-83016000D02*
X129185800Y-83016000D01*
%TO.N,/SST.A3*%
X131322200Y-91931000D02*
X130418900Y-91931000D01*
X130418900Y-92132900D02*
X130254900Y-92296900D01*
X130418900Y-91931000D02*
X130418900Y-92132900D01*
X127569200Y-82216400D02*
X128506900Y-82216400D01*
%TO.N,/SST.A4*%
X123052800Y-81499200D02*
X125724800Y-81499200D01*
X122821200Y-81730800D02*
X123052800Y-81499200D01*
X122821200Y-82500800D02*
X122821200Y-81730800D01*
X131322200Y-91431000D02*
X129950500Y-91431000D01*
%TO.N,/SST.A5*%
X131322200Y-90931000D02*
X132225600Y-90931000D01*
X122034000Y-82500800D02*
X122034000Y-81730800D01*
X122865100Y-80899700D02*
X128078800Y-80899700D01*
X122034000Y-81730800D02*
X122865100Y-80899700D01*
X132473100Y-90683500D02*
X132473100Y-87534600D01*
X132225600Y-90931000D02*
X132473100Y-90683500D01*
%TO.N,/SST.A6*%
X121234000Y-82500800D02*
X121234000Y-83270800D01*
X120214600Y-83270800D02*
X119724500Y-83760900D01*
X121234000Y-83270800D02*
X120214600Y-83270800D01*
X124928100Y-90830900D02*
X123253200Y-92505800D01*
X129399900Y-90830900D02*
X124928100Y-90830900D01*
X129799800Y-90431000D02*
X129399900Y-90830900D01*
X131322200Y-90431000D02*
X129799800Y-90431000D01*
%TO.N,/SST.A7*%
X120434400Y-82500800D02*
X120434400Y-81730800D01*
X120225600Y-81730800D02*
X120067200Y-81572400D01*
X120434400Y-81730800D02*
X120225600Y-81730800D01*
X125254000Y-89515600D02*
X125091100Y-89352700D01*
X128916300Y-89515600D02*
X125254000Y-89515600D01*
X129331700Y-89931000D02*
X128916300Y-89515600D01*
X131322200Y-89931000D02*
X129331700Y-89931000D01*
%TO.N,/Write*%
X132984100Y-86431000D02*
X131322200Y-86431000D01*
X133668800Y-87115700D02*
X132984100Y-86431000D01*
X120579000Y-123298000D02*
X120579000Y-120117900D01*
X143441000Y-116189200D02*
X136348200Y-116189200D01*
X144769000Y-114861200D02*
X143441000Y-116189200D01*
X144769000Y-114209500D02*
X144769000Y-114861200D01*
X144769000Y-114209500D02*
X144769000Y-113557800D01*
X162472900Y-76060100D02*
X161230100Y-77302900D01*
X165919000Y-76060100D02*
X162472900Y-76060100D01*
X144769000Y-113557800D02*
X144769000Y-112254400D01*
X150333900Y-111136700D02*
X150851800Y-110618800D01*
X144848500Y-111136700D02*
X150333900Y-111136700D01*
X144453700Y-111531500D02*
X144848500Y-111136700D01*
X144453700Y-111939100D02*
X144453700Y-111531500D01*
X144769000Y-112254400D02*
X144453700Y-111939100D01*
X120579000Y-119628700D02*
X120579000Y-120117900D01*
X124370000Y-115837700D02*
X120579000Y-119628700D01*
X133542900Y-115837700D02*
X124370000Y-115837700D01*
X133894400Y-116189200D02*
X133542900Y-115837700D01*
X136348200Y-116189200D02*
X133894400Y-116189200D01*
%TO.N,/SST.A8*%
X130228900Y-84931000D02*
X131322200Y-84931000D01*
X161091900Y-81362700D02*
X156836300Y-81362700D01*
X162467800Y-82738600D02*
X161091900Y-81362700D01*
X162467800Y-83099800D02*
X162467800Y-82738600D01*
X145571700Y-86821200D02*
X146264300Y-86821200D01*
X144612600Y-85862100D02*
X145571700Y-86821200D01*
X143523800Y-85862100D02*
X144612600Y-85862100D01*
X142982700Y-86403200D02*
X143523800Y-85862100D01*
X141460000Y-86403200D02*
X142982700Y-86403200D01*
X141046100Y-85989300D02*
X141460000Y-86403200D01*
X140590400Y-85989300D02*
X141046100Y-85989300D01*
X140405100Y-86174600D02*
X140590400Y-85989300D01*
X139812700Y-86174600D02*
X140405100Y-86174600D01*
X135909200Y-90078100D02*
X139812700Y-86174600D01*
%TO.N,/SST.A9*%
X161680600Y-82735700D02*
X161680600Y-83099800D01*
X161274600Y-82329700D02*
X161680600Y-82735700D01*
X156415300Y-82329700D02*
X161274600Y-82329700D01*
X154138700Y-80053100D02*
X156415300Y-82329700D01*
X147010000Y-80053100D02*
X154138700Y-80053100D01*
X146829300Y-79872400D02*
X147010000Y-80053100D01*
X145285000Y-79872400D02*
X146829300Y-79872400D01*
X144996700Y-80160700D02*
X145285000Y-79872400D01*
X143815200Y-80160700D02*
X144996700Y-80160700D01*
X143515100Y-80460800D02*
X143815200Y-80160700D01*
X141798000Y-80460800D02*
X143515100Y-80460800D01*
X141248600Y-81010200D02*
X141798000Y-80460800D01*
X134010200Y-81010200D02*
X141248600Y-81010200D01*
X133924600Y-80924600D02*
X134010200Y-81010200D01*
X130637700Y-80924600D02*
X133924600Y-80924600D01*
X130388900Y-81173400D02*
X130637700Y-80924600D01*
X130388900Y-84211000D02*
X130388900Y-81173400D01*
X130608900Y-84431000D02*
X130388900Y-84211000D01*
X131322200Y-84431000D02*
X130608900Y-84431000D01*
%TO.N,/SST.A10*%
X160880600Y-83099800D02*
X160880600Y-83869800D01*
X134909400Y-83530900D02*
X137235300Y-83530900D01*
X134509300Y-83931000D02*
X134909400Y-83530900D01*
X131322200Y-83931000D02*
X134509300Y-83931000D01*
X160880600Y-83869800D02*
X159401600Y-83869800D01*
X140550900Y-87262500D02*
X140415300Y-87126900D01*
X143768800Y-87262500D02*
X140550900Y-87262500D01*
X144219000Y-86812300D02*
X143768800Y-87262500D01*
%TO.N,/SST.A11*%
X160081000Y-83099800D02*
X158720400Y-83099800D01*
X140071000Y-88904600D02*
X139574600Y-88408200D01*
X147879900Y-88904600D02*
X140071000Y-88904600D01*
X134181400Y-83431000D02*
X134389300Y-83223100D01*
X131322200Y-83431000D02*
X134181400Y-83431000D01*
%TO.N,/SST.A12*%
X155110800Y-82964600D02*
X154340800Y-82964600D01*
X131322200Y-82931000D02*
X132225600Y-82931000D01*
X133903400Y-82931000D02*
X132225600Y-82931000D01*
X134161500Y-82672900D02*
X133903400Y-82931000D01*
X141849100Y-82672900D02*
X134161500Y-82672900D01*
X142460800Y-82061200D02*
X141849100Y-82672900D01*
X146306500Y-82061200D02*
X142460800Y-82061200D01*
X147511900Y-80855800D02*
X146306500Y-82061200D01*
X152232000Y-80855800D02*
X147511900Y-80855800D01*
X154340800Y-82964600D02*
X152232000Y-80855800D01*
%TO.N,/SST.A13*%
X155110800Y-83751800D02*
X155880800Y-83751800D01*
X131322200Y-82431000D02*
X132225600Y-82431000D01*
X132383800Y-82272800D02*
X132225600Y-82431000D01*
X141683400Y-82272800D02*
X132383800Y-82272800D01*
X142295100Y-81661100D02*
X141683400Y-82272800D01*
X146140700Y-81661100D02*
X142295100Y-81661100D01*
X147346100Y-80455700D02*
X146140700Y-81661100D01*
X153774600Y-80455700D02*
X147346100Y-80455700D01*
X155880800Y-82561900D02*
X153774600Y-80455700D01*
X155880800Y-83751800D02*
X155880800Y-82561900D01*
%TO.N,/SST.A14*%
X155110800Y-84551800D02*
X154340800Y-84551800D01*
X154279800Y-84612800D02*
X152862300Y-84612800D01*
X154340800Y-84551800D02*
X154279800Y-84612800D01*
X131380500Y-81872700D02*
X131322200Y-81931000D01*
X141517700Y-81872700D02*
X131380500Y-81872700D01*
X142129400Y-81261000D02*
X141517700Y-81872700D01*
X145762900Y-81261000D02*
X142129400Y-81261000D01*
X146601400Y-80422500D02*
X145762900Y-81261000D01*
%TO.N,/SST.A15*%
X131322200Y-81431000D02*
X132225600Y-81431000D01*
X141393600Y-81431000D02*
X132225600Y-81431000D01*
X141963700Y-80860900D02*
X141393600Y-81431000D01*
X143892900Y-80860900D02*
X141963700Y-80860900D01*
X144043000Y-80710800D02*
X143892900Y-80860900D01*
X155110800Y-85351400D02*
X153412400Y-85351400D01*
%TO.N,/Switch*%
X152538000Y-101688100D02*
X151690200Y-100840300D01*
X152538000Y-101839000D02*
X152538000Y-101688100D01*
X151148900Y-100299000D02*
X149137800Y-100299000D01*
X151690200Y-100840300D02*
X151148900Y-100299000D01*
%TO.N,/245.OE*%
X166011700Y-88428000D02*
X163374200Y-88428000D01*
X166554300Y-87885400D02*
X166011700Y-88428000D01*
X143411000Y-95115700D02*
X143411000Y-94653000D01*
X142879400Y-95647300D02*
X143411000Y-95115700D01*
X142879400Y-98339000D02*
X142879400Y-95647300D01*
X143222100Y-98681700D02*
X142879400Y-98339000D01*
X144530600Y-98681700D02*
X143222100Y-98681700D01*
X118401800Y-96557000D02*
X119603600Y-96557000D01*
X150847900Y-100932000D02*
X151615100Y-101699200D01*
X146615000Y-100932000D02*
X150847900Y-100932000D01*
X146509700Y-101037300D02*
X146615000Y-100932000D01*
X138975800Y-103357000D02*
X144501400Y-103357000D01*
X135052500Y-107280300D02*
X138975800Y-103357000D01*
X129328500Y-107280300D02*
X135052500Y-107280300D01*
X129091800Y-107517000D02*
X129328500Y-107280300D01*
X128539800Y-107517000D02*
X129091800Y-107517000D01*
X128103900Y-107081100D02*
X128539800Y-107517000D01*
X128103900Y-103910400D02*
X128103900Y-107081100D01*
X131106100Y-100908200D02*
X128103900Y-103910400D01*
X133939400Y-100908200D02*
X131106100Y-100908200D01*
X134083700Y-100763900D02*
X133939400Y-100908200D01*
X134083700Y-99872000D02*
X134083700Y-100763900D01*
X133833000Y-99621300D02*
X134083700Y-99872000D01*
X131339200Y-99621300D02*
X133833000Y-99621300D01*
X128978100Y-97260200D02*
X131339200Y-99621300D01*
X120306800Y-97260200D02*
X128978100Y-97260200D01*
X119603600Y-96557000D02*
X120306800Y-97260200D01*
%TO.N,/245.OE.Altera*%
X143817200Y-95896800D02*
X143499000Y-95896800D01*
X145061000Y-94653000D02*
X143817200Y-95896800D01*
X143499000Y-97200200D02*
X143499000Y-95896800D01*
%TO.N,/Read_Top*%
X146918600Y-91971600D02*
X147486900Y-91403300D01*
X139995000Y-91971600D02*
X146918600Y-91971600D01*
X137888000Y-94078600D02*
X139995000Y-91971600D01*
X137888000Y-94283000D02*
X137888000Y-94078600D01*
%TO.N,/Rd.Top.Altera*%
X139538000Y-95745800D02*
X139689000Y-95896800D01*
X139538000Y-94283000D02*
X139538000Y-95745800D01*
X139689000Y-97200200D02*
X139689000Y-95896800D01*
%TO.N,/SST.CE.Altera*%
X145021200Y-95896800D02*
X144769000Y-95896800D01*
X146190000Y-94728000D02*
X145021200Y-95896800D01*
X146190000Y-94693000D02*
X146190000Y-94728000D01*
X144769000Y-97200200D02*
X144769000Y-95896800D01*
%TO.N,/SST.CE*%
X150328100Y-92431000D02*
X151019900Y-92431000D01*
X150001300Y-92757800D02*
X150328100Y-92431000D01*
X150001300Y-93507100D02*
X150001300Y-92757800D01*
X148815400Y-94693000D02*
X150001300Y-93507100D01*
X147840000Y-94693000D02*
X148815400Y-94693000D01*
%TO.N,/GND*%
X153823800Y-98588000D02*
X153824000Y-98588000D01*
D33*
X151020000Y-91931000D02*
X151019900Y-91931000D01*
X149175000Y-92883900D02*
X149175000Y-93285400D01*
X150128000Y-91931000D02*
X149175000Y-92883900D01*
X151019900Y-91931000D02*
X150128000Y-91931000D01*
X149175000Y-93285400D02*
X149175000Y-93687000D01*
D32*
X153486000Y-98588000D02*
X153823800Y-98588000D01*
D34*
X131240000Y-107919000D02*
X131098000Y-108061000D01*
X132780200Y-107919000D02*
X131240000Y-107919000D01*
X149864500Y-99029000D02*
X150591200Y-99029000D01*
X149689500Y-107919000D02*
X150591200Y-107919000D01*
D33*
X151020000Y-82170200D02*
X151020000Y-82300600D01*
X151020000Y-82300600D02*
X151020000Y-82431000D01*
D34*
X151019900Y-82300700D02*
X151019900Y-82341000D01*
X151020000Y-82300600D02*
X151019900Y-82300700D01*
D35*
X151019900Y-82341000D02*
X151019900Y-82431000D01*
D33*
X131322000Y-85431000D02*
X131322000Y-85556000D01*
D35*
X131322200Y-85521000D02*
X131322200Y-85431000D01*
D34*
X149137800Y-99029000D02*
X149864500Y-99029000D01*
X137149000Y-113557800D02*
X137149000Y-112104400D01*
X131322200Y-88898500D02*
X131322200Y-88931000D01*
X131322000Y-88898300D02*
X131322200Y-88898500D01*
D33*
X131322000Y-85930800D02*
X131322000Y-85931000D01*
D35*
X131322000Y-85930800D02*
X131322200Y-85931000D01*
D34*
X131322200Y-85555800D02*
X131322200Y-85521000D01*
X131322000Y-85556000D02*
X131322200Y-85555800D01*
D33*
X151020000Y-81431000D02*
X151020000Y-81800600D01*
X151020000Y-81800600D02*
X151020000Y-82170200D01*
D34*
X151019900Y-81800500D02*
X151019900Y-81431000D01*
X151020000Y-81800600D02*
X151019900Y-81800500D01*
D33*
X131322000Y-86931000D02*
X131322000Y-86931200D01*
D35*
X131322000Y-86931200D02*
X131322200Y-86931000D01*
D34*
X149689500Y-107919000D02*
X149137800Y-107919000D01*
D33*
X131322000Y-85556000D02*
X131322000Y-85930800D01*
X131322000Y-88898300D02*
X131322000Y-89164600D01*
X131322000Y-89164600D02*
X131322000Y-89431000D01*
D34*
X131322200Y-89164800D02*
X131322200Y-89341000D01*
X131322000Y-89164600D02*
X131322200Y-89164800D01*
D35*
X131322200Y-89341000D02*
X131322200Y-89431000D01*
D34*
X132780200Y-107919000D02*
X134233600Y-107919000D01*
X137149000Y-112104400D02*
X137149000Y-108033000D01*
X134347600Y-108033000D02*
X134233600Y-107919000D01*
X137149000Y-108033000D02*
X134347600Y-108033000D01*
X149137800Y-107919000D02*
X147684400Y-107919000D01*
X165876000Y-82390000D02*
X169568000Y-78698000D01*
X167862500Y-84376500D02*
X165876000Y-82390000D01*
X167862500Y-85902500D02*
X167862500Y-84376500D01*
X170027000Y-88067000D02*
X167862500Y-85902500D01*
X164875000Y-81389000D02*
X164396000Y-81389000D01*
X165876000Y-82390000D02*
X164875000Y-81389000D01*
X147570400Y-108033000D02*
X137149000Y-108033000D01*
X147684400Y-107919000D02*
X147570400Y-108033000D01*
X151020000Y-82170200D02*
X151019900Y-82170100D01*
X151019900Y-82170100D02*
X151019900Y-81931000D01*
X152500000Y-110148000D02*
X152500000Y-109175600D01*
X151243400Y-107919000D02*
X150591200Y-107919000D01*
X152500000Y-109175600D02*
X151243400Y-107919000D01*
D33*
X131322000Y-86931200D02*
X131322000Y-87110400D01*
D35*
X131232300Y-85841100D02*
X131322000Y-85930800D01*
D34*
X127952200Y-86397000D02*
X129304000Y-86397000D01*
X130236500Y-86397000D02*
X129304000Y-86397000D01*
X130236500Y-86763200D02*
X130236500Y-86397000D01*
X130583700Y-87110400D02*
X130236500Y-86763200D01*
X131322000Y-87110400D02*
X130583700Y-87110400D01*
X130521500Y-85841100D02*
X131232300Y-85841100D01*
X130236500Y-86126100D02*
X130521500Y-85841100D01*
X130236500Y-86397000D02*
X130236500Y-86126100D01*
D33*
X131322000Y-87110400D02*
X131322000Y-87469000D01*
D34*
X131322200Y-87468800D02*
X131322200Y-87431000D01*
X131322000Y-87469000D02*
X131322200Y-87468800D01*
D33*
X131322000Y-88407800D02*
X131322000Y-88898300D01*
D34*
X131322200Y-88408000D02*
X131322200Y-88431000D01*
X131322000Y-88407800D02*
X131322200Y-88408000D01*
X133697300Y-85521000D02*
X131322200Y-85521000D01*
X134982700Y-84235600D02*
X133697300Y-85521000D01*
X139250800Y-84235600D02*
X134982700Y-84235600D01*
X142279000Y-95696800D02*
X142229000Y-95746800D01*
X142279000Y-94621000D02*
X142279000Y-95696800D01*
X142229000Y-96473500D02*
X142229000Y-95746800D01*
X142229000Y-96473500D02*
X142229000Y-97200200D01*
X142229000Y-97200200D02*
X142229000Y-98653600D01*
X150210300Y-99409900D02*
X150591200Y-99029000D01*
X142985300Y-99409900D02*
X150210300Y-99409900D01*
X142229000Y-98653600D02*
X142985300Y-99409900D01*
X144179700Y-93725100D02*
X144179700Y-93783800D01*
X148735300Y-93725100D02*
X144179700Y-93725100D01*
X149175000Y-93285400D02*
X148735300Y-93725100D01*
X142279000Y-94376300D02*
X142279000Y-94621000D01*
X142930200Y-93725100D02*
X142279000Y-94376300D01*
X144179700Y-93725100D02*
X142930200Y-93725100D01*
X119566000Y-108068000D02*
X122384000Y-108068000D01*
X122384000Y-108068000D02*
X123711000Y-109395000D01*
X127088600Y-108146000D02*
X126466200Y-108768400D01*
X131013000Y-108146000D02*
X127088600Y-108146000D01*
X131098000Y-108061000D02*
X131013000Y-108146000D01*
X126466200Y-110211100D02*
X126473100Y-110218000D01*
X126466200Y-108768400D02*
X126466200Y-110211100D01*
D33*
X131945000Y-100330000D02*
X131954800Y-100320200D01*
D34*
X126466200Y-108768400D02*
X124553600Y-106855800D01*
X122384000Y-107651200D02*
X122384000Y-108068000D01*
X123179400Y-106855800D02*
X122384000Y-107651200D01*
X124553600Y-106855800D02*
X123179400Y-106855800D01*
X124553600Y-103193800D02*
X124553600Y-106855800D01*
X127427200Y-100320200D02*
X124553600Y-103193800D01*
X131954800Y-100320200D02*
X127427200Y-100320200D01*
D33*
X131954800Y-100320200D02*
X131969400Y-100305600D01*
X131969400Y-100305600D02*
X131984000Y-100291000D01*
D34*
X132773600Y-100305600D02*
X132780200Y-100299000D01*
X131969400Y-100305600D02*
X132773600Y-100305600D01*
X127427200Y-100320200D02*
X126393000Y-99286000D01*
X125848400Y-98741400D02*
X126393000Y-99286000D01*
X121442600Y-98741400D02*
X125848400Y-98741400D01*
X152678900Y-108996700D02*
X153265500Y-108996700D01*
X152500000Y-109175600D02*
X152678900Y-108996700D01*
X139947700Y-83538700D02*
X139250800Y-84235600D01*
X141761300Y-83538700D02*
X139947700Y-83538700D01*
X142688700Y-82611300D02*
X141761300Y-83538700D01*
X146546900Y-82611300D02*
X142688700Y-82611300D01*
X146988100Y-82170100D02*
X146546900Y-82611300D01*
X151019900Y-82170100D02*
X146988100Y-82170100D01*
D33*
X131322000Y-87469000D02*
X131322000Y-87938400D01*
X131322000Y-87938400D02*
X131322000Y-88407800D01*
D34*
X131322200Y-87938200D02*
X131322200Y-87931000D01*
X131322000Y-87938400D02*
X131322200Y-87938200D01*
X150972100Y-99409900D02*
X152592000Y-99409900D01*
X150591200Y-99029000D02*
X150972100Y-99409900D01*
X152592000Y-99409900D02*
X152592000Y-100336000D01*
X152664100Y-99409900D02*
X153486000Y-98588000D01*
X152592000Y-99409900D02*
X152664100Y-99409900D01*
X155742300Y-99154700D02*
X155175600Y-98588000D01*
X157114000Y-99154700D02*
X155742300Y-99154700D01*
X153824000Y-98588000D02*
X155175600Y-98588000D01*
X164120100Y-119974900D02*
X164280000Y-119974900D01*
X163960000Y-119814800D02*
X164120100Y-119974900D01*
X164280000Y-123305000D02*
X164280000Y-119974900D01*
D32*
%TO.N,/Const_Low*%
X140959000Y-113557800D02*
X140959000Y-114861200D01*
X125968900Y-111343600D02*
X124488300Y-109863000D01*
X127910300Y-111343600D02*
X125968900Y-111343600D01*
X128895000Y-112328300D02*
X127910300Y-111343600D01*
X134009700Y-112328300D02*
X128895000Y-112328300D01*
X134091800Y-112246200D02*
X134009700Y-112328300D01*
X136318300Y-112246200D02*
X134091800Y-112246200D01*
X136556700Y-112484600D02*
X136318300Y-112246200D01*
X136556700Y-114710900D02*
X136556700Y-112484600D01*
X136707000Y-114861200D02*
X136556700Y-114710900D01*
X140959000Y-114861200D02*
X136707000Y-114861200D01*
X124488300Y-108522300D02*
X124488300Y-109863000D01*
X123711000Y-107745000D02*
X124488300Y-108522300D01*
X124060300Y-110291000D02*
X122754000Y-110291000D01*
X124488300Y-109863000D02*
X124060300Y-110291000D01*
%TO.N,/REQ*%
X161272000Y-118801700D02*
X161272000Y-111600000D01*
X162582000Y-120111700D02*
X161272000Y-118801700D01*
X162582000Y-123305000D02*
X162582000Y-120111700D01*
X161272000Y-118801700D02*
X161209300Y-118801700D01*
D35*
%TO.N,/VCC*%
X151020000Y-86931000D02*
X151019900Y-86931000D01*
D34*
X127952200Y-99276800D02*
X127952200Y-97827000D01*
X127943000Y-99286000D02*
X127952200Y-99276800D01*
X163374200Y-87158000D02*
X164726000Y-87158000D01*
X164372800Y-82939000D02*
X164396000Y-82939000D01*
X164726000Y-86617800D02*
X164726000Y-87158000D01*
X164372800Y-86264600D02*
X164726000Y-86617800D01*
X164372800Y-82939000D02*
X164372800Y-86264600D01*
X118016000Y-98212800D02*
X118016000Y-108068000D01*
X118401800Y-97827000D02*
X118016000Y-98212800D01*
X121789000Y-111841000D02*
X122754000Y-111841000D01*
X118016000Y-108068000D02*
X121789000Y-111841000D01*
D32*
X153597000Y-86931000D02*
X153823800Y-87157800D01*
X151020000Y-86931000D02*
X153597000Y-86931000D01*
X153823800Y-87157800D02*
X153824000Y-87158000D01*
D34*
X153823800Y-87157800D02*
X153823800Y-87158000D01*
X149137800Y-101569000D02*
X150591200Y-101569000D01*
X154188000Y-102769700D02*
X154188000Y-101839000D01*
X140959000Y-94851000D02*
X140959000Y-97200200D01*
X140729000Y-94621000D02*
X140959000Y-94851000D01*
X140959000Y-97200200D02*
X140959000Y-98653600D01*
X118401800Y-97827000D02*
X119753600Y-97827000D01*
X127952200Y-97827000D02*
X126600400Y-97827000D01*
X149137800Y-101569000D02*
X147684400Y-101569000D01*
X164245000Y-79416100D02*
X164245000Y-77303000D01*
X163443800Y-80217300D02*
X164245000Y-79416100D01*
X163443800Y-82010000D02*
X163443800Y-80217300D01*
X164372800Y-82939000D02*
X163443800Y-82010000D01*
X117389000Y-123302000D02*
X117389000Y-119971900D01*
X119753600Y-97827000D02*
X126600400Y-97827000D01*
D33*
X154011000Y-100212000D02*
X154031000Y-100192000D01*
X154031000Y-100192000D02*
X154051000Y-100172000D01*
D34*
X154142000Y-100303000D02*
X154142000Y-100336000D01*
X154031000Y-100192000D02*
X154142000Y-100303000D01*
X131098000Y-106580000D02*
X131098000Y-106511000D01*
X131167000Y-106649000D02*
X131098000Y-106580000D01*
X132780200Y-106649000D02*
X131167000Y-106649000D01*
X143499000Y-113557800D02*
X143499000Y-115011200D01*
X122754000Y-111841000D02*
X122754000Y-115104000D01*
X117886100Y-119971900D02*
X117389000Y-119971900D01*
X122754000Y-115104000D02*
X117886100Y-119971900D01*
X133587200Y-115104000D02*
X122754000Y-115104000D01*
X133910900Y-115427700D02*
X133587200Y-115104000D01*
X143082500Y-115427700D02*
X133910900Y-115427700D01*
X143499000Y-115011200D02*
X143082500Y-115427700D01*
X141562100Y-101737400D02*
X140959000Y-101134300D01*
X147516000Y-101737400D02*
X141562100Y-101737400D01*
X147684400Y-101569000D02*
X147516000Y-101737400D01*
X140959000Y-101134300D02*
X140959000Y-98653600D01*
X153652600Y-111698000D02*
X158336300Y-107014300D01*
X152500000Y-111698000D02*
X153652600Y-111698000D01*
X161272000Y-109950000D02*
X158336300Y-107014300D01*
X158336300Y-106918000D02*
X154188000Y-102769700D01*
X158336300Y-107014300D02*
X158336300Y-106918000D01*
X129038700Y-106580000D02*
X128844500Y-106774200D01*
X131098000Y-106580000D02*
X129038700Y-106580000D01*
X122979300Y-112066300D02*
X126392900Y-112066300D01*
X122754000Y-111841000D02*
X122979300Y-112066300D01*
X154376900Y-87158000D02*
X153824000Y-87158000D01*
X156671100Y-89452200D02*
X154376900Y-87158000D01*
X156671100Y-90006500D02*
X156671100Y-89452200D01*
X151695400Y-102769700D02*
X154188000Y-102769700D01*
X150591200Y-101665500D02*
X151695400Y-102769700D01*
X150591200Y-101569000D02*
X150591200Y-101665500D01*
X134233600Y-106256200D02*
X134233600Y-106649000D01*
X139355500Y-101134300D02*
X134233600Y-106256200D01*
X140959000Y-101134300D02*
X139355500Y-101134300D01*
X132780200Y-106649000D02*
X134233600Y-106649000D01*
X156671100Y-96365700D02*
X156671100Y-90006500D01*
X157964100Y-97658700D02*
X156671100Y-96365700D01*
X157964100Y-99554000D02*
X157964100Y-97658700D01*
X156860700Y-100657400D02*
X157964100Y-99554000D01*
X154463400Y-100657400D02*
X156860700Y-100657400D01*
X154142000Y-100336000D02*
X154463400Y-100657400D01*
X154463400Y-101563600D02*
X154188000Y-101839000D01*
X154463400Y-100657400D02*
X154463400Y-101563600D01*
%TD*%
M02*
