M48
; DRILL file {KiCad (6.0.2)} date Sat Aug  6 21:19:02 2022
; FORMAT={-:-/ absolute / metric / decimal}
; #@! TF.CreationDate,2022-08-06T21:19:02-05:00
; #@! TF.GenerationSoftware,Kicad,Pcbnew,(6.0.2)
; #@! TF.FileFunction,Plated,1,2,PTH
FMAT,2
METRIC
; #@! TA.AperFunction,Plated,PTH,ViaDrill
T1C0.300
; #@! TA.AperFunction,Plated,PTH,ViaDrill
T2C0.400
; #@! TA.AperFunction,Plated,PTH,ComponentDrill
T3C0.800
; #@! TA.AperFunction,Plated,PTH,ComponentDrill
T4C1.200
; #@! TA.AperFunction,Plated,PTH,ComponentDrill
T5C1.400
; #@! TA.AperFunction,Plated,PTH,ComponentDrill
T6C2.300
; #@! TA.AperFunction,Plated,PTH,ComponentDrill
T7C4.250
%
G90
G05
T1
X119.154Y-119.938
X119.675Y-80.049
X119.724Y-83.761
X120.067Y-81.572
X120.098Y-86.155
X120.225Y-91.383
X121.084Y-85.739
X121.192Y-87.348
X122.188Y-87.873
X123.253Y-92.506
X123.477Y-119.954
X123.609Y-113.356
X123.923Y-87.799
X124.211Y-95.631
X124.44Y-116.546
X124.718Y-93.965
X124.961Y-96.446
X125.091Y-89.353
X125.136Y-90.226
X125.311Y-119.951
X125.503Y-85.557
X125.725Y-81.499
X126.394Y-118.998
X128.079Y-80.9
X128.507Y-82.216
X129.201Y-83.612
X129.295Y-82.907
X129.415Y-103.848
X129.6Y-111.36
X129.739Y-109.189
X129.943Y-80.516
X129.951Y-91.431
X130.222Y-88.905
X130.226Y-88.094
X130.229Y-84.931
X130.255Y-92.297
X130.312Y-111.556
X130.481Y-105.48
X130.799Y-119.974
X131.258Y-101.569
X131.845Y-120.024
X131.885Y-94.012
X131.902Y-94.821
X132.395Y-92.862
X132.473Y-87.535
X132.483Y-91.729
X133.171Y-116.388
X133.415Y-117.187
X133.539Y-88.854
X133.669Y-87.116
X134.026Y-90.12
X134.203Y-117.952
X134.389Y-83.223
X134.673Y-80.46
X135.671Y-119.411
X135.688Y-100.553
X135.879Y-98.695
X135.909Y-90.078
X136.151Y-105.329
X136.348Y-116.189
X136.549Y-106.649
X137.028Y-95.743
X137.235Y-83.531
X137.386Y-116.77
X138.1Y-108.868
X138.59Y-117.187
X138.964Y-98.623
X138.964Y-105.971
X139.161Y-112.149
X139.368Y-117.584
X139.496Y-119.343
X139.575Y-88.408
X139.649Y-111.37
X140.199Y-89.455
X140.199Y-119.545
X140.415Y-87.127
X140.523Y-80.242
X140.754Y-109.871
X140.818Y-86.539
X140.864Y-84.239
X140.952Y-119.125
X141.537Y-119.53
X142.352Y-93.176
X142.44Y-85.036
X143.147Y-79.903
X143.641Y-84.912
X144.043Y-80.711
X144.115Y-89.855
X144.219Y-86.812
X144.501Y-103.357
X144.531Y-98.682
X144.934Y-119.642
X145.053Y-111.729
X145.506Y-85.412
X145.546Y-89.506
X145.751Y-115.571
X146.023Y-95.694
X146.076Y-119.962
X146.197Y-91.421
X146.264Y-86.821
X146.51Y-101.037
X146.54Y-118.075
X146.601Y-80.422
X146.681Y-109.883
X146.978Y-115.081
X147.429Y-92.573
X147.487Y-91.403
X147.88Y-88.905
X147.913Y-119.856
X148.068Y-87.315
X148.071Y-114.492
X148.496Y-98.04
X148.517Y-119.438
X148.632Y-97.209
X148.731Y-83.507
X148.748Y-118.028
X149.154Y-89.757
X149.313Y-95.697
X149.5Y-112.915
X149.773Y-88.747
X149.781Y-94.539
X149.786Y-90.349
X149.844Y-87.945
X149.937Y-84.496
X150.727Y-95.222
X150.852Y-110.619
X151.074Y-97.076
X151.231Y-104.787
X151.615Y-101.699
X151.69Y-100.84
X151.89Y-94.051
X152.075Y-87.655
X152.094Y-86.154
X152.165Y-105.379
X152.18Y-90.884
X152.229Y-85.431
X152.273Y-96.875
X152.628Y-104.109
X152.862Y-84.613
X153.412Y-85.351
X153.447Y-103.475
X154.212Y-109.736
X154.212Y-119.961
X155.969Y-103.218
X155.969Y-105.971
X156.836Y-81.363
X158.72Y-83.1
X158.87Y-91.22
X159.402Y-83.87
X159.419Y-96.086
X159.616Y-90.038
X159.969Y-87.744
X161.209Y-118.802
X161.478Y-88.074
X161.575Y-90.502
X161.938Y-93.355
X165.161Y-87.744
X165.919Y-76.06
X166.554Y-87.885
T2
X121.443Y-98.741
X126.393Y-112.066
X128.844Y-106.774
X139.251Y-84.236
X144.18Y-93.784
X153.266Y-108.997
X156.671Y-90.007
X157.114Y-99.155
X163.96Y-119.815
T3
X126.473Y-110.218
X128.473Y-110.218
T4
X117.613Y-78.811
X119.117Y-77.304
X120.632Y-78.819
X122.139Y-77.304
X123.646Y-78.811
X125.153Y-77.304
X126.698Y-78.809
X128.249Y-77.306
X129.64Y-78.811
X131.184Y-77.301
X132.617Y-78.81
X134.162Y-77.302
X135.63Y-78.812
X137.178Y-77.304
X138.647Y-78.81
X140.192Y-77.303
X141.662Y-78.812
X143.213Y-77.302
X144.599Y-78.811
X146.149Y-77.303
X147.613Y-78.811
X149.165Y-77.303
X150.673Y-78.811
X152.222Y-77.304
X153.648Y-78.81
X155.198Y-77.303
X156.666Y-78.811
X158.212Y-77.303
X159.682Y-78.809
X161.23Y-77.303
X162.698Y-78.811
X164.245Y-77.303
T5
X169.54Y-81.722
X169.552Y-84.772
X169.568Y-78.698
X170.027Y-88.067
X170.038Y-75.501
T6
X115.831Y-85.035
X166.073Y-85.049
T7
X120.795Y-102.481
X161.043Y-102.433
T0
M30
