%TF.GenerationSoftware,KiCad,Pcbnew,(6.0.2)*%
%TF.CreationDate,2022-08-06T21:19:04-05:00*%
%TF.ProjectId,CP RSF,43502052-5346-42e6-9b69-6361645f7063,rev?*%
%TF.SameCoordinates,Original*%
%TF.FileFunction,Legend,Top*%
%TF.FilePolarity,Positive*%
%FSLAX46Y46*%
G04 Gerber Fmt 4.6, Leading zero omitted, Abs format (unit mm)*
G04 Created by KiCad (PCBNEW (6.0.2)) date 2022-08-06 21:19:04*
%MOMM*%
%LPD*%
G01*
G04 APERTURE LIST*
%ADD10C,0.120000*%
%ADD11C,0.100000*%
G04 APERTURE END LIST*
D10*
%TO.C,C4*%
X141363420Y-94111000D02*
X141644580Y-94111000D01*
X141363420Y-95131000D02*
X141644580Y-95131000D01*
%TO.C,U2*%
X162523300Y-86243600D02*
X154674700Y-86243600D01*
X154674700Y-86243600D02*
X154674700Y-86558560D01*
X154674700Y-99187440D02*
X154674700Y-99502400D01*
X162523300Y-86558560D02*
X162523300Y-86243600D01*
X162523300Y-99502400D02*
X162523300Y-99187440D01*
X154674700Y-99502400D02*
X162523300Y-99502400D01*
D11*
X152414100Y-98397500D02*
X152414100Y-98778500D01*
X152414100Y-98778500D02*
X152668100Y-98778500D01*
X152668100Y-98778500D02*
X152668100Y-98397500D01*
X152668100Y-98397500D02*
X152414100Y-98397500D01*
G36*
X152668100Y-98778500D02*
G01*
X152414100Y-98778500D01*
X152414100Y-98397500D01*
X152668100Y-98397500D01*
X152668100Y-98778500D01*
G37*
X152668100Y-98778500D02*
X152414100Y-98778500D01*
X152414100Y-98397500D01*
X152668100Y-98397500D01*
X152668100Y-98778500D01*
X164783900Y-86967500D02*
X164783900Y-87348500D01*
X164783900Y-87348500D02*
X164529900Y-87348500D01*
X164529900Y-87348500D02*
X164529900Y-86967500D01*
X164529900Y-86967500D02*
X164783900Y-86967500D01*
G36*
X164783900Y-87348500D02*
G01*
X164529900Y-87348500D01*
X164529900Y-86967500D01*
X164783900Y-86967500D01*
X164783900Y-87348500D01*
G37*
X164783900Y-87348500D02*
X164529900Y-87348500D01*
X164529900Y-86967500D01*
X164783900Y-86967500D01*
X164783900Y-87348500D01*
D10*
%TO.C,R5*%
X144473258Y-94130500D02*
X143998742Y-94130500D01*
X144473258Y-95175500D02*
X143998742Y-95175500D01*
%TO.C,C6*%
X131608000Y-107145420D02*
X131608000Y-107426580D01*
X130588000Y-107145420D02*
X130588000Y-107426580D01*
%TO.C,U3*%
X150543600Y-80958000D02*
X131798400Y-80958000D01*
X131798400Y-93404000D02*
X150543600Y-93404000D01*
D11*
X152131100Y-90240501D02*
X152131100Y-90621501D01*
X152131100Y-90621501D02*
X151877100Y-90621501D01*
X151877100Y-90621501D02*
X151877100Y-90240501D01*
X151877100Y-90240501D02*
X152131100Y-90240501D01*
G36*
X152131100Y-90621501D02*
G01*
X151877100Y-90621501D01*
X151877100Y-90240501D01*
X152131100Y-90240501D01*
X152131100Y-90621501D01*
G37*
X152131100Y-90621501D02*
X151877100Y-90621501D01*
X151877100Y-90240501D01*
X152131100Y-90240501D01*
X152131100Y-90621501D01*
X130210900Y-90740500D02*
X130210900Y-91121500D01*
X130210900Y-91121500D02*
X130464900Y-91121500D01*
X130464900Y-91121500D02*
X130464900Y-90740500D01*
X130464900Y-90740500D02*
X130210900Y-90740500D01*
G36*
X130464900Y-91121500D02*
G01*
X130210900Y-91121500D01*
X130210900Y-90740500D01*
X130464900Y-90740500D01*
X130464900Y-91121500D01*
G37*
X130464900Y-91121500D02*
X130210900Y-91121500D01*
X130210900Y-90740500D01*
X130464900Y-90740500D01*
X130464900Y-91121500D01*
X130210900Y-85740500D02*
X130210900Y-86121500D01*
X130210900Y-86121500D02*
X130464900Y-86121500D01*
X130464900Y-86121500D02*
X130464900Y-85740500D01*
X130464900Y-85740500D02*
X130210900Y-85740500D01*
G36*
X130464900Y-86121500D02*
G01*
X130210900Y-86121500D01*
X130210900Y-85740500D01*
X130464900Y-85740500D01*
X130464900Y-86121500D01*
G37*
X130464900Y-86121500D02*
X130210900Y-86121500D01*
X130210900Y-85740500D01*
X130464900Y-85740500D01*
X130464900Y-86121500D01*
X152131100Y-85240498D02*
X152131100Y-85621498D01*
X152131100Y-85621498D02*
X151877100Y-85621498D01*
X151877100Y-85621498D02*
X151877100Y-85240498D01*
X151877100Y-85240498D02*
X152131100Y-85240498D01*
G36*
X152131100Y-85621498D02*
G01*
X151877100Y-85621498D01*
X151877100Y-85240498D01*
X152131100Y-85240498D01*
X152131100Y-85621498D01*
G37*
X152131100Y-85621498D02*
X151877100Y-85621498D01*
X151877100Y-85240498D01*
X152131100Y-85240498D01*
X152131100Y-85621498D01*
D10*
%TO.C,C1*%
X123264000Y-111206580D02*
X123264000Y-110925420D01*
X122244000Y-111206580D02*
X122244000Y-110925420D01*
%TO.C,U4*%
X133984160Y-96920800D02*
X132500800Y-96920800D01*
X132500800Y-96920800D02*
X132500800Y-98404160D01*
X149417200Y-96920800D02*
X147933840Y-96920800D01*
X132500800Y-113837200D02*
X133984160Y-113837200D01*
X147933840Y-113837200D02*
X149417200Y-113837200D01*
X132500800Y-112353840D02*
X132500800Y-113837200D01*
X149417200Y-98404160D02*
X149417200Y-96920800D01*
X149417200Y-113837200D02*
X149417200Y-112353840D01*
D11*
X139498500Y-95942900D02*
X139498500Y-95688900D01*
X139498500Y-95688900D02*
X139879500Y-95688900D01*
X139879500Y-95688900D02*
X139879500Y-95942900D01*
X139879500Y-95942900D02*
X139498500Y-95942900D01*
G36*
X139879500Y-95942900D02*
G01*
X139498500Y-95942900D01*
X139498500Y-95688900D01*
X139879500Y-95688900D01*
X139879500Y-95942900D01*
G37*
X139879500Y-95942900D02*
X139498500Y-95942900D01*
X139498500Y-95688900D01*
X139879500Y-95688900D01*
X139879500Y-95942900D01*
X144578500Y-114815100D02*
X144578500Y-115069100D01*
X144578500Y-115069100D02*
X144959500Y-115069100D01*
X144959500Y-115069100D02*
X144959500Y-114815100D01*
X144959500Y-114815100D02*
X144578500Y-114815100D01*
G36*
X144959500Y-115069100D02*
G01*
X144578500Y-115069100D01*
X144578500Y-114815100D01*
X144959500Y-114815100D01*
X144959500Y-115069100D01*
G37*
X144959500Y-115069100D02*
X144578500Y-115069100D01*
X144578500Y-114815100D01*
X144959500Y-114815100D01*
X144959500Y-115069100D01*
X131268900Y-110268500D02*
X131268900Y-110649500D01*
X131268900Y-110649500D02*
X131522900Y-110649500D01*
X131522900Y-110649500D02*
X131522900Y-110268500D01*
X131522900Y-110268500D02*
X131268900Y-110268500D01*
G36*
X131522900Y-110649500D02*
G01*
X131268900Y-110649500D01*
X131268900Y-110268500D01*
X131522900Y-110268500D01*
X131522900Y-110649500D01*
G37*
X131522900Y-110649500D02*
X131268900Y-110649500D01*
X131268900Y-110268500D01*
X131522900Y-110268500D01*
X131522900Y-110649500D01*
X150649100Y-102648500D02*
X150649100Y-103029500D01*
X150649100Y-103029500D02*
X150395100Y-103029500D01*
X150395100Y-103029500D02*
X150395100Y-102648500D01*
X150395100Y-102648500D02*
X150649100Y-102648500D01*
G36*
X150649100Y-103029500D02*
G01*
X150395100Y-103029500D01*
X150395100Y-102648500D01*
X150649100Y-102648500D01*
X150649100Y-103029500D01*
G37*
X150649100Y-103029500D02*
X150395100Y-103029500D01*
X150395100Y-102648500D01*
X150649100Y-102648500D01*
X150649100Y-103029500D01*
D10*
%TO.C,R3*%
X147252258Y-95215500D02*
X146777742Y-95215500D01*
X147252258Y-94170500D02*
X146777742Y-94170500D01*
%TO.C,C8*%
X125552100Y-109178000D02*
X125552100Y-108475000D01*
X127433100Y-109178000D02*
X127433100Y-107638000D01*
X127393100Y-112797000D02*
X127393100Y-111258000D01*
X130027875Y-111943000D02*
X130027875Y-111443000D01*
X125792100Y-109178000D02*
X125792100Y-108247000D01*
X125552100Y-111961000D02*
X125552100Y-111258000D01*
X127473100Y-109178000D02*
X127473100Y-107638000D01*
X127073100Y-109178000D02*
X127073100Y-107668000D01*
X127193100Y-109178000D02*
X127193100Y-107653000D01*
X126432100Y-109178000D02*
X126432100Y-107853000D01*
X130277875Y-111693000D02*
X129777875Y-111693000D01*
X127153100Y-112779000D02*
X127153100Y-111258000D01*
X126312100Y-112528000D02*
X126312100Y-111258000D01*
X125912100Y-109178000D02*
X125912100Y-108153000D01*
X126352100Y-112547000D02*
X126352100Y-111258000D01*
X126312100Y-109178000D02*
X126312100Y-107908000D01*
X126712100Y-109178000D02*
X126712100Y-107750000D01*
X125712100Y-112119000D02*
X125712100Y-111258000D01*
X126752100Y-109178000D02*
X126752100Y-107738000D01*
X125872100Y-112253000D02*
X125872100Y-111258000D01*
X126072100Y-109178000D02*
X126072100Y-108043000D01*
X126833100Y-112719000D02*
X126833100Y-111258000D01*
X125952100Y-109178000D02*
X125952100Y-108123000D01*
X125992100Y-112340000D02*
X125992100Y-111258000D01*
X125672100Y-112082000D02*
X125672100Y-111258000D01*
X126592100Y-109178000D02*
X126592100Y-107790000D01*
X126032100Y-109178000D02*
X126032100Y-108069000D01*
X127113100Y-109178000D02*
X127113100Y-107662000D01*
X126232100Y-112486000D02*
X126232100Y-111258000D01*
X126432100Y-112583000D02*
X126432100Y-111258000D01*
X127353100Y-109178000D02*
X127353100Y-107640000D01*
X127353100Y-112796000D02*
X127353100Y-111258000D01*
X125432100Y-111823000D02*
X125432100Y-108613000D01*
X126272100Y-112508000D02*
X126272100Y-111258000D01*
X125472100Y-111871000D02*
X125472100Y-111258000D01*
X127113100Y-112774000D02*
X127113100Y-111258000D01*
X125952100Y-112313000D02*
X125952100Y-111258000D01*
X125792100Y-112189000D02*
X125792100Y-111258000D01*
X125832100Y-109178000D02*
X125832100Y-108214000D01*
X125272100Y-111601000D02*
X125272100Y-108835000D01*
X126112100Y-109178000D02*
X126112100Y-108018000D01*
X126993100Y-112754000D02*
X126993100Y-111258000D01*
X126953100Y-109178000D02*
X126953100Y-107690000D01*
X125152100Y-111396000D02*
X125152100Y-109040000D01*
X126272100Y-109178000D02*
X126272100Y-107928000D01*
X127073100Y-112768000D02*
X127073100Y-111258000D01*
X127153100Y-109178000D02*
X127153100Y-107657000D01*
X125512100Y-111917000D02*
X125512100Y-111258000D01*
X125472100Y-109178000D02*
X125472100Y-108565000D01*
X126472100Y-109178000D02*
X126472100Y-107836000D01*
X124912100Y-110736000D02*
X124912100Y-109700000D01*
X125232100Y-111537000D02*
X125232100Y-108899000D01*
X126953100Y-112746000D02*
X126953100Y-111258000D01*
X125592100Y-112003000D02*
X125592100Y-111258000D01*
X126632100Y-109178000D02*
X126632100Y-107776000D01*
X125632100Y-112044000D02*
X125632100Y-111258000D01*
X127273100Y-109178000D02*
X127273100Y-107645000D01*
X126793100Y-112709000D02*
X126793100Y-111258000D01*
X127033100Y-112761000D02*
X127033100Y-111258000D01*
X125712100Y-109178000D02*
X125712100Y-108317000D01*
X126472100Y-112600000D02*
X126472100Y-111258000D01*
X126873100Y-109178000D02*
X126873100Y-107707000D01*
X127313100Y-109178000D02*
X127313100Y-107642000D01*
X126512100Y-112616000D02*
X126512100Y-111258000D01*
X126392100Y-109178000D02*
X126392100Y-107870000D01*
X125752100Y-112155000D02*
X125752100Y-111258000D01*
X126232100Y-109178000D02*
X126232100Y-107950000D01*
X127233100Y-112787000D02*
X127233100Y-111258000D01*
X126833100Y-109178000D02*
X126833100Y-107717000D01*
X127273100Y-112791000D02*
X127273100Y-111258000D01*
X126993100Y-109178000D02*
X126993100Y-107682000D01*
X126752100Y-112698000D02*
X126752100Y-111258000D01*
X125672100Y-109178000D02*
X125672100Y-108354000D01*
X126793100Y-109178000D02*
X126793100Y-107727000D01*
X126672100Y-112673000D02*
X126672100Y-111258000D01*
X126873100Y-112729000D02*
X126873100Y-111258000D01*
X125312100Y-111661000D02*
X125312100Y-108775000D01*
X125872100Y-109178000D02*
X125872100Y-108183000D01*
X125832100Y-112222000D02*
X125832100Y-111258000D01*
X126192100Y-109178000D02*
X126192100Y-107971000D01*
X127313100Y-112794000D02*
X127313100Y-111258000D01*
X126192100Y-112465000D02*
X126192100Y-111258000D01*
X125512100Y-109178000D02*
X125512100Y-108519000D01*
X126392100Y-112566000D02*
X126392100Y-111258000D01*
X127393100Y-109178000D02*
X127393100Y-107639000D01*
X126712100Y-112686000D02*
X126712100Y-111258000D01*
X126592100Y-112646000D02*
X126592100Y-111258000D01*
X125632100Y-109178000D02*
X125632100Y-108392000D01*
X127473100Y-112798000D02*
X127473100Y-111258000D01*
X126112100Y-112418000D02*
X126112100Y-111258000D01*
X126152100Y-112442000D02*
X126152100Y-111258000D01*
X126032100Y-112367000D02*
X126032100Y-111258000D01*
X125072100Y-111229000D02*
X125072100Y-109207000D01*
X126632100Y-112660000D02*
X126632100Y-111258000D01*
X126913100Y-112738000D02*
X126913100Y-111258000D01*
X125912100Y-112283000D02*
X125912100Y-111258000D01*
X127433100Y-112798000D02*
X127433100Y-111258000D01*
X124992100Y-111023000D02*
X124992100Y-109413000D01*
X126672100Y-109178000D02*
X126672100Y-107763000D01*
X126552100Y-112632000D02*
X126552100Y-111258000D01*
X124952100Y-110895000D02*
X124952100Y-109541000D01*
X127233100Y-109178000D02*
X127233100Y-107649000D01*
X124872100Y-110502000D02*
X124872100Y-109934000D01*
X127033100Y-109178000D02*
X127033100Y-107675000D01*
X127193100Y-112783000D02*
X127193100Y-111258000D01*
X125192100Y-111469000D02*
X125192100Y-108967000D01*
X125752100Y-109178000D02*
X125752100Y-108281000D01*
X125592100Y-109178000D02*
X125592100Y-108433000D01*
X125112100Y-111316000D02*
X125112100Y-109120000D01*
X126352100Y-109178000D02*
X126352100Y-107889000D01*
X125392100Y-111772000D02*
X125392100Y-108664000D01*
X126512100Y-109178000D02*
X126512100Y-107820000D01*
X125352100Y-111718000D02*
X125352100Y-108718000D01*
X125992100Y-109178000D02*
X125992100Y-108096000D01*
X126552100Y-109178000D02*
X126552100Y-107804000D01*
X125032100Y-111133000D02*
X125032100Y-109303000D01*
X126913100Y-109178000D02*
X126913100Y-107698000D01*
X126072100Y-112393000D02*
X126072100Y-111258000D01*
X126152100Y-109178000D02*
X126152100Y-107994000D01*
X130093100Y-110218000D02*
G75*
G03*
X130093100Y-110218000I-2620000J0D01*
G01*
%TO.C,C3*%
X153507580Y-99826000D02*
X153226420Y-99826000D01*
X153507580Y-100846000D02*
X153226420Y-100846000D01*
%TO.C,C5*%
X118650420Y-107558000D02*
X118931580Y-107558000D01*
X118650420Y-108578000D02*
X118931580Y-108578000D01*
%TO.C,R6*%
X153600258Y-102361500D02*
X153125742Y-102361500D01*
X153600258Y-101316500D02*
X153125742Y-101316500D01*
%TO.C,R1*%
X161794500Y-110537742D02*
X161794500Y-111012258D01*
X160749500Y-110537742D02*
X160749500Y-111012258D01*
%TO.C,U1*%
X127101300Y-85482600D02*
X119252700Y-85482600D01*
X119252700Y-85482600D02*
X119252700Y-85797560D01*
X119252700Y-98741400D02*
X127101300Y-98741400D01*
X127101300Y-85797560D02*
X127101300Y-85482600D01*
X127101300Y-98741400D02*
X127101300Y-98426440D01*
X119252700Y-98426440D02*
X119252700Y-98741400D01*
D11*
X129361900Y-86587500D02*
X129361900Y-86206500D01*
X129361900Y-86206500D02*
X129107900Y-86206500D01*
X129107900Y-86206500D02*
X129107900Y-86587500D01*
X129107900Y-86587500D02*
X129361900Y-86587500D01*
G36*
X129361900Y-86587500D02*
G01*
X129107900Y-86587500D01*
X129107900Y-86206500D01*
X129361900Y-86206500D01*
X129361900Y-86587500D01*
G37*
X129361900Y-86587500D02*
X129107900Y-86587500D01*
X129107900Y-86206500D01*
X129361900Y-86206500D01*
X129361900Y-86587500D01*
X116992100Y-98017500D02*
X116992100Y-97636500D01*
X116992100Y-97636500D02*
X117246100Y-97636500D01*
X117246100Y-97636500D02*
X117246100Y-98017500D01*
X117246100Y-98017500D02*
X116992100Y-98017500D01*
G36*
X117246100Y-98017500D02*
G01*
X116992100Y-98017500D01*
X116992100Y-97636500D01*
X117246100Y-97636500D01*
X117246100Y-98017500D01*
G37*
X117246100Y-98017500D02*
X116992100Y-98017500D01*
X116992100Y-97636500D01*
X117246100Y-97636500D01*
X117246100Y-98017500D01*
D10*
%TO.C,C9*%
X164906000Y-82304580D02*
X164906000Y-82023420D01*
X163886000Y-82304580D02*
X163886000Y-82023420D01*
%TO.C,R2*%
X123188500Y-108332742D02*
X123188500Y-108807258D01*
X124233500Y-108332742D02*
X124233500Y-108807258D01*
%TO.C,C7*%
X153010000Y-111063580D02*
X153010000Y-110782420D01*
X151990000Y-111063580D02*
X151990000Y-110782420D01*
%TO.C,R4*%
X138950258Y-93760500D02*
X138475742Y-93760500D01*
X138950258Y-94805500D02*
X138475742Y-94805500D01*
%TO.C,C2*%
X127308580Y-98776000D02*
X127027420Y-98776000D01*
X127308580Y-99796000D02*
X127027420Y-99796000D01*
%TD*%
M02*
